<svg width="165" height="164" viewBox="0 0 165 164" fill="none" xmlns="http://www.w3.org/2000/svg">
<path fill-rule="evenodd" clip-rule="evenodd" d="M43.4379 25.4798C35.8242 25.9185 31.2445 28.112 28.5221 32.6261C27.6707 34.0365 26.6976 36.9339 26.3273 39.1574C25.674 43.0743 25.4157 77.6496 26.0239 79.5206C26.3519 80.5251 27.9755 82.1022 28.9977 82.407C31.4345 83.1354 33.8084 82.1186 34.858 79.8978L35.3049 78.9534L35.3131 64.3957C35.3213 48.3373 35.4921 41.8552 35.9609 39.8339C36.4064 37.9124 37.0583 36.8355 38.1339 36.2505C39.6851 35.4059 41.0955 35.1941 46.5881 34.9809C53.3176 34.7199 119.684 34.877 121.67 35.1586C126.265 35.8118 127.376 36.9776 127.996 41.8033C128.338 44.4546 128.328 95.1429 127.987 97.9883C127.437 102.553 126.608 103.641 123.018 104.498C121.71 104.809 119.321 104.839 88.5284 104.938C57.1989 105.038 55.4031 105.061 54.687 105.383C51.6311 106.76 50.8111 110.719 53.103 113.034C54.5927 114.539 54.2209 114.484 63.7015 114.591L72.1475 114.685L66.3077 122.479C59.9951 130.903 59.6972 131.406 59.9855 133.172C60.524 136.474 63.9065 138.245 66.8544 136.77C67.889 136.254 68.1295 135.958 74.8221 127.029C78.6173 121.965 81.7647 117.821 81.8167 117.821C81.8686 117.821 85.016 121.965 88.8113 127.029C95.5038 135.958 95.7444 136.254 96.7789 136.77C99.7268 138.245 103.109 136.474 103.648 133.172C103.936 131.406 103.638 130.903 97.3256 122.479L91.4858 114.685L106.265 114.569C121.775 114.448 122.833 114.394 126.207 113.54C132.631 111.913 136.289 107.532 137.403 100.127C137.91 96.7638 138.153 62.7816 137.778 47.8535C137.585 40.2029 137.391 38.4837 136.381 35.5262C134.472 29.9352 130.544 26.9189 123.693 25.7832C121.979 25.499 118.184 25.4675 83.1396 25.4443C61.8756 25.4306 44.0106 25.447 43.4379 25.4798Z" fill="white"/>
<path fill-rule="evenodd" clip-rule="evenodd" d="M47.0217 47.4055C46.3247 47.7512 45.6168 48.4715 45.3134 49.1452C44.749 50.4012 45.1316 52.1054 46.1853 53.0334C47.2787 53.9955 43.985 53.9149 81.9278 53.9149C119.661 53.9149 116.563 53.986 117.61 53.0908C118.702 52.156 119.113 50.4162 118.542 49.1452C118.236 48.4674 117.52 47.7403 116.821 47.4027C116.302 47.1513 116.138 47.1499 81.9196 47.1499C47.5506 47.1499 47.5383 47.1499 47.0217 47.4055ZM47.7679 64.9439C45.5949 65.3771 44.4237 67.7592 45.4022 69.7587C45.7999 70.5732 46.4149 71.1158 47.3251 71.4561C47.9784 71.7007 48.4089 71.7048 81.9278 71.7048C115.447 71.7048 115.877 71.7007 116.53 71.4561C117.441 71.1158 118.056 70.5732 118.453 69.7587C119.301 68.0271 118.548 65.9662 116.767 65.1421L116.191 64.8769L82.2407 64.8578C63.568 64.8482 48.0549 64.8865 47.7679 64.9439ZM70.84 84.0977C69.8656 84.3369 69.0305 85.053 68.5672 86.0466C67.7718 87.7563 68.6615 89.8719 70.4724 90.5703C71.0723 90.8026 71.7625 90.8094 93.6415 90.8094H116.191L116.755 90.5443C117.139 90.3453 117.493 90.0922 117.805 89.7926C119.443 88.1554 118.997 85.4138 116.923 84.3547L116.316 84.0444L93.7658 84.0253C81.3633 84.0144 71.0477 84.0472 70.84 84.0977Z" fill="white"/>
<path d="M50.7585 127.337C47.0497 125.922 43.1511 124.887 39.149 124.266C37.8897 124.077 36.6305 124.715 36.0784 125.871L30.5238 137.36L24.9862 125.871C24.4341 124.715 23.1922 124.059 21.9157 124.266C17.9309 124.887 14.015 125.922 10.3234 127.337C6.09717 128.959 3.2334 133.133 3.2334 137.756V158.094C3.2334 159.699 4.52732 161.01 6.14867 161.01H54.9848C56.5891 161.01 57.9001 159.716 57.9001 158.094V137.756C57.8659 133.133 55.0368 128.959 50.7585 127.337ZM52.0698 155.179H52.0525H9.04686V137.756C9.04686 135.548 10.4096 133.547 12.428 132.788C15.0847 131.753 17.8965 130.977 20.7429 130.39L27.9365 145.312C28.4368 146.33 29.4372 146.968 30.5585 146.968C31.6797 146.968 32.6975 146.33 33.1805 145.312L40.374 130.39C43.2205 130.942 45.9978 131.753 48.6889 132.788C50.7073 133.547 52.0701 135.548 52.0701 137.756V155.179H52.0698Z" fill="white"/>
<path d="M30.5579 88.8335C22.2948 88.8335 15.6016 95.5438 15.6016 103.79C15.6016 112.035 22.3292 118.746 30.5579 118.746C38.8036 118.746 45.5139 112.053 45.5139 103.79C45.5139 95.5265 38.821 88.8335 30.5579 88.8335ZM30.5579 112.95C25.5207 112.95 21.4497 108.844 21.4497 103.807C21.4497 98.7697 25.5209 94.664 30.5579 94.664C35.5948 94.664 39.7008 98.7697 39.7008 103.807C39.7008 108.844 35.5951 112.95 30.5579 112.95Z" fill="white"/>
</svg>
