<svg width="122" height="123" viewBox="0 0 122 123" fill="none" xmlns="http://www.w3.org/2000/svg">
<path fill-rule="evenodd" clip-rule="evenodd" d="M36.4084 0.0365523C29.5136 0.433829 25.3663 2.42022 22.901 6.50809C22.1299 7.78531 21.2487 10.4091 20.9133 12.4227C20.3218 15.9697 20.0878 47.2804 20.6386 48.9747C20.9356 49.8843 22.4059 51.3125 23.3316 51.5885C25.5383 52.2482 27.6881 51.3274 28.6386 49.3163L29.0433 48.4611L29.0507 35.2779C29.0581 20.7358 29.2128 14.8658 29.6373 13.0353C30.0408 11.2952 30.6311 10.32 31.6051 9.79027C33.0099 9.02541 34.2871 8.83358 39.2611 8.64051C45.3552 8.40413 105.455 8.54645 107.254 8.8014C111.415 9.39299 112.421 10.4487 112.983 14.8187C113.292 17.2197 113.283 63.1219 112.974 65.6987C112.476 69.8323 111.725 70.8175 108.474 71.5935C107.29 71.8757 105.126 71.9029 77.2413 71.992C48.87 72.0823 47.2438 72.1034 46.5952 72.3955C43.8279 73.6417 43.0853 77.2271 45.1608 79.3237C46.5099 80.6866 46.1732 80.637 54.7586 80.7336L62.4071 80.819L57.1188 87.8771C51.4022 95.5059 51.1324 95.9613 51.3935 97.5603C51.8812 100.55 54.9443 102.154 57.6138 100.819C58.5507 100.351 58.7685 100.084 64.8292 91.9972C68.266 87.4118 71.1163 83.6593 71.1633 83.6593C71.2104 83.6593 74.0606 87.4118 77.4975 91.9972C83.5581 100.084 83.7759 100.351 84.7128 100.819C87.3824 102.154 90.4455 100.55 90.9331 97.5603C91.1943 95.9613 90.9245 95.5059 85.2079 87.8771L79.9195 80.819L93.3032 80.7138C107.349 80.6049 108.307 80.5554 111.363 79.7818C117.179 78.3088 120.493 74.341 121.501 67.6356C121.96 64.5898 122.181 33.8163 121.84 20.2977C121.666 13.3695 121.49 11.8125 120.575 9.13433C118.846 4.07121 115.29 1.33977 109.085 0.311305C107.533 0.0538791 104.096 0.0254172 72.3613 0.00437755C53.1051 -0.00799868 36.9269 0.00684929 36.4084 0.0365523Z" fill="url(#paint0_linear_667_1030)"/>
<path fill-rule="evenodd" clip-rule="evenodd" d="M39.6535 19.892C39.0223 20.2051 38.3812 20.8573 38.1064 21.4675C37.5953 22.6048 37.9418 24.1481 38.8961 24.9885C39.8862 25.8598 36.9035 25.7868 71.2636 25.7868C105.434 25.7868 102.629 25.8511 103.577 25.0405C104.566 24.1939 104.938 22.6184 104.421 21.4675C104.144 20.8536 103.495 20.1952 102.863 19.8895C102.392 19.6618 102.244 19.6605 71.2562 19.6605C40.1324 19.6605 40.1213 19.6605 39.6535 19.892ZM40.3292 35.7744C38.3614 36.1667 37.3008 38.3239 38.1869 40.1345C38.547 40.8722 39.104 41.3635 39.9282 41.6717C40.5198 41.8932 40.9097 41.8969 71.2636 41.8969C101.618 41.8969 102.007 41.8932 102.599 41.6717C103.423 41.3635 103.98 40.8722 104.34 40.1345C105.108 38.5665 104.426 36.7001 102.813 35.9538L102.292 35.7137L71.547 35.6964C54.6374 35.6878 40.5891 35.7224 40.3292 35.7744ZM61.2228 53.1197C60.3403 53.3363 59.5842 53.9848 59.1646 54.8845C58.4443 56.4328 59.25 58.3486 60.8899 58.9811C61.4332 59.1915 62.0582 59.1977 81.8713 59.1977H102.292L102.802 58.9576C103.151 58.7774 103.472 58.5482 103.754 58.2769C105.236 56.7942 104.833 54.3115 102.954 53.3524L102.405 53.0714L81.9839 53.0541C70.7525 53.0442 61.4109 53.0739 61.2228 53.1197Z" fill="white"/>
<path d="M43.0371 92.2756C39.6794 90.9946 36.1485 90.0578 32.5248 89.4959C31.3837 89.3239 30.2438 89.9018 29.7438 90.9489L24.7141 101.352L19.6992 90.9489C19.1992 89.9018 18.0743 89.3078 16.9183 89.4959C13.3094 90.0578 9.7636 90.9946 6.42078 92.2756C2.59281 93.7446 0 97.5244 0 101.711V120.13C0 121.583 1.17202 122.769 2.63985 122.769H46.8651C48.3181 122.769 49.505 121.597 49.505 120.13V101.711C49.474 97.5244 46.9121 93.7446 43.0371 92.2756ZM44.2253 117.49H44.2092H5.26485V101.711C5.26485 99.7125 6.49876 97.8994 8.32673 97.2125C10.7327 96.2756 13.2785 95.5726 15.8565 95.0417L22.3701 108.554C22.8243 109.475 23.7289 110.054 24.745 110.054C25.7599 110.054 26.6819 109.475 27.1188 108.554L33.6337 95.0417C36.2116 95.5404 38.7265 96.2756 41.1634 97.2125C42.9914 97.8994 44.2253 99.7125 44.2253 101.711V117.49Z" fill="url(#paint1_linear_667_1030)"/>
<path d="M24.745 57.408C17.2623 57.408 11.2004 63.4847 11.2004 70.952C11.2004 78.419 17.2933 84.4959 24.745 84.4959C32.2116 84.4959 38.2883 78.4347 38.2883 70.952C38.2883 63.469 32.2277 57.408 24.745 57.408ZM24.745 79.2471C20.1831 79.2471 16.4963 75.5292 16.4963 70.9675C16.4963 66.406 20.1831 62.688 24.745 62.688C29.3056 62.688 33.0247 66.406 33.0247 70.9675C33.0247 75.5292 29.3056 79.2471 24.745 79.2471Z" fill="url(#paint2_linear_667_1030)"/>
<defs>
<linearGradient id="paint0_linear_667_1030" x1="20.3267" y1="50.6469" x2="122.006" y2="50.6469" gradientUnits="userSpaceOnUse">
<stop stop-color="#662DB5"/>
<stop offset="0.685" stop-color="#B01BEB"/>
</linearGradient>
<linearGradient id="paint1_linear_667_1030" x1="0" y1="106.115" x2="49.505" y2="106.115" gradientUnits="userSpaceOnUse">
<stop stop-color="#662DB5"/>
<stop offset="0.685" stop-color="#B01BEB"/>
</linearGradient>
<linearGradient id="paint2_linear_667_1030" x1="11.2004" y1="70.9521" x2="38.2883" y2="70.9521" gradientUnits="userSpaceOnUse">
<stop stop-color="#662DB5"/>
<stop offset="0.685" stop-color="#B01BEB"/>
</linearGradient>
</defs>
</svg>
