<svg width="334" height="126" viewBox="0 0 334 126" fill="none" xmlns="http://www.w3.org/2000/svg">
<path d="M32.31 106.23C28.23 106.23 24.51 105.69 21.15 104.61C17.85 103.59 14.97 102.06 12.51 100.02C10.11 97.9799 8.24995 95.4299 6.92995 92.3699C5.60995 89.3099 4.94995 85.8299 4.94995 81.9299C4.94995 79.7699 5.30995 77.2199 6.02995 74.2799C6.74995 71.2799 7.76995 68.5199 9.08995 65.9999C9.38995 65.4599 9.74995 65.0999 10.17 64.9199C10.59 64.6799 11.16 64.6799 11.88 64.9199L14.58 65.8199C15.24 66.0599 15.6 66.4199 15.66 66.8999C15.72 67.3199 15.57 67.9499 15.21 68.7899C14.25 70.8899 13.47 72.9899 12.87 75.0899C12.33 77.1299 12.06 79.0799 12.06 80.9399C12.06 84.4799 12.9 87.5099 14.58 90.0299C16.26 92.5499 18.69 94.4699 21.87 95.7899C25.05 97.1699 28.7999 97.8599 33.1199 97.8599H38.88C42.54 97.8599 45.63 97.4699 48.15 96.6899C50.7299 95.9099 52.83 94.8299 54.45 93.4499C56.07 92.0699 57.3299 90.5099 58.2299 88.7699C59.1899 87.0899 59.88 85.3799 60.2999 83.6399H53.91C50.25 83.6399 47.07 83.0699 44.3699 81.9299C41.7299 80.7899 39.6899 79.1399 38.25 76.9799C36.8099 74.7599 36.09 72.0899 36.09 68.9699C36.09 66.8699 36.4499 64.8899 37.1699 63.0299C37.8899 61.1699 38.88 59.5199 40.1399 58.0799C41.4599 56.5799 43.08 55.4099 45 54.5699C46.9799 53.7299 49.1699 53.3099 51.57 53.3099C55.41 53.3099 58.47 54.2699 60.75 56.1899C63.09 58.1099 64.7999 60.7199 65.8799 64.0199C66.9599 67.3199 67.5299 71.1599 67.5899 75.5399H75.42C76.32 75.5399 76.77 75.9899 76.77 76.8899V81.4799C76.77 83.2799 75.87 84.1799 74.07 84.1799H66.7799C66.2399 86.8799 65.3699 89.5499 64.1699 92.1899C63.0299 94.8299 61.38 97.1999 59.22 99.2999C57.12 101.46 54.3599 103.14 50.9399 104.34C47.52 105.6 43.32 106.23 38.34 106.23H32.31ZM54 75.5399H61.02C60.84 70.8599 59.91 67.2599 58.2299 64.7399C56.61 62.1599 54.1199 60.8699 50.7599 60.8699C48.84 60.8699 47.25 61.2599 45.99 62.0399C44.79 62.8199 43.8899 63.7799 43.29 64.9199C42.75 66.0599 42.4799 67.2299 42.4799 68.4299C42.4799 70.8299 43.47 72.6299 45.45 73.8299C47.49 74.9699 50.34 75.5399 54 75.5399ZM46.08 43.7699C45.78 44.0699 45.4199 44.2199 45 44.2199C44.58 44.2199 44.19 44.0399 43.83 43.6799L40.59 40.3499C40.29 39.9899 40.1399 39.6299 40.1399 39.2699C40.1399 38.8499 40.29 38.4599 40.59 38.0999L43.83 34.7699C44.19 34.4099 44.58 34.2299 45 34.2299C45.4199 34.2299 45.78 34.4099 46.08 34.7699L49.41 38.0999C49.77 38.3999 49.95 38.7899 49.95 39.2699C50.01 39.6899 49.86 40.0799 49.5 40.4399L46.08 43.7699ZM59.49 43.7699C59.19 44.1299 58.8299 44.2799 58.41 44.2199C57.99 44.1599 57.6 43.9799 57.24 43.6799L53.82 40.3499C53.52 40.0499 53.3699 39.6899 53.3699 39.2699C53.3699 38.7899 53.52 38.3999 53.82 38.0999L57.24 34.7699C57.6 34.4099 57.9599 34.2299 58.32 34.2299C58.68 34.2299 59.04 34.4099 59.4 34.7699L62.7299 38.0999C63.09 38.3999 63.27 38.7899 63.27 39.2699C63.27 39.6899 63.09 40.0799 62.7299 40.4399L59.49 43.7699ZM84.3413 29.6399C83.2613 29.8799 82.7213 29.4899 82.7213 28.4699V26.9399C82.7213 26.0399 83.1413 25.4999 83.9813 25.3199L100.721 21.2699C101.801 20.9699 102.341 21.3599 102.341 22.4399V23.9699C102.341 24.8699 101.921 25.4099 101.081 25.5899L84.3413 29.6399ZM88.3013 19.8299C86.4413 20.1899 84.9113 19.8599 83.7113 18.8399C82.5113 17.8199 81.9113 15.9899 81.9113 13.3499V11.5499C81.9113 10.6499 82.3313 10.1099 83.1713 9.92988L84.3413 9.56988C85.3613 9.38988 85.8713 9.80988 85.8713 10.8299V12.5399C85.8713 13.5599 86.0813 14.2499 86.5013 14.6099C86.9212 14.9699 87.5213 15.1199 88.3013 15.0599C89.0813 14.9399 89.6213 14.6699 89.9213 14.2499C90.2813 13.7699 90.4613 12.9899 90.4613 11.9099V9.74988C90.4613 8.84988 90.8813 8.30988 91.7213 8.12988L92.9813 7.85988C94.0013 7.67988 94.5113 8.09988 94.5113 9.11988V11.0099C94.5113 11.9699 94.6913 12.6299 95.0513 12.9899C95.4713 13.2899 96.0413 13.4099 96.7613 13.3499C97.7213 13.2299 98.3512 12.9299 98.6513 12.4499C98.9513 11.9099 99.1013 11.0699 99.1013 9.92988V8.03988C99.1013 7.13988 99.5213 6.59988 100.361 6.41988L101.621 6.14987C102.641 5.96988 103.151 6.38988 103.151 7.40988V9.20988C103.151 12.0299 102.611 14.1599 101.531 15.5999C100.511 17.0399 99.0713 17.8799 97.2113 18.1199C96.2513 18.2399 95.3813 18.2099 94.6013 18.0299C93.8213 17.7899 93.1313 17.3099 92.5313 16.5899C91.3913 18.4499 89.9813 19.5299 88.3013 19.8299ZM101.441 84.5399C100.121 84.5399 98.6813 84.3599 97.1213 83.9999C95.5613 83.6399 94.0613 82.8899 92.6213 81.7499C91.2413 80.6099 90.0713 78.8999 89.1113 76.6199C88.1513 78.5999 86.8913 80.1299 85.3313 81.2099C83.7713 82.2899 82.0312 83.0699 80.1113 83.5499C78.1913 83.9699 76.1813 84.1799 74.0812 84.1799C73.1812 84.1799 72.7312 83.6999 72.7312 82.7399V78.2399C72.7312 76.4399 73.6311 75.5399 75.4313 75.5399C79.3913 75.5399 82.1213 74.9399 83.6213 73.7399C85.1813 72.4799 85.9613 70.1399 85.9613 66.7199V59.4299C85.9613 58.7699 86.1113 58.2599 86.4112 57.8999C86.7713 57.5399 87.2812 57.3599 87.9413 57.3599H91.4513C92.7113 57.3599 93.3413 58.0499 93.3413 59.4299V66.9899C93.3413 70.4099 94.1213 72.7499 95.6813 74.0099C97.2412 75.2699 99.2513 75.8999 101.711 75.8999C104.831 75.8999 106.931 75.1199 108.011 73.5599C109.151 71.9999 109.721 69.6899 109.721 66.6299V59.6099C109.721 58.9499 109.871 58.4099 110.171 57.9899C110.531 57.5699 111.041 57.3599 111.701 57.3599H115.121C115.781 57.3599 116.261 57.5699 116.561 57.9899C116.921 58.4099 117.101 58.9499 117.101 59.6099V66.8999C117.101 70.1999 117.731 72.5399 118.991 73.9199C120.251 75.2399 122.411 75.8999 125.471 75.8999C128.591 75.8999 130.691 75.1199 131.771 73.5599C132.851 71.9999 133.391 69.6899 133.391 66.6299V59.4299C133.391 58.8299 133.541 58.3499 133.841 57.9899C134.141 57.5699 134.591 57.3599 135.191 57.3599H138.971C139.571 57.3599 140.021 57.5699 140.321 57.9899C140.681 58.3499 140.861 58.8299 140.861 59.4299V66.7199C140.861 69.9599 141.641 72.2399 143.201 73.5599C144.761 74.8799 147.461 75.5399 151.301 75.5399H153.191C154.091 75.5399 154.541 75.9899 154.541 76.8899V81.4799C154.541 83.2799 153.611 84.1799 151.751 84.1799C148.031 84.1799 144.911 83.7299 142.391 82.8299C139.871 81.8699 137.891 80.3699 136.451 78.3299C135.491 80.4899 133.991 82.0799 131.951 83.0999C129.911 84.0599 127.691 84.5399 125.291 84.5399C122.351 84.5399 119.831 84.0599 117.731 83.0999C115.631 82.0799 113.981 80.4899 112.781 78.3299C111.761 80.5499 110.231 82.1399 108.191 83.0999C106.211 84.0599 103.961 84.5399 101.441 84.5399ZM158.433 30.6399C157.353 30.8799 156.813 30.4899 156.813 29.4699V27.9399C156.813 27.0399 157.233 26.4999 158.073 26.3199L174.813 22.2699C175.893 21.9699 176.433 22.3599 176.433 23.4399V24.9699C176.433 25.8699 176.013 26.4099 175.173 26.5899L158.433 30.6399ZM151.864 84.1799C150.964 84.1799 150.514 83.6999 150.514 82.7399V78.2399C150.514 76.4399 151.414 75.5399 153.214 75.5399H154.384C157.144 75.5399 159.274 74.8499 160.774 73.4699C162.274 72.0899 163.024 69.4799 163.024 65.6399V56.6399C163.024 55.2599 163.684 54.5699 165.004 54.5699H168.424C169.744 54.5699 170.404 55.2599 170.404 56.6399V65.6399C170.404 69.5399 171.274 72.1799 173.014 73.5599C174.754 74.8799 177.214 75.5399 180.394 75.5399H182.014C182.914 75.5399 183.364 75.9899 183.364 76.8899V81.4799C183.364 83.2799 182.464 84.1799 180.664 84.1799C177.664 84.1799 174.844 83.6399 172.204 82.5599C169.624 81.4199 167.524 79.3199 165.904 76.2599C164.584 79.3799 162.634 81.4799 160.054 82.5599C157.474 83.6399 154.744 84.1799 151.864 84.1799ZM167.614 45.5699C167.314 45.8699 166.954 46.0199 166.534 46.0199C166.114 45.9599 165.724 45.7799 165.364 45.4799L161.944 42.0599C161.644 41.6999 161.494 41.3099 161.494 40.8899C161.494 40.4699 161.644 40.1099 161.944 39.8099L165.364 36.3899C165.724 36.0899 166.084 35.9399 166.444 35.9399C166.864 35.8799 167.224 36.0299 167.524 36.3899L170.944 39.8099C171.784 40.6499 171.814 41.4299 171.034 42.1499L167.614 45.5699ZM202.115 29.6399C201.035 29.8799 200.495 29.4899 200.495 28.4699V27.1199C200.495 26.3399 200.915 25.8599 201.755 25.6799L205.805 24.6899C207.905 24.1499 209.615 23.6099 210.935 23.0699C212.255 22.5299 213.485 21.8699 214.625 21.0899L215.885 22.0799C215.345 22.3199 214.565 22.4399 213.545 22.4399C211.445 22.4399 209.855 21.8399 208.775 20.6399C207.755 19.4399 207.245 18.1799 207.245 16.8599C207.245 14.9999 207.875 13.3499 209.135 11.9099C210.395 10.4699 212.105 9.74988 214.265 9.74988C215.825 9.74988 217.175 10.2599 218.315 11.2799C219.455 12.2999 220.025 13.7699 220.025 15.6899C220.025 18.8699 218.855 21.5399 216.515 23.6999C214.175 25.8599 211.055 27.4199 207.155 28.3799L202.115 29.6399ZM213.545 18.8399C214.325 18.8399 214.955 18.5699 215.435 18.0299C215.915 17.4899 216.155 16.8599 216.155 16.1399C216.155 15.3599 215.915 14.7299 215.435 14.2499C214.955 13.7699 214.325 13.5299 213.545 13.5299C212.765 13.5299 212.105 13.7999 211.565 14.3399C211.085 14.8199 210.845 15.4799 210.845 16.3199C210.845 17.0399 211.085 17.6399 211.565 18.1199C212.105 18.5999 212.765 18.8399 213.545 18.8399ZM213.543 84.7199C212.163 84.7199 210.873 84.5999 209.673 84.3599C208.473 84.1799 207.183 83.8499 205.803 83.3699C204.483 82.8299 202.893 82.0799 201.033 81.1199C199.173 80.0999 196.833 78.7799 194.013 77.1599C192.573 79.2599 191.103 80.8199 189.603 81.8399C188.103 82.7999 186.603 83.4299 185.103 83.7299C183.663 84.0299 182.193 84.1799 180.693 84.1799C179.793 84.1799 179.343 83.7299 179.343 82.8299V78.2399C179.343 76.4399 180.243 75.5399 182.043 75.5399C183.303 75.5399 184.413 75.3599 185.373 74.9999C186.333 74.6399 187.323 73.8899 188.343 72.7499C189.423 71.6099 190.653 69.8099 192.033 67.3499C194.373 63.3299 196.533 60.2699 198.513 58.1699C200.553 56.0699 202.533 54.6299 204.453 53.8499C206.373 53.0699 208.353 52.6799 210.393 52.6799C213.213 52.6799 215.823 53.4599 218.223 55.0199C220.683 56.5199 222.633 58.5899 224.073 61.2299C225.513 63.8099 226.233 66.8399 226.233 70.3199C226.233 72.5399 225.933 74.5499 225.333 76.3499C224.733 78.1499 223.863 79.6799 222.723 80.9399C221.583 82.1999 220.233 83.1599 218.673 83.8199C217.113 84.4199 215.403 84.7199 213.543 84.7199ZM213.813 76.7099C215.193 76.7099 216.363 76.2899 217.323 75.4499C218.343 74.6099 218.853 72.9899 218.853 70.5899C218.913 68.5499 218.493 66.7799 217.593 65.2799C216.753 63.7799 215.613 62.6099 214.173 61.7699C212.793 60.8699 211.293 60.4199 209.673 60.4199C208.533 60.4199 207.393 60.6599 206.253 61.1399C205.173 61.6199 203.973 62.5499 202.653 63.9299C201.393 65.3099 199.893 67.4399 198.153 70.3199C201.273 72.1799 203.733 73.5899 205.533 74.5499C207.393 75.4499 208.923 76.0499 210.123 76.3499C211.383 76.5899 212.613 76.7099 213.813 76.7099Z" fill="white"/>
<path d="M75.96 117C75.72 117 75.516 116.928 75.348 116.784C75.204 116.616 75.132 116.412 75.132 116.172V92.664C75.132 92.4 75.204 92.196 75.348 92.052C75.516 91.884 75.72 91.8 75.96 91.8H77.76C78.048 91.8 78.264 91.872 78.408 92.016C78.552 92.16 78.636 92.28 78.66 92.376L86.292 106.92L93.96 92.376C94.008 92.28 94.092 92.16 94.212 92.016C94.356 91.872 94.572 91.8 94.86 91.8H96.624C96.888 91.8 97.092 91.884 97.236 92.052C97.404 92.196 97.488 92.4 97.488 92.664V116.172C97.488 116.412 97.404 116.616 97.236 116.784C97.092 116.928 96.888 117 96.624 117H94.86C94.62 117 94.416 116.928 94.248 116.784C94.104 116.616 94.032 116.412 94.032 116.172V98.46L88.02 110.196C87.924 110.436 87.78 110.628 87.588 110.772C87.396 110.892 87.156 110.952 86.868 110.952H85.752C85.44 110.952 85.188 110.892 84.996 110.772C84.828 110.628 84.684 110.436 84.564 110.196L78.552 98.46V116.172C78.552 116.412 78.468 116.616 78.3 116.784C78.156 116.928 77.964 117 77.724 117H75.96ZM110.23 117.36C108.694 117.36 107.386 117.024 106.306 116.352C105.25 115.656 104.446 114.696 103.894 113.472C103.342 112.248 103.066 110.844 103.066 109.26V99.108C103.066 98.868 103.138 98.676 103.282 98.532C103.45 98.364 103.654 98.28 103.894 98.28H105.694C105.934 98.28 106.126 98.364 106.27 98.532C106.438 98.676 106.522 98.868 106.522 99.108V109.08C106.522 112.656 108.082 114.444 111.202 114.444C112.69 114.444 113.878 113.976 114.766 113.04C115.678 112.08 116.134 110.76 116.134 109.08V99.108C116.134 98.868 116.206 98.676 116.35 98.532C116.518 98.364 116.722 98.28 116.962 98.28H118.726C118.99 98.28 119.194 98.364 119.338 98.532C119.482 98.676 119.554 98.868 119.554 99.108V116.172C119.554 116.412 119.482 116.616 119.338 116.784C119.194 116.928 118.99 117 118.726 117H117.07C116.83 117 116.626 116.928 116.458 116.784C116.314 116.616 116.242 116.412 116.242 116.172V114.588C115.594 115.428 114.802 116.1 113.866 116.604C112.954 117.108 111.742 117.36 110.23 117.36ZM125.73 117C125.49 117 125.286 116.928 125.118 116.784C124.974 116.616 124.902 116.412 124.902 116.172V99.108C124.902 98.868 124.974 98.676 125.118 98.532C125.286 98.364 125.49 98.28 125.73 98.28H127.422C127.662 98.28 127.854 98.364 127.998 98.532C128.166 98.676 128.25 98.868 128.25 99.108V100.692C128.874 99.876 129.654 99.216 130.59 98.712C131.55 98.184 132.774 97.92 134.262 97.92C135.822 97.92 137.142 98.268 138.222 98.964C139.326 99.636 140.154 100.584 140.706 101.808C141.258 103.008 141.534 104.412 141.534 106.02V116.172C141.534 116.412 141.462 116.616 141.318 116.784C141.174 116.928 140.982 117 140.742 117H138.942C138.702 117 138.498 116.928 138.33 116.784C138.186 116.616 138.114 116.412 138.114 116.172V106.2C138.114 104.52 137.706 103.212 136.89 102.276C136.074 101.316 134.874 100.836 133.29 100.836C131.802 100.836 130.602 101.316 129.69 102.276C128.802 103.212 128.358 104.52 128.358 106.2V116.172C128.358 116.412 128.274 116.616 128.106 116.784C127.962 116.928 127.77 117 127.53 117H125.73ZM151.954 117.36C150.754 117.36 149.662 117.12 148.678 116.64C147.694 116.16 146.902 115.512 146.302 114.696C145.702 113.88 145.402 112.956 145.402 111.924C145.402 110.268 146.074 108.948 147.418 107.964C148.762 106.98 150.514 106.332 152.674 106.02L158.038 105.264V104.22C158.038 103.068 157.702 102.168 157.03 101.52C156.382 100.872 155.314 100.548 153.826 100.548C152.746 100.548 151.87 100.764 151.198 101.196C150.55 101.628 150.094 102.18 149.83 102.852C149.686 103.212 149.434 103.392 149.074 103.392H147.454C147.19 103.392 146.986 103.32 146.842 103.176C146.722 103.008 146.662 102.816 146.662 102.6C146.662 102.24 146.794 101.796 147.058 101.268C147.346 100.74 147.778 100.224 148.354 99.72C148.93 99.216 149.662 98.796 150.55 98.46C151.462 98.1 152.566 97.92 153.862 97.92C155.302 97.92 156.514 98.112 157.498 98.496C158.482 98.856 159.25 99.348 159.802 99.972C160.378 100.596 160.786 101.304 161.026 102.096C161.29 102.888 161.422 103.692 161.422 104.508V116.172C161.422 116.412 161.338 116.616 161.17 116.784C161.026 116.928 160.834 117 160.594 117H158.938C158.674 117 158.47 116.928 158.326 116.784C158.182 116.616 158.11 116.412 158.11 116.172V114.624C157.798 115.056 157.378 115.488 156.85 115.92C156.322 116.328 155.662 116.676 154.87 116.964C154.078 117.228 153.106 117.36 151.954 117.36ZM152.71 114.66C153.694 114.66 154.594 114.456 155.41 114.048C156.226 113.616 156.862 112.956 157.318 112.068C157.798 111.18 158.038 110.064 158.038 108.72V107.712L153.862 108.324C152.158 108.564 150.874 108.972 150.01 109.548C149.146 110.1 148.714 110.808 148.714 111.672C148.714 112.344 148.906 112.908 149.29 113.364C149.698 113.796 150.202 114.12 150.802 114.336C151.426 114.552 152.062 114.66 152.71 114.66ZM173.078 117.36C171.734 117.36 170.582 117.192 169.622 116.856C168.662 116.52 167.882 116.112 167.282 115.632C166.682 115.152 166.226 114.672 165.914 114.192C165.626 113.712 165.47 113.328 165.446 113.04C165.422 112.776 165.506 112.572 165.698 112.428C165.89 112.284 166.082 112.212 166.274 112.212H167.858C168.002 112.212 168.11 112.236 168.182 112.284C168.278 112.308 168.398 112.404 168.542 112.572C168.854 112.908 169.202 113.244 169.586 113.58C169.97 113.916 170.438 114.192 170.99 114.408C171.566 114.624 172.274 114.732 173.114 114.732C174.338 114.732 175.346 114.504 176.138 114.048C176.93 113.568 177.326 112.872 177.326 111.96C177.326 111.36 177.158 110.88 176.822 110.52C176.51 110.16 175.934 109.836 175.094 109.548C174.278 109.26 173.15 108.96 171.71 108.648C170.27 108.312 169.13 107.904 168.29 107.424C167.45 106.92 166.85 106.332 166.49 105.66C166.13 104.964 165.95 104.184 165.95 103.32C165.95 102.432 166.214 101.58 166.742 100.764C167.27 99.924 168.038 99.24 169.046 98.712C170.078 98.184 171.362 97.92 172.898 97.92C174.146 97.92 175.214 98.076 176.102 98.388C176.99 98.7 177.722 99.096 178.298 99.576C178.874 100.032 179.306 100.488 179.594 100.944C179.882 101.4 180.038 101.784 180.062 102.096C180.086 102.336 180.014 102.54 179.846 102.708C179.678 102.852 179.486 102.924 179.27 102.924H177.758C177.59 102.924 177.446 102.888 177.326 102.816C177.23 102.744 177.134 102.66 177.038 102.564C176.798 102.252 176.51 101.94 176.174 101.628C175.862 101.316 175.442 101.064 174.914 100.872C174.41 100.656 173.738 100.548 172.898 100.548C171.698 100.548 170.798 100.8 170.198 101.304C169.598 101.808 169.298 102.444 169.298 103.212C169.298 103.668 169.43 104.076 169.694 104.436C169.958 104.796 170.462 105.12 171.206 105.408C171.95 105.696 173.054 106.008 174.518 106.344C176.102 106.656 177.35 107.076 178.262 107.604C179.174 108.132 179.822 108.744 180.206 109.44C180.59 110.136 180.782 110.94 180.782 111.852C180.782 112.86 180.482 113.784 179.882 114.624C179.306 115.464 178.442 116.136 177.29 116.64C176.162 117.12 174.758 117.36 173.078 117.36ZM192.401 117.36C189.929 117.36 187.961 116.604 186.497 115.092C185.033 113.556 184.229 111.468 184.085 108.828C184.061 108.516 184.049 108.12 184.049 107.64C184.049 107.136 184.061 106.728 184.085 106.416C184.181 104.712 184.577 103.224 185.273 101.952C185.969 100.656 186.917 99.66 188.117 98.964C189.341 98.268 190.769 97.92 192.401 97.92C194.225 97.92 195.749 98.304 196.973 99.072C198.221 99.84 199.169 100.932 199.817 102.348C200.465 103.764 200.789 105.42 200.789 107.316V107.928C200.789 108.192 200.705 108.396 200.537 108.54C200.393 108.684 200.201 108.756 199.961 108.756H187.505C187.505 108.78 187.505 108.828 187.505 108.9C187.505 108.972 187.505 109.032 187.505 109.08C187.553 110.064 187.769 110.988 188.153 111.852C188.537 112.692 189.089 113.376 189.809 113.904C190.529 114.432 191.393 114.696 192.401 114.696C193.265 114.696 193.985 114.564 194.561 114.3C195.137 114.036 195.605 113.748 195.965 113.436C196.325 113.1 196.565 112.848 196.685 112.68C196.901 112.368 197.069 112.188 197.189 112.14C197.309 112.068 197.501 112.032 197.765 112.032H199.493C199.733 112.032 199.925 112.104 200.069 112.248C200.237 112.368 200.309 112.548 200.285 112.788C200.261 113.148 200.069 113.592 199.709 114.12C199.349 114.624 198.833 115.128 198.161 115.632C197.489 116.136 196.673 116.556 195.713 116.892C194.753 117.204 193.649 117.36 192.401 117.36ZM187.505 106.272H197.369V106.164C197.369 105.084 197.165 104.124 196.757 103.284C196.373 102.444 195.809 101.784 195.065 101.304C194.321 100.8 193.433 100.548 192.401 100.548C191.369 100.548 190.481 100.8 189.737 101.304C189.017 101.784 188.465 102.444 188.081 103.284C187.697 104.124 187.505 105.084 187.505 106.164V106.272ZM218.63 123.84C218.366 123.84 218.162 123.756 218.018 123.588C217.874 123.444 217.802 123.252 217.802 123.012V114.66C217.202 115.428 216.422 116.076 215.462 116.604C214.526 117.108 213.362 117.36 211.97 117.36C210.65 117.36 209.51 117.132 208.55 116.676C207.59 116.196 206.798 115.572 206.174 114.804C205.574 114.012 205.118 113.112 204.806 112.104C204.518 111.072 204.35 109.992 204.302 108.864C204.278 108.48 204.266 108.072 204.266 107.64C204.266 107.208 204.278 106.8 204.302 106.416C204.35 105.264 204.518 104.184 204.806 103.176C205.118 102.168 205.574 101.268 206.174 100.476C206.798 99.684 207.59 99.06 208.55 98.604C209.51 98.148 210.65 97.92 211.97 97.92C213.41 97.92 214.61 98.184 215.57 98.712C216.53 99.24 217.298 99.9 217.874 100.692V99.108C217.874 98.868 217.946 98.676 218.09 98.532C218.258 98.364 218.462 98.28 218.702 98.28H220.358C220.598 98.28 220.79 98.364 220.934 98.532C221.102 98.676 221.186 98.868 221.186 99.108V123.012C221.186 123.252 221.102 123.444 220.934 123.588C220.79 123.756 220.598 123.84 220.358 123.84H218.63ZM212.726 114.444C213.878 114.444 214.814 114.18 215.534 113.652C216.278 113.124 216.83 112.452 217.19 111.636C217.574 110.82 217.778 109.992 217.802 109.152C217.826 108.744 217.838 108.276 217.838 107.748C217.838 107.22 217.826 106.764 217.802 106.38C217.778 105.492 217.586 104.628 217.226 103.788C216.866 102.924 216.314 102.216 215.57 101.664C214.85 101.112 213.902 100.836 212.726 100.836C211.502 100.836 210.53 101.112 209.81 101.664C209.09 102.192 208.574 102.9 208.262 103.788C207.95 104.652 207.77 105.588 207.722 106.596C207.698 107.292 207.698 107.988 207.722 108.684C207.77 109.692 207.95 110.64 208.262 111.528C208.574 112.392 209.09 113.1 209.81 113.652C210.53 114.18 211.502 114.444 212.726 114.444Z" fill="white"/>
<path d="M244.305 81.9434C244.305 76.0504 249.088 71.2546 254.994 71.2546C260.899 71.2546 265.682 76.0379 265.682 81.9434C265.682 87.8487 260.887 92.6323 254.994 92.6323C249.113 92.6323 244.305 87.836 244.305 81.9434ZM248.074 81.956C248.074 85.7812 251.166 88.9007 254.994 88.9007C258.82 88.9007 261.938 85.7825 261.938 81.956C261.938 78.1296 258.82 75.0114 254.994 75.0114C251.166 75.0114 248.074 78.1309 248.074 81.956Z" fill="white" stroke="white" stroke-width="0.509427"/>
<path d="M268.351 102.924C266.369 102.161 264.322 101.564 262.225 101.157L262.032 101.12L261.947 101.297L256.683 112.215L256.682 112.216C256.371 112.872 255.717 113.283 254.994 113.283C254.274 113.283 253.629 112.874 253.304 112.214L248.041 101.297L247.955 101.118L247.76 101.158C245.667 101.589 243.596 102.161 241.637 102.924C240.058 103.518 238.999 105.079 238.999 106.797V119.546V119.8H239.254H270.721H270.734H270.989V119.546V106.797C270.989 105.079 269.929 103.518 268.351 102.924ZM269.684 99.4111C272.713 100.559 274.721 103.517 274.745 106.798V121.679C274.745 122.723 273.901 123.557 272.867 123.557H237.133C236.088 123.557 235.255 122.713 235.255 121.679V106.797C235.255 103.518 237.287 100.559 240.279 99.4109C242.963 98.3825 245.811 97.6297 248.709 97.178L248.711 97.1778C249.533 97.0444 250.332 97.4662 250.687 98.21L254.739 106.617L254.968 107.093L255.198 106.618L259.262 98.2111L259.263 98.21C259.617 97.4694 260.427 97.0556 261.241 97.1781C264.152 97.6298 266.987 98.3825 269.684 99.4111Z" fill="white"/>
<path d="M268.351 102.924C266.369 102.161 264.322 101.564 262.225 101.157L262.032 101.12L261.947 101.297L256.683 112.215L256.682 112.216C256.371 112.872 255.717 113.283 254.994 113.283C254.274 113.283 253.629 112.874 253.304 112.214L248.041 101.297L247.955 101.118L247.76 101.158C245.667 101.589 243.596 102.161 241.637 102.924C240.058 103.518 238.999 105.079 238.999 106.797V119.546V119.8H239.254H270.721H270.734H270.989V119.546V106.797C270.989 105.079 269.929 103.518 268.351 102.924ZM268.351 102.924L268.35 102.923M269.684 99.4111C272.713 100.559 274.721 103.517 274.745 106.798V121.679C274.745 122.723 273.901 123.557 272.867 123.557H237.133C236.088 123.557 235.255 122.713 235.255 121.679V106.797C235.255 103.518 237.287 100.559 240.279 99.4109C242.963 98.3825 245.811 97.6297 248.709 97.178L248.711 97.1778C249.533 97.0444 250.332 97.4662 250.687 98.21L254.739 106.617L254.968 107.093L255.198 106.618L259.262 98.2111L259.263 98.21C259.617 97.4694 260.427 97.0556 261.241 97.1781C264.152 97.6298 266.987 98.3825 269.684 99.4111Z" stroke="white" stroke-width="0.509427"/>
<mask id="mask0_331_110" style="mask-type:luminance" maskUnits="userSpaceOnUse" x="251" y="24" width="83" height="83">
<path d="M334 24H251V107H334V24Z" fill="white"/>
</mask>
<g mask="url(#mask0_331_110)">
<path fill-rule="evenodd" clip-rule="evenodd" d="M264.418 24.644C258.847 24.965 255.496 26.57 253.504 29.873C252.881 30.905 252.169 33.025 251.898 34.652C251.583 36.544 251.393 45.296 251.443 55.622L251.484 64.186L251.873 64.978C252.966 67.204 255.72 67.687 257.451 65.956C258.474 64.934 258.391 66.118 258.489 51.113C258.543 42.956 258.636 37.177 258.725 36.489C259.027 34.151 259.516 33.081 260.537 32.525C261.672 31.907 262.704 31.752 266.723 31.596C271.647 31.405 320.208 31.52 321.661 31.726C325.023 32.204 325.836 33.057 326.29 36.588C326.54 38.528 326.533 75.617 326.283 77.699C325.881 81.039 325.274 81.835 322.647 82.462C321.69 82.69 319.942 82.712 297.411 82.784C274.487 82.857 273.173 82.874 272.649 83.11C270.413 84.117 269.813 87.014 271.49 88.708C272.58 89.809 272.308 89.769 279.245 89.847L285.425 89.916L281.152 95.619C276.533 101.783 276.315 102.151 276.526 103.443C276.92 105.859 279.395 107.155 281.552 106.076C282.309 105.698 282.485 105.482 287.382 98.948C290.159 95.243 292.462 92.211 292.5 92.211C292.538 92.211 294.841 95.243 297.618 98.948C302.515 105.482 302.691 105.698 303.448 106.076C305.605 107.155 308.08 105.859 308.474 103.443C308.685 102.151 308.467 101.783 303.848 95.619L299.575 89.916L310.389 89.831C321.738 89.743 322.512 89.703 324.981 89.078C329.681 87.888 332.358 84.682 333.173 79.264C333.544 76.803 333.722 51.938 333.447 41.015C333.306 35.417 333.164 34.159 332.425 31.995C331.028 27.904 328.154 25.697 323.141 24.866C321.887 24.658 319.11 24.635 293.468 24.618C277.909 24.608 264.837 24.62 264.418 24.644ZM267.374 40.593C265.952 40.935 265.137 42.586 265.712 43.961C265.936 44.498 266.768 45.259 267.291 45.405C267.785 45.543 317.215 45.543 317.709 45.405C318.232 45.259 319.064 44.498 319.288 43.961C319.735 42.891 319.328 41.564 318.355 40.92L317.766 40.531L292.787 40.509C279.048 40.498 267.612 40.535 267.374 40.593ZM267.374 53.596C265.952 53.938 265.137 55.589 265.712 56.965C265.936 57.502 266.768 58.262 267.291 58.408C267.785 58.547 317.215 58.547 317.709 58.408C318.232 58.262 319.064 57.502 319.288 56.965C319.735 55.894 319.328 54.568 318.355 53.924L317.766 53.534L292.787 53.513C279.048 53.501 267.612 53.538 267.374 53.596ZM283.731 67.902C283.194 68.2297 282.801 68.7484 282.631 69.3539C282.461 69.9593 282.526 70.6067 282.814 71.166C283.135 71.796 283.641 72.188 284.407 72.4C285.179 72.614 316.826 72.617 317.596 72.403C318.353 72.193 318.876 71.769 319.199 71.102C319.764 69.935 319.374 68.544 318.308 67.919L317.722 67.575L300.995 67.576H284.269L283.731 67.902Z" fill="white"/>
</g>
</svg>
