<svg width="222" height="80" viewBox="0 0 222 80" fill="none" xmlns="http://www.w3.org/2000/svg">
<path d="M18.4825 68.0337C15.7263 68.0337 13.2134 67.6667 10.9436 66.9329C8.71434 66.2398 6.76882 65.2001 5.10701 63.8139C3.48574 62.4277 2.22925 60.6949 1.33755 58.6156C0.44585 56.5362 0 54.1715 0 51.5214C0 50.0536 0.243191 48.3209 0.729573 46.3231C1.21595 44.2845 1.905 42.4091 2.7967 40.6967C2.99936 40.3297 3.24255 40.0851 3.52627 39.9628C3.80999 39.7997 4.19504 39.7997 4.68143 39.9628L6.50536 40.5744C6.95121 40.7374 7.1944 40.9821 7.23493 41.3082C7.27546 41.5936 7.17413 42.0217 6.93094 42.5925C6.28243 44.0195 5.75552 45.4465 5.3502 46.8735C4.98541 48.2597 4.80302 49.5848 4.80302 50.8487C4.80302 53.2542 5.37047 55.3131 6.50536 57.0255C7.64025 58.7379 9.28179 60.0426 11.43 60.9395C13.5782 61.8773 16.1114 62.3461 19.0297 62.3461H22.9207C25.3932 62.3461 27.4806 62.0811 29.1829 61.5511C30.9258 61.0211 32.3444 60.2872 33.4388 59.3494C34.5331 58.4117 35.3843 57.3517 35.9923 56.1693C36.6408 55.0277 37.1069 53.8657 37.3906 52.6834H33.074C30.6015 52.6834 28.4533 52.296 26.6294 51.5214C24.846 50.7467 23.4679 49.6255 22.4952 48.1578C21.5224 46.6493 21.036 44.8349 21.036 42.7148C21.036 41.2879 21.2792 39.9424 21.7656 38.6785C22.252 37.4146 22.9207 36.2934 23.7719 35.3149C24.6636 34.2956 25.758 33.5006 27.055 32.9298C28.3925 32.359 29.872 32.0736 31.4932 32.0736C34.0873 32.0736 36.1544 32.7259 37.6946 34.0306C39.2753 35.3353 40.4305 37.1088 41.1601 39.3512C41.8896 41.5936 42.2747 44.203 42.3152 47.1793H47.6046C48.2126 47.1793 48.5166 47.4851 48.5166 48.0966V51.2156C48.5166 52.4387 47.9086 53.0503 46.6927 53.0503H41.768C41.4033 54.885 40.8156 56.6993 40.0049 58.4933C39.2348 60.2872 38.1202 61.8976 36.661 63.3246C35.2424 64.7924 33.378 65.934 31.0676 66.7494C28.7573 67.6056 25.9201 68.0337 22.556 68.0337H18.4825ZM33.1348 47.1793H37.877C37.7554 43.9991 37.1272 41.5529 35.9923 39.8405C34.8979 38.0873 33.2158 37.2107 30.9461 37.2107C29.649 37.2107 28.5749 37.4758 27.7238 38.0058C26.9131 38.5358 26.3052 39.1881 25.8998 39.9628C25.5351 40.7374 25.3527 41.5325 25.3527 42.3479C25.3527 43.9787 26.0214 45.2019 27.359 46.0173C28.7371 46.792 30.6623 47.1793 33.1348 47.1793ZM27.7846 25.591C27.5819 25.7948 27.3387 25.8968 27.055 25.8968C26.7713 25.8968 26.5078 25.7745 26.2646 25.5298L24.0759 23.267C23.8732 23.0224 23.7719 22.7778 23.7719 22.5332C23.7719 22.2478 23.8732 21.9827 24.0759 21.7381L26.2646 19.4753C26.5078 19.2307 26.7713 19.1084 27.055 19.1084C27.3387 19.1084 27.5819 19.2307 27.7846 19.4753L30.0341 21.7381C30.2773 21.942 30.3989 22.207 30.3989 22.5332C30.4394 22.8186 30.3381 23.0836 30.0949 23.3282L27.7846 25.591ZM36.8434 25.591C36.6408 25.8356 36.3976 25.9375 36.1139 25.8968C35.8301 25.856 35.5667 25.7337 35.3235 25.5298L33.0132 23.267C32.8105 23.0632 32.7092 22.8186 32.7092 22.5332C32.7092 22.207 32.8105 21.942 33.0132 21.7381L35.3235 19.4753C35.5667 19.2307 35.8099 19.1084 36.0531 19.1084C36.2962 19.1084 36.5394 19.2307 36.7826 19.4753L39.0322 21.7381C39.2753 21.942 39.3969 22.207 39.3969 22.5332C39.3969 22.8186 39.2753 23.0836 39.0322 23.3282L36.8434 25.591Z" fill="white"/>
<path d="M53.6312 15.9894C52.9016 16.1525 52.5368 15.8875 52.5368 15.1944V14.1547C52.5368 13.5431 52.8206 13.1762 53.388 13.0539L64.6964 10.3018C65.426 10.098 65.7908 10.363 65.7908 11.0969V12.1365C65.7908 12.7481 65.507 13.115 64.9396 13.2374L53.6312 15.9894ZM56.3063 9.32333C55.0498 9.56796 54.0163 9.34371 53.2056 8.65061C52.395 7.9575 51.9897 6.71398 51.9897 4.92005V3.69692C51.9897 3.08535 52.2734 2.71841 52.8408 2.5961L53.6312 2.35147C54.3202 2.22916 54.6648 2.51456 54.6648 3.20767V4.36964C54.6648 5.06275 54.8066 5.53162 55.0903 5.77624C55.3741 6.02087 55.7794 6.1228 56.3063 6.08203C56.8332 6.00049 57.198 5.81702 57.4007 5.53162C57.6439 5.20545 57.7655 4.67542 57.7655 3.94154V2.47379C57.7655 1.86222 58.0492 1.49528 58.6166 1.37297L59.4678 1.1895C60.1568 1.06718 60.5014 1.35258 60.5014 2.04569V3.32998C60.5014 3.98232 60.6229 4.4308 60.8661 4.67543C61.1499 4.87928 61.5349 4.96082 62.0213 4.92005C62.6698 4.83851 63.0954 4.63465 63.298 4.30849C63.5007 3.94155 63.602 3.37075 63.602 2.5961V1.31181C63.602 0.700245 63.8858 0.333305 64.4532 0.210991L65.3044 0.0275198C65.9934 -0.0947919 66.3379 0.190607 66.3379 0.883716V2.10685C66.3379 4.02309 65.9732 5.47046 65.2436 6.44897C64.5545 7.42747 63.5818 7.99827 62.3253 8.16135C61.6768 8.2429 61.0891 8.22251 60.5621 8.10019C60.0352 7.93711 59.5691 7.61094 59.1638 7.12169C58.3937 8.38559 57.4412 9.11947 56.3063 9.32333Z" fill="white"/>
<path d="M65.1828 53.2949C64.2911 53.2949 63.3183 53.1726 62.2645 52.928C61.2107 52.6834 60.1974 52.1737 59.2246 51.3991C58.2924 50.6244 57.502 49.4625 56.8535 47.9132C56.205 49.2586 55.3538 50.2983 54.3 51.0321C53.2462 51.766 52.0707 52.296 50.7737 52.6222C49.4767 52.9076 48.1189 53.0503 46.7003 53.0503C46.0923 53.0503 45.7883 52.7241 45.7883 52.0718V49.014C45.7883 47.7908 46.3963 47.1793 47.6122 47.1793C50.2873 47.1793 52.1315 46.7716 53.1448 45.9561C54.1987 45.0999 54.7256 43.5099 54.7256 41.1859V36.2322C54.7256 35.7838 54.8269 35.4372 55.0296 35.1926C55.2727 34.948 55.6173 34.8256 56.0631 34.8256H58.4342C59.2854 34.8256 59.711 35.2945 59.711 36.2322V41.3694C59.711 43.6933 60.2379 45.2834 61.2917 46.1396C62.3456 46.9958 63.7034 47.4239 65.3652 47.4239C67.4728 47.4239 68.8914 46.8939 69.621 45.8338C70.3911 44.7738 70.7762 43.2041 70.7762 41.1248V36.3546C70.7762 35.9061 70.8775 35.5391 71.0802 35.2537C71.3233 34.9683 71.6679 34.8256 72.1137 34.8256H74.424C74.8699 34.8256 75.1941 34.9683 75.3968 35.2537C75.64 35.5391 75.7616 35.9061 75.7616 36.3546V41.3082C75.7616 43.5507 76.1872 45.1407 77.0383 46.0785C77.8895 46.9754 79.3487 47.4239 81.4158 47.4239C83.5234 47.4239 84.942 46.8939 85.6716 45.8338C86.4012 44.7738 86.766 43.2041 86.766 41.1248V36.2322C86.766 35.8245 86.8673 35.4984 87.07 35.2537C87.2726 34.9683 87.5766 34.8256 87.9819 34.8256H90.5354C90.9408 34.8256 91.2447 34.9683 91.4474 35.2537C91.6906 35.4984 91.8122 35.8245 91.8122 36.2322V41.1859C91.8122 43.3876 92.3391 44.9369 93.3929 45.8338C94.4468 46.7308 96.2707 47.1793 98.8647 47.1793H100.141C100.749 47.1793 101.053 47.4851 101.053 48.0966V51.2156C101.053 52.4387 100.425 53.0503 99.1687 53.0503C96.6557 53.0503 94.5481 52.7445 92.8457 52.133C91.1434 51.4806 89.8059 50.4613 88.8331 49.0751C88.1846 50.5429 87.1713 51.6233 85.7932 52.3164C84.4151 52.9688 82.9155 53.2949 81.2942 53.2949C79.3081 53.2949 77.6058 52.9688 76.1872 52.3164C74.7686 51.6233 73.6539 50.5429 72.8433 49.0751C72.1543 50.5837 71.1207 51.6641 69.7426 52.3164C68.4051 52.9688 66.8851 53.2949 65.1828 53.2949Z" fill="white"/>
<path d="M103.682 16.6689C102.953 16.832 102.588 16.567 102.588 15.8739V14.8342C102.588 14.2227 102.872 13.8557 103.439 13.7334L114.748 10.9814C115.477 10.7775 115.842 11.0425 115.842 11.7764V12.816C115.842 13.4276 115.558 13.7946 114.991 13.9169L103.682 16.6689Z" fill="white"/>
<path d="M99.2452 53.0503C98.6372 53.0503 98.3332 52.7241 98.3332 52.0718V49.014C98.3332 47.7908 98.9412 47.1793 100.157 47.1793H100.948C102.812 47.1793 104.251 46.7104 105.264 45.7727C106.277 44.8349 106.784 43.0614 106.784 40.452V34.3364C106.784 33.3987 107.23 32.9298 108.122 32.9298H110.432C111.324 32.9298 111.77 33.3987 111.77 34.3364V40.452C111.77 43.1022 112.357 44.8961 113.533 45.8338C114.708 46.7308 116.37 47.1793 118.518 47.1793H119.612C120.22 47.1793 120.524 47.4851 120.524 48.0966V51.2156C120.524 52.4387 119.916 53.0503 118.7 53.0503C116.674 53.0503 114.769 52.6834 112.985 51.9495C111.243 51.1748 109.824 49.7479 108.73 47.6685C107.838 49.7886 106.521 51.2156 104.778 51.9495C103.035 52.6834 101.191 53.0503 99.2452 53.0503ZM109.885 26.8141C109.682 27.018 109.439 27.1199 109.155 27.1199C108.871 27.0791 108.608 26.9568 108.365 26.753L106.055 24.429C105.852 24.1844 105.751 23.9194 105.751 23.634C105.751 23.3486 105.852 23.104 106.055 22.9001L108.365 20.5761C108.608 20.3723 108.851 20.2704 109.094 20.2704C109.378 20.2296 109.621 20.3315 109.824 20.5761L112.134 22.9001C112.702 23.4709 112.722 24.0009 112.195 24.4902L109.885 26.8141Z" fill="white"/>
<path d="M133.191 15.9894C132.461 16.1525 132.096 15.8875 132.096 15.1944V14.277C132.096 13.747 132.38 13.4208 132.948 13.2985L135.683 12.6258C137.102 12.2588 138.257 11.8919 139.149 11.525C140.041 11.158 140.872 10.7095 141.642 10.1795L142.493 10.8522C142.128 11.0153 141.601 11.0969 140.912 11.0969C139.493 11.0969 138.419 10.6892 137.69 9.87374C137.001 9.05832 136.656 8.20212 136.656 7.30516C136.656 6.04126 137.082 4.92005 137.933 3.94154C138.784 2.96304 139.939 2.47379 141.398 2.47379C142.452 2.47379 143.364 2.82034 144.134 3.51345C144.904 4.20656 145.29 5.20545 145.29 6.51012C145.29 8.67099 144.499 10.4853 142.918 11.9531C141.338 13.4208 139.23 14.4809 136.595 15.1332L133.191 15.9894ZM140.912 8.65061C141.439 8.65061 141.865 8.46714 142.189 8.10019C142.513 7.73326 142.675 7.30516 142.675 6.81591C142.675 6.28588 142.513 5.85779 142.189 5.53162C141.865 5.20545 141.439 5.04236 140.912 5.04236C140.385 5.04236 139.939 5.22583 139.575 5.59277C139.25 5.91894 139.088 6.36742 139.088 6.93822C139.088 7.42747 139.25 7.83518 139.575 8.16135C139.939 8.48752 140.385 8.65061 140.912 8.65061Z" fill="white"/>
<path d="M140.911 53.4173C139.978 53.4173 139.107 53.3357 138.296 53.1726C137.486 53.0503 136.614 52.8261 135.682 52.4999C134.79 52.133 133.716 51.6233 132.46 50.971C131.203 50.2779 129.623 49.3809 127.718 48.2801C126.745 49.7071 125.752 50.7671 124.738 51.4602C123.725 52.1126 122.712 52.5407 121.699 52.7445C120.726 52.9484 119.733 53.0503 118.719 53.0503C118.111 53.0503 117.807 52.7445 117.807 52.133V49.014C117.807 47.7908 118.415 47.1793 119.631 47.1793C120.483 47.1793 121.232 47.057 121.881 46.8123C122.529 46.5677 123.198 46.0581 123.887 45.2834C124.617 44.5088 125.448 43.2856 126.38 41.614C127.961 38.8824 129.42 36.803 130.757 35.376C132.135 33.9491 133.473 32.9706 134.77 32.4405C136.067 31.9105 137.405 31.6455 138.783 31.6455C140.688 31.6455 142.451 32.1755 144.072 33.2356C145.734 34.2548 147.051 35.6614 148.024 37.4554C148.997 39.2085 149.483 41.2675 149.483 43.6322C149.483 45.1407 149.28 46.5065 148.875 47.7297C148.47 48.9528 147.882 49.9925 147.112 50.8487C146.342 51.7049 145.43 52.3572 144.376 52.8057C143.322 53.2134 142.167 53.4173 140.911 53.4173ZM141.093 47.9743C142.025 47.9743 142.816 47.6889 143.464 47.1181C144.153 46.5473 144.498 45.4465 144.498 43.8157C144.538 42.4294 144.255 41.2267 143.647 40.2074C143.079 39.1881 142.309 38.3931 141.336 37.8223C140.404 37.2107 139.391 36.905 138.296 36.905C137.526 36.905 136.756 37.0681 135.986 37.3942C135.256 37.7204 134.446 38.3523 133.554 39.2901C132.703 40.2278 131.69 41.6752 130.514 43.6322C132.622 44.8961 134.284 45.8542 135.5 46.5066C136.756 47.1181 137.79 47.5258 138.6 47.7297C139.451 47.8928 140.282 47.9743 141.093 47.9743Z" fill="white"/>
<path d="M47.9694 75.3521C47.8073 75.3521 47.6695 75.3032 47.556 75.2053C47.4587 75.0912 47.4101 74.9525 47.4101 74.7895V58.8153C47.4101 58.6359 47.4587 58.4973 47.556 58.3995C47.6695 58.2853 47.8073 58.2282 47.9694 58.2282H49.1854C49.3799 58.2282 49.5258 58.2772 49.6231 58.375C49.7204 58.4729 49.7771 58.5544 49.7933 58.6196L54.949 68.5026L60.129 58.6196C60.1614 58.5544 60.2181 58.4729 60.2992 58.375C60.3965 58.2772 60.5424 58.2282 60.7369 58.2282H61.9286C62.1069 58.2282 62.2447 58.2853 62.342 58.3995C62.4555 58.4973 62.5122 58.6359 62.5122 58.8153V74.7895C62.5122 74.9525 62.4555 75.0912 62.342 75.2053C62.2447 75.3032 62.1069 75.3521 61.9286 75.3521H60.7369C60.5748 75.3521 60.437 75.3032 60.3235 75.2053C60.2262 75.0912 60.1776 74.9525 60.1776 74.7895V62.7538L56.1163 70.7287C56.0515 70.8917 55.9542 71.0222 55.8245 71.1201C55.6948 71.2016 55.5327 71.2424 55.3381 71.2424H54.5842C54.3734 71.2424 54.2032 71.2016 54.0735 71.1201C53.96 71.0222 53.8627 70.8917 53.7817 70.7287L49.7204 62.7538V74.7895C49.7204 74.9525 49.6636 75.0912 49.5502 75.2053C49.4529 75.3032 49.3232 75.3521 49.1611 75.3521H47.9694Z" fill="white"/>
<path d="M71.1199 75.5967C70.0823 75.5967 69.1987 75.3684 68.4691 74.9118C67.7557 74.4388 67.2126 73.7865 66.8397 72.9548C66.4668 72.123 66.2804 71.169 66.2804 70.0926V63.1942C66.2804 63.0311 66.329 62.9006 66.4263 62.8028C66.5398 62.6886 66.6776 62.6315 66.8397 62.6315H68.0557C68.2178 62.6315 68.3475 62.6886 68.4448 62.8028C68.5583 62.9006 68.615 63.0311 68.615 63.1942V69.9703C68.615 72.4003 69.6688 73.6152 71.7765 73.6152C72.7817 73.6152 73.5842 73.2972 74.1841 72.6612C74.8002 72.0089 75.1082 71.1119 75.1082 69.9703V63.1942C75.1082 63.0311 75.1568 62.9006 75.2541 62.8028C75.3676 62.6886 75.5054 62.6315 75.6675 62.6315H76.8592C77.0375 62.6315 77.1753 62.6886 77.2726 62.8028C77.3699 62.9006 77.4185 63.0311 77.4185 63.1942V74.7895C77.4185 74.9525 77.3699 75.0912 77.2726 75.2053C77.1753 75.3032 77.0375 75.3521 76.8592 75.3521H75.7405C75.5784 75.3521 75.4406 75.3032 75.3271 75.2053C75.2298 75.0912 75.1812 74.9525 75.1812 74.7895V73.7131C74.7434 74.2839 74.2084 74.7405 73.5761 75.083C72.96 75.4255 72.1413 75.5967 71.1199 75.5967Z" fill="white"/>
<path d="M81.5908 75.3521C81.4286 75.3521 81.2908 75.3032 81.1773 75.2053C81.0801 75.0912 81.0314 74.9525 81.0314 74.7895V63.1942C81.0314 63.0311 81.0801 62.9006 81.1773 62.8028C81.2908 62.6886 81.4286 62.6315 81.5908 62.6315H82.7338C82.8959 62.6315 83.0256 62.6886 83.1229 62.8028C83.2363 62.9006 83.2931 63.0311 83.2931 63.1942V64.2705C83.7146 63.716 84.2415 63.2675 84.8738 62.9251C85.5223 62.5663 86.3492 62.3869 87.3544 62.3869C88.4082 62.3869 89.2999 62.6234 90.0295 63.0963C90.7753 63.5529 91.3346 64.1971 91.7075 65.0289C92.0804 65.8443 92.2668 66.7983 92.2668 67.891V74.7895C92.2668 74.9525 92.2182 75.0912 92.1209 75.2053C92.0237 75.3032 91.8939 75.3521 91.7318 75.3521H90.5159C90.3537 75.3521 90.2159 75.3032 90.1024 75.2053C90.0052 75.0912 89.9565 74.9525 89.9565 74.7895V68.0133C89.9565 66.8717 89.6809 65.9829 89.1297 65.3469C88.5784 64.6945 87.7678 64.3684 86.6978 64.3684C85.6926 64.3684 84.8819 64.6945 84.2659 65.3469C83.666 65.9829 83.3661 66.8717 83.3661 68.0133V74.7895C83.3661 74.9525 83.3093 75.0912 83.1958 75.2053C83.0985 75.3032 82.9688 75.3521 82.8067 75.3521H81.5908Z" fill="white"/>
<path d="M99.3059 75.5967C98.4953 75.5967 97.7576 75.4336 97.0928 75.1075C96.4281 74.7813 95.8931 74.341 95.4878 73.7865C95.0825 73.232 94.8798 72.6041 94.8798 71.9029C94.8798 70.7776 95.3338 69.8806 96.2417 69.212C97.1496 68.5433 98.3331 68.103 99.7923 67.891L103.416 67.3773V66.6679C103.416 65.885 103.189 65.2735 102.735 64.8332C102.297 64.3928 101.576 64.1727 100.57 64.1727C99.8409 64.1727 99.2491 64.3194 98.7952 64.613C98.3574 64.9065 98.0494 65.2816 97.8711 65.7383C97.7738 65.9829 97.6036 66.1052 97.3604 66.1052H96.266C96.0877 66.1052 95.9499 66.0563 95.8526 65.9584C95.7715 65.8443 95.731 65.7138 95.731 65.567C95.731 65.3224 95.8201 65.0207 95.9985 64.6619C96.193 64.3031 96.4849 63.9525 96.874 63.61C97.2631 63.2675 97.7576 62.9821 98.3574 62.7538C98.9735 62.5092 99.7193 62.3869 100.595 62.3869C101.568 62.3869 102.386 62.5174 103.051 62.7783C103.716 63.0229 104.235 63.3572 104.607 63.7813C104.997 64.2053 105.272 64.6864 105.434 65.2246C105.613 65.7627 105.702 66.3091 105.702 66.8636V74.7895C105.702 74.9525 105.645 75.0912 105.532 75.2053C105.434 75.3032 105.305 75.3521 105.142 75.3521H104.024C103.845 75.3521 103.708 75.3032 103.61 75.2053C103.513 75.0912 103.464 74.9525 103.464 74.7895V73.7376C103.254 74.0311 102.97 74.3247 102.613 74.6182C102.257 74.8955 101.811 75.1319 101.276 75.3276C100.741 75.507 100.084 75.5967 99.3059 75.5967ZM99.8166 73.762C100.481 73.762 101.089 73.6234 101.641 73.3462C102.192 73.0526 102.621 72.6041 102.929 72.0007C103.254 71.3973 103.416 70.639 103.416 69.7257V69.0407L100.595 69.4566C99.4437 69.6197 98.5763 69.8969 97.9927 70.2883C97.409 70.6634 97.1172 71.1445 97.1172 71.7316C97.1172 72.1883 97.2469 72.5715 97.5063 72.8814C97.7819 73.1749 98.1224 73.3951 98.5277 73.5419C98.9492 73.6886 99.3788 73.762 99.8166 73.762Z" fill="white"/>
<path d="M113.575 75.5967C112.667 75.5967 111.889 75.4826 111.241 75.2542C110.592 75.0259 110.065 74.7487 109.66 74.4225C109.255 74.0963 108.947 73.7702 108.736 73.444C108.541 73.1178 108.436 72.8569 108.42 72.6612C108.403 72.4818 108.46 72.3432 108.59 72.2453C108.72 72.1475 108.849 72.0986 108.979 72.0986H110.049C110.146 72.0986 110.219 72.1149 110.268 72.1475C110.333 72.1638 110.414 72.229 110.511 72.3432C110.722 72.5715 110.957 72.7998 111.216 73.0281C111.476 73.2565 111.792 73.444 112.165 73.5908C112.554 73.7376 113.032 73.8109 113.6 73.8109C114.426 73.8109 115.107 73.656 115.642 73.3462C116.177 73.02 116.445 72.547 116.445 71.9273C116.445 71.5196 116.331 71.1934 116.104 70.9488C115.894 70.7042 115.505 70.484 114.937 70.2883C114.386 70.0926 113.624 69.8888 112.651 69.6768C111.678 69.4484 110.908 69.1712 110.341 68.845C109.773 68.5026 109.368 68.103 109.125 67.6464C108.882 67.1734 108.76 66.6434 108.76 66.0563C108.76 65.4529 108.938 64.8739 109.295 64.3194C109.652 63.7486 110.171 63.2839 110.852 62.9251C111.549 62.5663 112.416 62.3869 113.454 62.3869C114.297 62.3869 115.018 62.4929 115.618 62.7049C116.218 62.9169 116.712 63.186 117.102 63.5122C117.491 63.822 117.783 64.1319 117.977 64.4417C118.172 64.7516 118.277 65.0125 118.293 65.2246C118.309 65.3876 118.261 65.5263 118.147 65.6404C118.034 65.7383 117.904 65.7872 117.758 65.7872H116.737C116.623 65.7872 116.526 65.7627 116.445 65.7138C116.38 65.6649 116.315 65.6078 116.25 65.5426C116.088 65.3306 115.894 65.1185 115.667 64.9065C115.456 64.6945 115.172 64.5233 114.816 64.3928C114.475 64.246 114.021 64.1727 113.454 64.1727C112.643 64.1727 112.035 64.3439 111.63 64.6864C111.224 65.0289 111.022 65.461 111.022 65.9829C111.022 66.2928 111.111 66.57 111.289 66.8146C111.468 67.0593 111.808 67.2794 112.311 67.4751C112.813 67.6708 113.559 67.8828 114.548 68.1111C115.618 68.3232 116.461 68.6086 117.077 68.9673C117.693 69.3261 118.131 69.742 118.39 70.2149C118.65 70.6879 118.78 71.2342 118.78 71.8539C118.78 72.5389 118.577 73.1668 118.172 73.7376C117.783 74.3083 117.199 74.765 116.421 75.1075C115.659 75.4336 114.71 75.5967 113.575 75.5967Z" fill="white"/>
<path d="M126.629 75.5967C124.959 75.5967 123.63 75.083 122.641 74.0556C121.652 73.0118 121.109 71.593 121.011 69.7991C120.995 69.5871 120.987 69.318 120.987 68.9918C120.987 68.6493 120.995 68.3721 121.011 68.1601C121.076 67.0022 121.344 65.9911 121.814 65.1267C122.284 64.246 122.924 63.5692 123.735 63.0963C124.562 62.6234 125.526 62.3869 126.629 62.3869C127.861 62.3869 128.891 62.6478 129.717 63.1697C130.561 63.6916 131.201 64.4336 131.639 65.3958C132.076 66.358 132.295 67.4833 132.295 68.7716V69.1875C132.295 69.3669 132.239 69.5055 132.125 69.6034C132.028 69.7012 131.898 69.7501 131.736 69.7501H123.322C123.322 69.7665 123.322 69.7991 123.322 69.848C123.322 69.8969 123.322 69.9377 123.322 69.9703C123.354 70.639 123.5 71.2668 123.759 71.8539C124.019 72.4247 124.392 72.8895 124.878 73.2483C125.364 73.6071 125.948 73.7865 126.629 73.7865C127.213 73.7865 127.699 73.6968 128.088 73.5174C128.477 73.338 128.793 73.1423 129.037 72.9303C129.28 72.702 129.442 72.5307 129.523 72.4166C129.669 72.2046 129.782 72.0823 129.863 72.0496C129.944 72.0007 130.074 71.9762 130.253 71.9762H131.42C131.582 71.9762 131.712 72.0252 131.809 72.123C131.922 72.2046 131.971 72.3269 131.955 72.49C131.939 72.7346 131.809 73.0363 131.566 73.3951C131.323 73.7376 130.974 74.08 130.52 74.4225C130.066 74.765 129.515 75.0504 128.866 75.2787C128.218 75.4907 127.472 75.5967 126.629 75.5967ZM123.322 68.0622H129.985V67.9888C129.985 67.255 129.847 66.6026 129.572 66.0318C129.312 65.461 128.931 65.0125 128.429 64.6864C127.926 64.3439 127.326 64.1727 126.629 64.1727C125.932 64.1727 125.332 64.3439 124.829 64.6864C124.343 65.0125 123.97 65.461 123.711 66.0318C123.451 66.6026 123.322 67.255 123.322 67.9888V68.0622Z" fill="white"/>
<path d="M144.347 80C144.169 80 144.031 79.9429 143.934 79.8288C143.836 79.7309 143.788 79.6004 143.788 79.4374V73.762C143.382 74.2839 142.856 74.7242 142.207 75.083C141.575 75.4255 140.788 75.5967 139.848 75.5967C138.956 75.5967 138.186 75.4418 137.538 75.1319C136.889 74.8058 136.354 74.3817 135.933 73.8599C135.527 73.3217 135.219 72.7101 135.009 72.0252C134.814 71.3239 134.701 70.59 134.668 69.8235C134.652 69.5626 134.644 69.2854 134.644 68.9918C134.644 68.6982 134.652 68.421 134.668 68.1601C134.701 67.3773 134.814 66.6434 135.009 65.9584C135.219 65.2735 135.527 64.6619 135.933 64.1237C136.354 63.5856 136.889 63.1615 137.538 62.8517C138.186 62.5418 138.956 62.3869 139.848 62.3869C140.821 62.3869 141.632 62.5663 142.28 62.9251C142.929 63.2839 143.447 63.7323 143.836 64.2705V63.1942C143.836 63.0311 143.885 62.9006 143.982 62.8028C144.096 62.6886 144.234 62.6315 144.396 62.6315H145.514C145.677 62.6315 145.806 62.6886 145.904 62.8028C146.017 62.9006 146.074 63.0311 146.074 63.1942V79.4374C146.074 79.6004 146.017 79.7309 145.904 79.8288C145.806 79.9429 145.677 80 145.514 80H144.347ZM140.359 73.6152C141.137 73.6152 141.769 73.4359 142.256 73.0771C142.758 72.7183 143.131 72.2616 143.374 71.7072C143.634 71.1527 143.772 70.59 143.788 70.0192C143.804 69.742 143.812 69.424 143.812 69.0652C143.812 68.7064 143.804 68.3965 143.788 68.1356C143.772 67.5322 143.642 66.9451 143.399 66.3743C143.155 65.7872 142.783 65.3061 142.28 64.931C141.794 64.5559 141.153 64.3684 140.359 64.3684C139.532 64.3684 138.875 64.5559 138.389 64.931C137.903 65.2898 137.554 65.7709 137.343 66.3743C137.132 66.9614 137.011 67.5974 136.978 68.2824C136.962 68.7553 136.962 69.2283 136.978 69.7012C137.011 70.3862 137.132 71.0304 137.343 71.6338C137.554 72.2209 137.903 72.702 138.389 73.0771C138.875 73.4359 139.532 73.6152 140.359 73.6152Z" fill="white"/>
<path d="M168.912 44.0943C164.828 44.0943 161.519 47.4307 161.519 51.5305C161.519 55.6304 164.845 58.9669 168.912 58.9669C172.988 58.9669 176.305 55.639 176.305 51.5305C176.305 47.4221 172.996 44.0943 168.912 44.0943ZM168.912 56.0851C166.422 56.0851 164.41 54.0437 164.41 51.5392C164.41 49.0346 166.422 46.9933 168.912 46.9933C171.402 46.9933 173.431 49.0346 173.431 51.5392C173.431 54.0437 171.402 56.0851 168.912 56.0851Z" fill="white"/>
<path d="M178.897 63.2385C177.064 62.5351 175.137 62.0205 173.159 61.7117C172.536 61.6174 171.914 61.9348 171.641 62.5094L168.895 68.2218L166.158 62.5094C165.885 61.9348 165.271 61.6088 164.64 61.7117C162.671 62.0205 160.735 62.5351 158.91 63.2385C156.821 64.0447 155.406 66.1203 155.406 68.419V78.5313C155.406 79.329 156.045 79.9808 156.847 79.9808H180.986C181.779 79.9808 182.427 79.3375 182.427 78.5313V68.419C182.41 66.1203 181.012 64.0447 178.897 63.2385ZM179.545 77.0818H158.279V68.419C158.279 67.3211 158.953 66.3261 159.951 65.9488C161.264 65.4341 162.654 65.0482 164.061 64.7565L167.616 72.1757C167.864 72.6817 168.358 72.9991 168.912 72.9991C169.467 72.9991 169.97 72.6817 170.208 72.1757L173.764 64.7565C175.171 65.0311 176.544 65.4341 177.874 65.9488C178.872 66.3261 179.545 67.3211 179.545 68.419L179.545 77.0818Z" fill="white"/>
<path fill-rule="evenodd" clip-rule="evenodd" d="M175.279 12.5945C171.515 12.8127 169.251 13.9033 167.906 16.1477C167.485 16.849 167.004 18.2896 166.821 19.3951C166.608 20.6808 166.48 26.6279 166.514 33.6446L166.541 39.464L166.804 40.0022C167.542 41.5148 169.403 41.843 170.572 40.6668C171.263 39.9723 171.207 40.7769 171.273 30.5807C171.31 25.0379 171.373 21.1109 171.433 20.6434C171.637 19.0547 171.967 18.3276 172.657 17.9498C173.424 17.5299 174.121 17.4245 176.836 17.3185C180.162 17.1888 212.966 17.2669 213.948 17.4069C216.219 17.7317 216.768 18.3113 217.075 20.7107C217.244 22.029 217.239 47.2316 217.07 48.6464C216.799 50.9159 216.389 51.4568 214.614 51.8829C213.967 52.0378 212.787 52.0528 197.566 52.1017C182.08 52.1513 181.193 52.1629 180.839 52.3232C179.328 53.0075 178.923 54.9761 180.056 56.1272C180.792 56.8753 180.608 56.8481 185.295 56.9011L189.469 56.948L186.583 60.8233C183.463 65.0119 183.315 65.2619 183.458 66.1399C183.724 67.7816 185.396 68.6622 186.853 67.929C187.364 67.6722 187.483 67.5254 190.791 63.0854C192.667 60.5678 194.223 58.5075 194.249 58.5075C194.274 58.5075 195.83 60.5678 197.706 63.0854C201.014 67.5254 201.133 67.6722 201.645 67.929C203.102 68.6622 204.774 67.7816 205.04 66.1399C205.182 65.2619 205.035 65.0119 201.915 60.8233L199.028 56.948L206.333 56.8903C214 56.8305 214.523 56.8033 216.191 56.3786C219.366 55.57 221.174 53.3914 221.725 49.7098C221.975 48.0375 222.096 31.1413 221.91 23.7189C221.814 19.915 221.719 19.0601 221.219 17.5897C220.276 14.8098 218.334 13.3101 214.948 12.7454C214.101 12.604 212.225 12.5884 194.903 12.5769C184.392 12.5701 175.562 12.5782 175.279 12.5945ZM177.275 23.4322C176.315 23.6646 175.764 24.7864 176.153 25.7208C176.304 26.0857 176.866 26.6028 177.219 26.702C177.553 26.7958 210.945 26.7958 211.278 26.702C211.632 26.6028 212.194 26.0857 212.345 25.7208C212.647 24.9937 212.372 24.092 211.715 23.6544L211.317 23.39L194.443 23.3751C185.162 23.3676 177.436 23.3927 177.275 23.4322ZM177.275 32.2679C176.315 32.5003 175.764 33.6222 176.153 34.5572C176.304 34.9221 176.866 35.4386 177.219 35.5378C177.553 35.6322 210.945 35.6322 211.278 35.5378C211.632 35.4386 212.194 34.9221 212.345 34.5572C212.647 33.8295 212.372 32.9284 211.715 32.4908L211.317 32.2258L194.443 32.2115C185.162 32.2034 177.436 32.2285 177.275 32.2679ZM188.325 41.9891C187.962 42.2118 187.697 42.5642 187.582 42.9757C187.467 43.3871 187.511 43.827 187.706 44.2071C187.922 44.6352 188.264 44.9015 188.782 45.0456C189.303 45.191 210.682 45.193 211.202 45.0476C211.713 44.9049 212.067 44.6168 212.285 44.1636C212.666 43.3706 212.403 42.4254 211.683 42.0007L211.287 41.7669L188.688 41.7676L188.325 41.9891Z" fill="white"/>
</svg>
