<svg width="120" height="120" viewBox="0 0 120 120" fill="none" xmlns="http://www.w3.org/2000/svg">
<path fill-rule="evenodd" clip-rule="evenodd" d="M31.418 18.6438C25.847 18.9648 22.496 20.5698 20.504 23.8728C19.881 24.9048 19.169 27.0248 18.898 28.6518C18.42 31.5178 18.231 56.8168 18.676 58.1858C18.916 58.9208 20.104 60.0748 20.852 60.2978C22.635 60.8308 24.372 60.0868 25.14 58.4618L25.467 57.7708L25.473 47.1188C25.479 35.3688 25.604 30.6258 25.947 29.1468C26.273 27.7408 26.75 26.9528 27.537 26.5248C28.672 25.9068 29.704 25.7518 33.723 25.5958C38.647 25.4048 87.208 25.5198 88.661 25.7258C92.023 26.2038 92.836 27.0568 93.29 30.5878C93.54 32.5278 93.533 69.6168 93.283 71.6988C92.881 75.0388 92.274 75.8348 89.647 76.4618C88.69 76.6898 86.942 76.7118 64.411 76.7838C41.487 76.8568 40.173 76.8738 39.649 77.1098C37.413 78.1168 36.813 81.0138 38.49 82.7078C39.58 83.8088 39.308 83.7688 46.245 83.8468L52.425 83.9158L48.152 89.6188C43.533 95.7828 43.315 96.1508 43.526 97.4428C43.92 99.8588 46.395 101.155 48.552 100.076C49.309 99.6978 49.485 99.4818 54.382 92.9478C57.159 89.2428 59.462 86.2108 59.5 86.2108C59.538 86.2108 61.841 89.2428 64.618 92.9478C69.515 99.4818 69.691 99.6978 70.448 100.076C72.605 101.155 75.08 99.8588 75.474 97.4428C75.685 96.1508 75.467 95.7828 70.848 89.6188L66.575 83.9158L77.389 83.8308C88.738 83.7428 89.512 83.7028 91.981 83.0778C96.681 81.8878 99.358 78.6818 100.173 73.2638C100.544 70.8028 100.722 45.9378 100.447 35.0148C100.306 29.4168 100.164 28.1588 99.425 25.9948C98.028 21.9038 95.154 19.6968 90.141 18.8658C88.887 18.6578 86.11 18.6348 60.468 18.6178C44.909 18.6078 31.837 18.6198 31.418 18.6438Z" fill="url(#paint0_linear_369_454)"/>
<path fill-rule="evenodd" clip-rule="evenodd" d="M34.0403 34.687C33.5303 34.94 33.0123 35.467 32.7903 35.96C32.3773 36.879 32.6573 38.126 33.4283 38.805C34.2283 39.509 31.8183 39.45 59.5813 39.45C87.1913 39.45 84.9243 39.502 85.6903 38.847C86.4893 38.163 86.7903 36.89 86.3723 35.96C86.1483 35.464 85.6243 34.932 85.1133 34.685C84.7333 34.501 84.6133 34.5 59.5753 34.5C34.4273 34.5 34.4183 34.5 34.0403 34.687ZM34.5863 47.52C32.9963 47.837 32.1393 49.58 32.8553 51.043C33.1463 51.639 33.5963 52.036 34.2623 52.285C34.7403 52.464 35.0553 52.467 59.5813 52.467C84.1073 52.467 84.4223 52.464 84.9003 52.285C85.5663 52.036 86.0163 51.639 86.3073 51.043C86.9273 49.776 86.3763 48.268 85.0733 47.665L84.6523 47.471L59.8103 47.457C46.1473 47.45 34.7963 47.478 34.5863 47.52ZM51.4683 61.535C50.7553 61.71 50.1443 62.234 49.8053 62.961C49.2233 64.212 49.8743 65.76 51.1993 66.271C51.6383 66.441 52.1433 66.446 68.1523 66.446H84.6523L85.0643 66.252C85.3457 66.1064 85.6046 65.9212 85.8333 65.702C87.0313 64.504 86.7053 62.498 85.1873 61.723L84.7433 61.496L68.2433 61.482C59.1683 61.474 51.6203 61.498 51.4683 61.535Z" fill="#212427"/>
<path d="M36.7745 93.1734C34.0607 92.1384 31.2081 91.381 28.2797 90.9267C27.3583 90.7879 26.4369 91.2549 26.0329 92.1005L21.9686 100.507L17.9167 92.1005C17.5127 91.2549 16.604 90.7752 15.6699 90.9267C12.7543 91.381 9.88894 92.1384 7.18783 93.1734C4.09544 94.36 2 97.4145 2 100.797V115.679C2 116.853 2.94677 117.812 4.13312 117.812H39.8669C41.0407 117.812 42 116.865 42 115.679V100.797C41.975 97.4145 39.9049 94.36 36.7745 93.1734ZM37.7339 113.546H37.7213H6.25375V100.797C6.25375 99.1815 7.2509 97.7173 8.72778 97.162C10.6717 96.4047 12.7291 95.8367 14.8118 95.4075L20.0754 106.326C20.4415 107.07 21.1735 107.538 21.9939 107.538C22.8144 107.538 23.5591 107.07 23.9125 106.326L29.1761 95.4075C31.2588 95.8115 33.291 96.4047 35.2601 97.162C36.737 97.7173 37.7341 99.1815 37.7341 100.797V113.546H37.7339Z" fill="url(#paint1_linear_369_454)"/>
<path d="M21.9937 65C15.9475 65 11.05 69.91 11.05 75.9435C11.05 81.9769 15.9727 86.8871 21.9937 86.8871C28.0272 86.8871 32.9372 81.9896 32.9372 75.9435C32.9372 69.8973 28.0399 65 21.9937 65ZM21.9937 82.646C18.3079 82.646 15.3292 79.6419 15.3292 75.9561C15.3292 72.2704 18.3081 69.2662 21.9937 69.2662C25.6793 69.2662 28.6836 72.2704 28.6836 75.9561C28.6836 79.6419 25.6795 82.646 21.9937 82.646Z" fill="url(#paint2_linear_369_454)"/>
<defs>
<linearGradient id="paint0_linear_369_454" x1="18.4242" y1="59.537" x2="100.581" y2="59.537" gradientUnits="userSpaceOnUse">
<stop stop-color="#662DB5"/>
<stop offset="0.685" stop-color="#B01BEB"/>
</linearGradient>
<linearGradient id="paint1_linear_369_454" x1="2" y1="104.355" x2="42" y2="104.355" gradientUnits="userSpaceOnUse">
<stop stop-color="#662DB5"/>
<stop offset="0.685" stop-color="#B01BEB"/>
</linearGradient>
<linearGradient id="paint2_linear_369_454" x1="11.05" y1="75.9436" x2="32.9372" y2="75.9436" gradientUnits="userSpaceOnUse">
<stop stop-color="#662DB5"/>
<stop offset="0.685" stop-color="#B01BEB"/>
</linearGradient>
</defs>
</svg>
