<svg width="223" height="101" viewBox="0 0 223 101" fill="none" xmlns="http://www.w3.org/2000/svg">
<path d="M28.3217 100.73C24.2417 100.73 20.5217 100.19 17.1617 99.11C13.8617 98.09 10.9817 96.56 8.52172 94.52C6.12172 92.48 4.26172 89.93 2.94172 86.87C1.62172 83.81 0.961719 80.33 0.961719 76.43C0.961719 74.27 1.32172 71.72 2.04172 68.78C2.76172 65.78 3.78172 63.02 5.10172 60.5C5.40172 59.96 5.76172 59.6 6.18172 59.42C6.60172 59.18 7.17172 59.18 7.89172 59.42L10.5917 60.32C11.2517 60.56 11.6117 60.92 11.6717 61.4C11.7317 61.82 11.5817 62.45 11.2217 63.29C10.2617 65.39 9.48172 67.49 8.88172 69.59C8.34172 71.63 8.07172 73.58 8.07172 75.44C8.07172 78.98 8.91172 82.01 10.5917 84.53C12.2717 87.05 14.7017 88.97 17.8817 90.29C21.0617 91.67 24.8117 92.36 29.1317 92.36H34.8917C38.5517 92.36 41.6417 91.97 44.1617 91.19C46.7417 90.41 48.8417 89.33 50.4617 87.95C52.0817 86.57 53.3417 85.01 54.2417 83.27C55.2017 81.59 55.8917 79.88 56.3117 78.14H49.9217C46.2617 78.14 43.0817 77.57 40.3817 76.43C37.7417 75.29 35.7017 73.64 34.2617 71.48C32.8217 69.26 32.1017 66.59 32.1017 63.47C32.1017 61.37 32.4617 59.39 33.1817 57.53C33.9017 55.67 34.8917 54.02 36.1517 52.58C37.4717 51.08 39.0917 49.91 41.0117 49.07C42.9917 48.23 45.1817 47.81 47.5817 47.81C51.4217 47.81 54.4817 48.77 56.7617 50.69C59.1017 52.61 60.8117 55.22 61.8917 58.52C62.9717 61.82 63.5417 65.66 63.6017 70.04H71.4317C72.3317 70.04 72.7817 70.49 72.7817 71.39V75.98C72.7817 77.78 71.8817 78.68 70.0817 78.68H62.7917C62.2517 81.38 61.3817 84.05 60.1817 86.69C59.0417 89.33 57.3917 91.7 55.2317 93.8C53.1317 95.96 50.3717 97.64 46.9517 98.84C43.5317 100.1 39.3317 100.73 34.3517 100.73H28.3217ZM50.0117 70.04H57.0317C56.8517 65.36 55.9217 61.76 54.2417 59.24C52.6217 56.66 50.1317 55.37 46.7717 55.37C44.8517 55.37 43.2617 55.76 42.0017 56.54C40.8017 57.32 39.9017 58.28 39.3017 59.42C38.7617 60.56 38.4917 61.73 38.4917 62.93C38.4917 65.33 39.4817 67.13 41.4617 68.33C43.5017 69.47 46.3517 70.04 50.0117 70.04ZM42.0917 38.27C41.7917 38.57 41.4317 38.72 41.0117 38.72C40.5917 38.72 40.2017 38.54 39.8417 38.18L36.6017 34.85C36.3017 34.49 36.1517 34.13 36.1517 33.77C36.1517 33.35 36.3017 32.96 36.6017 32.6L39.8417 29.27C40.2017 28.91 40.5917 28.73 41.0117 28.73C41.4317 28.73 41.7917 28.91 42.0917 29.27L45.4217 32.6C45.7817 32.9 45.9617 33.29 45.9617 33.77C46.0217 34.19 45.8717 34.58 45.5117 34.94L42.0917 38.27ZM55.5017 38.27C55.2017 38.63 54.8417 38.78 54.4217 38.72C54.0017 38.66 53.6117 38.48 53.2517 38.18L49.8317 34.85C49.5317 34.55 49.3817 34.19 49.3817 33.77C49.3817 33.29 49.5317 32.9 49.8317 32.6L53.2517 29.27C53.6117 28.91 53.9717 28.73 54.3317 28.73C54.6917 28.73 55.0517 28.91 55.4117 29.27L58.7417 32.6C59.1017 32.9 59.2817 33.29 59.2817 33.77C59.2817 34.19 59.1017 34.58 58.7417 34.94L55.5017 38.27ZM80.353 24.14C79.273 24.38 78.733 23.99 78.733 22.97V21.44C78.733 20.54 79.153 20 79.993 19.82L96.733 15.77C97.813 15.47 98.353 15.86 98.353 16.94V18.47C98.353 19.37 97.933 19.91 97.093 20.09L80.353 24.14ZM84.313 14.33C82.453 14.69 80.923 14.36 79.723 13.34C78.523 12.32 77.923 10.49 77.923 7.85V6.04999C77.923 5.14999 78.343 4.61 79.183 4.43L80.353 4.07C81.373 3.89 81.883 4.31 81.883 5.33V7.04C81.883 8.06 82.093 8.75 82.513 9.11C82.933 9.47 83.533 9.62 84.313 9.56C85.093 9.44 85.633 9.17 85.933 8.75C86.293 8.27 86.473 7.49 86.473 6.40999V4.25C86.473 3.35 86.893 2.81 87.733 2.63L88.993 2.36C90.013 2.18 90.523 2.6 90.523 3.62V5.51C90.523 6.47 90.703 7.13 91.063 7.49C91.483 7.79 92.053 7.91 92.773 7.85C93.733 7.73 94.363 7.43 94.663 6.95C94.963 6.41 95.113 5.57 95.113 4.43V2.54C95.113 1.64 95.533 1.1 96.373 0.919996L97.633 0.649994C98.653 0.469996 99.163 0.889998 99.163 1.91V3.71C99.163 6.53 98.623 8.66 97.543 10.1C96.523 11.54 95.083 12.38 93.223 12.62C92.263 12.74 91.393 12.71 90.613 12.53C89.833 12.29 89.143 11.81 88.543 11.09C87.403 12.95 85.993 14.03 84.313 14.33ZM97.453 79.04C96.133 79.04 94.693 78.86 93.133 78.5C91.573 78.14 90.073 77.39 88.633 76.25C87.253 75.11 86.083 73.4 85.123 71.12C84.163 73.1 82.903 74.63 81.343 75.71C79.783 76.79 78.043 77.57 76.123 78.05C74.203 78.47 72.193 78.68 70.093 78.68C69.193 78.68 68.743 78.2 68.743 77.24V72.74C68.743 70.94 69.643 70.04 71.443 70.04C75.403 70.04 78.133 69.44 79.633 68.24C81.193 66.98 81.973 64.64 81.973 61.22V53.93C81.973 53.27 82.123 52.76 82.423 52.4C82.783 52.04 83.293 51.86 83.953 51.86H87.463C88.723 51.86 89.353 52.55 89.353 53.93V61.49C89.353 64.91 90.133 67.25 91.693 68.51C93.253 69.77 95.263 70.4 97.723 70.4C100.843 70.4 102.943 69.62 104.023 68.06C105.163 66.5 105.733 64.19 105.733 61.13V54.11C105.733 53.45 105.883 52.91 106.183 52.49C106.543 52.07 107.053 51.86 107.713 51.86H111.133C111.793 51.86 112.273 52.07 112.573 52.49C112.933 52.91 113.113 53.45 113.113 54.11V61.4C113.113 64.7 113.743 67.04 115.003 68.42C116.263 69.74 118.423 70.4 121.483 70.4C124.603 70.4 126.703 69.62 127.783 68.06C128.863 66.5 129.403 64.19 129.403 61.13V53.93C129.403 53.33 129.553 52.85 129.853 52.49C130.153 52.07 130.603 51.86 131.203 51.86H134.983C135.583 51.86 136.033 52.07 136.333 52.49C136.693 52.85 136.873 53.33 136.873 53.93V61.22C136.873 64.46 137.653 66.74 139.213 68.06C140.773 69.38 143.473 70.04 147.313 70.04H149.203C150.103 70.04 150.553 70.49 150.553 71.39V75.98C150.553 77.78 149.623 78.68 147.763 78.68C144.043 78.68 140.923 78.23 138.403 77.33C135.883 76.37 133.903 74.87 132.463 72.83C131.503 74.99 130.003 76.58 127.963 77.6C125.923 78.56 123.703 79.04 121.303 79.04C118.363 79.04 115.843 78.56 113.743 77.6C111.643 76.58 109.993 74.99 108.793 72.83C107.773 75.05 106.243 76.64 104.203 77.6C102.223 78.56 99.973 79.04 97.453 79.04ZM154.445 25.14C153.365 25.38 152.825 24.99 152.825 23.97V22.44C152.825 21.54 153.245 21 154.085 20.82L170.825 16.77C171.905 16.47 172.445 16.86 172.445 17.94V19.47C172.445 20.37 172.025 20.91 171.185 21.09L154.445 25.14ZM147.876 78.68C146.976 78.68 146.526 78.2 146.526 77.24V72.74C146.526 70.94 147.426 70.04 149.226 70.04H150.396C153.156 70.04 155.286 69.35 156.786 67.97C158.286 66.59 159.036 63.98 159.036 60.14V51.14C159.036 49.76 159.696 49.07 161.016 49.07H164.436C165.756 49.07 166.416 49.76 166.416 51.14V60.14C166.416 64.04 167.286 66.68 169.026 68.06C170.766 69.38 173.226 70.04 176.406 70.04H178.026C178.926 70.04 179.376 70.49 179.376 71.39V75.98C179.376 77.78 178.476 78.68 176.676 78.68C173.676 78.68 170.856 78.14 168.216 77.06C165.636 75.92 163.536 73.82 161.916 70.76C160.596 73.88 158.646 75.98 156.066 77.06C153.486 78.14 150.756 78.68 147.876 78.68ZM163.626 40.07C163.326 40.37 162.966 40.52 162.546 40.52C162.126 40.46 161.736 40.28 161.376 39.98L157.956 36.56C157.656 36.2 157.506 35.81 157.506 35.39C157.506 34.97 157.656 34.61 157.956 34.31L161.376 30.89C161.736 30.59 162.096 30.44 162.456 30.44C162.876 30.38 163.236 30.53 163.536 30.89L166.956 34.31C167.796 35.15 167.826 35.93 167.046 36.65L163.626 40.07ZM198.126 24.14C197.046 24.38 196.506 23.99 196.506 22.97V21.62C196.506 20.84 196.926 20.36 197.766 20.18L201.816 19.19C203.916 18.65 205.626 18.11 206.946 17.57C208.266 17.03 209.496 16.37 210.636 15.59L211.896 16.58C211.356 16.82 210.576 16.94 209.556 16.94C207.456 16.94 205.866 16.34 204.786 15.14C203.766 13.94 203.256 12.68 203.256 11.36C203.256 9.5 203.886 7.85 205.146 6.40999C206.406 4.97 208.116 4.25 210.276 4.25C211.836 4.25 213.186 4.76 214.326 5.78C215.466 6.8 216.036 8.27 216.036 10.19C216.036 13.37 214.866 16.04 212.526 18.2C210.186 20.36 207.066 21.92 203.166 22.88L198.126 24.14ZM209.556 13.34C210.336 13.34 210.966 13.07 211.446 12.53C211.926 11.99 212.166 11.36 212.166 10.64C212.166 9.86 211.926 9.23 211.446 8.75C210.966 8.27 210.336 8.03 209.556 8.03C208.776 8.03 208.116 8.3 207.576 8.84C207.096 9.32 206.856 9.98 206.856 10.82C206.856 11.54 207.096 12.14 207.576 12.62C208.116 13.1 208.776 13.34 209.556 13.34ZM209.554 79.22C208.174 79.22 206.884 79.1 205.684 78.86C204.484 78.68 203.194 78.35 201.814 77.87C200.494 77.33 198.904 76.58 197.044 75.62C195.184 74.6 192.844 73.28 190.024 71.66C188.584 73.76 187.114 75.32 185.614 76.34C184.114 77.3 182.614 77.93 181.114 78.23C179.674 78.53 178.204 78.68 176.704 78.68C175.804 78.68 175.354 78.23 175.354 77.33V72.74C175.354 70.94 176.254 70.04 178.054 70.04C179.314 70.04 180.424 69.86 181.384 69.5C182.344 69.14 183.334 68.39 184.354 67.25C185.434 66.11 186.664 64.31 188.044 61.85C190.384 57.83 192.544 54.77 194.524 52.67C196.564 50.57 198.544 49.13 200.464 48.35C202.384 47.57 204.364 47.18 206.404 47.18C209.224 47.18 211.834 47.96 214.234 49.52C216.694 51.02 218.644 53.09 220.084 55.73C221.524 58.31 222.244 61.34 222.244 64.82C222.244 67.04 221.944 69.05 221.344 70.85C220.744 72.65 219.874 74.18 218.734 75.44C217.594 76.7 216.244 77.66 214.684 78.32C213.124 78.92 211.414 79.22 209.554 79.22ZM209.824 71.21C211.204 71.21 212.374 70.79 213.334 69.95C214.354 69.11 214.864 67.49 214.864 65.09C214.924 63.05 214.504 61.28 213.604 59.78C212.764 58.28 211.624 57.11 210.184 56.27C208.804 55.37 207.304 54.92 205.684 54.92C204.544 54.92 203.404 55.16 202.264 55.64C201.184 56.12 199.984 57.05 198.664 58.43C197.404 59.81 195.904 61.94 194.164 64.82C197.284 66.68 199.744 68.09 201.544 69.05C203.404 69.95 204.934 70.55 206.134 70.85C207.394 71.09 208.624 71.21 209.824 71.21Z" fill="white"/>
</svg>
