<svg width="35" height="35" viewBox="0 0 35 35" fill="none" xmlns="http://www.w3.org/2000/svg">
<path d="M15.1927 19.7219C15.1406 19.8586 15.0723 19.9767 14.9876 20.0753C14.9037 20.1755 14.8012 20.2532 14.68 20.3091C14.5588 20.3651 14.4104 20.3923 14.2372 20.3923C13.9941 20.3923 13.7929 20.3394 13.6313 20.2346C13.4697 20.1281 13.3408 19.9891 13.2445 19.8143C13.1481 19.6411 13.0782 19.4438 13.0347 19.2271C12.9905 19.0103 12.9695 18.789 12.9695 18.5652C12.9695 18.3407 12.9905 18.1209 13.0347 17.9026C13.0782 17.6844 13.1481 17.4886 13.2445 17.3154C13.3408 17.1406 13.4697 17.0016 13.6313 16.8951C13.7929 16.7887 13.9948 16.7374 14.2372 16.7374C14.4477 16.7374 14.6209 16.7771 14.7546 16.8571C14.8882 16.9386 14.9954 17.0319 15.0761 17.1375C15.1569 17.2439 15.2129 17.3496 15.2439 17.4591C15.275 17.5671 15.2968 17.6533 15.3092 17.7154H17.304C17.217 16.8765 16.9234 16.2286 16.4223 15.7719C15.9221 15.3151 15.2121 15.0829 14.2931 15.0767C13.7773 15.0767 13.312 15.1598 12.8996 15.3283C12.4863 15.4954 12.1321 15.7323 11.8369 16.0368C11.5417 16.3413 11.3149 16.7072 11.1564 17.1367C10.998 17.5647 10.918 18.0417 10.918 18.5629C10.918 19.0531 10.9933 19.5129 11.1417 19.9378C11.2908 20.3643 11.5107 20.7309 11.7996 21.0424C12.0886 21.3539 12.4405 21.5994 12.8568 21.7796C13.2732 21.9583 13.7517 22.0499 14.2931 22.0499C14.7779 22.0499 15.2098 21.9684 15.5888 21.8076C15.9671 21.6452 16.2856 21.4332 16.5435 21.1691C16.8014 20.9049 16.9972 20.6074 17.1308 20.2788C17.2644 19.951 17.332 19.617 17.332 19.2822H15.3177C15.2874 19.4376 15.2463 19.5859 15.1927 19.7219Z" fill="black"/>
<path d="M20.6786 19.274H20.66L19.5694 15.2378H17.5L19.4855 21.8934H21.7786L23.8581 15.2378H21.7506L20.6786 19.274Z" fill="black"/>
<path d="M25.9694 0H4.02344V35H30.9774V4.85574L25.9694 0ZM28.647 32.6688H6.35382V2.33038H24.7685V6.02792H28.6462L28.647 32.6688Z" fill="black"/>
</svg>
