<svg width="371" height="52" viewBox="0 0 371 52" fill="none" xmlns="http://www.w3.org/2000/svg">
<g clip-path="url(#clip0_587_2090)">
<g opacity="0.2">
<path d="M244.501 542.297C119.616 583.937 -98.8322 441.729 -146.838 331.756C-194.845 221.783 -110.814 56.0651 14.0709 14.4249C138.956 -27.2153 404.603 21.9098 452.609 131.883" stroke="#949494" stroke-width="2"/>
<path d="M240.4 530.113C121.192 569.861 -87.3266 434.117 -133.151 329.143C-178.975 224.168 -98.7638 65.9835 20.4446 26.236C139.653 -13.5114 393.225 33.3807 439.049 138.355" stroke="#949494" stroke-width="2"/>
<path d="M236.299 517.93C122.767 555.785 -75.8219 426.505 -119.464 326.529C-163.106 226.554 -86.7145 75.9014 26.8173 38.0467C140.349 0.191982 381.847 44.8512 425.489 144.827" stroke="#949494" stroke-width="2"/>
<path d="M232.195 505.746C124.339 541.708 -64.3202 418.892 -105.78 323.915C-147.24 228.938 -74.6681 85.8183 33.1871 49.8564C141.042 13.8944 370.465 56.3206 411.925 151.298" stroke="#949494" stroke-width="2"/>
<path d="M228.096 493.562C125.918 527.632 -52.8126 411.28 -92.0904 321.302C-131.368 231.324 -62.6159 95.7367 39.5627 61.6675C141.741 27.5983 359.089 67.7915 398.367 157.77" stroke="#949494" stroke-width="2"/>
<path d="M223.993 481.379C127.491 513.555 -41.3098 403.668 -78.4055 318.688C-115.501 233.709 -50.5686 105.655 45.9334 73.4782C142.435 41.3017 347.708 79.262 384.804 164.241" stroke="#949494" stroke-width="2"/>
</g>
</g>
<defs>
<clipPath id="clip0_587_2090">
<rect width="371" height="52" fill="white"/>
</clipPath>
</defs>
</svg>
