<svg width="1007" height="149" viewBox="0 0 1007 149" fill="none" xmlns="http://www.w3.org/2000/svg">
<g opacity="0.2">
<path d="M973.876 -92.5535C1051.86 -6.56569 808.16 102.118 615.456 110.727C422.753 119.337 126.884 34.7609 48.8993 -51.2269C-29.0852 -137.215 48.4276 -293.404 241.131 -302.014" stroke="#949494" stroke-width="2"/>
<path d="M952.483 -92.3587C1026.92 -10.2795 794.3 93.4639 610.356 101.682C426.412 109.901 143.991 29.1686 69.5514 -52.9106C-4.88829 -134.99 69.1011 -284.08 253.045 -292.298" stroke="#949494" stroke-width="2"/>
<path d="M931.092 -92.1639C1001.99 -13.9932 780.441 84.8099 605.256 92.6369C430.071 100.464 161.099 23.5764 90.2045 -54.5943C19.3096 -132.765 89.7757 -274.755 264.961 -282.582" stroke="#949494" stroke-width="2"/>
<path d="M909.7 -91.9682C977.05 -17.706 766.582 76.157 600.156 83.5926C433.73 91.0283 178.207 17.9851 110.857 -56.2771C43.5064 -130.539 110.449 -265.43 276.875 -272.866" stroke="#949494" stroke-width="2"/>
<path d="M888.308 -91.7749C952.113 -21.4213 752.722 67.5016 595.055 74.5459C437.389 81.5902 195.314 12.3914 131.509 -57.9622C67.7033 -128.316 131.123 -256.107 288.789 -263.152" stroke="#949494" stroke-width="2"/>
<path d="M866.915 -91.5796C927.176 -25.1345 738.862 58.8482 589.955 65.5011C441.048 72.1541 212.422 6.79964 152.161 -59.6455C91.9002 -126.091 151.796 -246.782 300.704 -253.435" stroke="#949494" stroke-width="2"/>
<path d="M845.523 -91.3839C902.239 -28.8473 725.002 50.1952 584.854 56.4568C444.707 62.7184 229.529 1.20836 172.813 -61.3282C116.097 -123.865 172.47 -237.457 312.618 -243.719" stroke="#949494" stroke-width="2"/>
<path d="M824.131 -91.1896C877.302 -32.5616 711.143 41.5408 579.754 47.4111C448.365 53.2813 246.636 -4.38436 193.465 -63.0124C140.294 -121.64 193.144 -228.133 324.532 -234.003" stroke="#949494" stroke-width="2"/>
<path d="M802.739 -90.9948C852.365 -36.2753 697.283 32.8869 574.654 38.3658C452.024 43.8447 263.744 -9.97661 214.117 -64.6961C164.491 -119.416 213.817 -218.809 336.447 -224.288" stroke="#949494" stroke-width="2"/>
<path d="M781.347 -90.8C827.429 -39.9891 683.424 24.233 569.554 29.3205C455.684 34.4081 280.852 -15.5689 234.77 -66.3798C188.689 -117.191 234.492 -209.485 348.362 -214.572" stroke="#949494" stroke-width="2"/>
<path d="M759.956 -90.6043C802.493 -43.7019 669.566 15.58 564.455 20.2762C459.344 24.9724 297.96 -21.1601 255.423 -68.0625C212.887 -114.965 255.166 -200.159 360.277 -204.855" stroke="#949494" stroke-width="2"/>
<path d="M738.564 -90.4095C777.556 -47.4156 655.706 6.92609 559.354 11.2309C463.002 15.5358 315.068 -26.7524 276.076 -69.7463C237.083 -112.74 275.84 -190.835 372.191 -195.14" stroke="#949494" stroke-width="2"/>
<path d="M717.171 -90.2153C752.618 -51.1299 641.845 -1.72833 554.253 2.18517C466.66 6.09867 332.174 -32.3451 296.727 -71.4305C261.279 -110.516 296.512 -181.511 384.105 -185.425" stroke="#949494" stroke-width="2"/>
<path d="M695.78 -90.021C727.683 -54.8442 627.987 -10.3827 549.154 -6.86059C470.321 -3.33844 349.284 -37.9378 317.381 -73.1147C285.478 -108.291 317.188 -172.187 396.021 -175.709" stroke="#949494" stroke-width="2"/>
<path d="M674.388 -89.8252C702.746 -58.557 614.128 -19.0357 544.054 -15.9049C473.98 -12.7741 366.391 -43.5291 338.033 -74.7974C309.675 -106.066 337.861 -162.862 407.935 -165.993" stroke="#949494" stroke-width="2"/>
</g>
</svg>
