<svg width="35" height="35" viewBox="0 0 35 35" fill="none" xmlns="http://www.w3.org/2000/svg">
<path d="M9.47852 11.667C10.6866 11.667 11.666 10.6876 11.666 9.47949C11.666 8.27137 10.6866 7.29199 9.47852 7.29199C8.27039 7.29199 7.29102 8.27137 7.29102 9.47949C7.29102 10.6876 8.27039 11.667 9.47852 11.667Z" fill="#0F0F0F"/>
<path d="M7.29102 14.5833C7.29102 13.7779 7.94394 13.125 8.74935 13.125H10.2077C11.0131 13.125 11.666 13.7779 11.666 14.5833V26.25C11.666 27.0554 11.0131 27.7083 10.2077 27.7083H8.74935C7.94394 27.7083 7.29102 27.0554 7.29102 26.25V14.5833Z" fill="#0F0F0F"/>
<path d="M16.0413 27.7083H17.4997C18.3051 27.7083 18.958 27.0554 18.958 26.25V19.6875C18.958 17.5 23.333 16.0417 23.333 18.9583V26.2506C23.333 27.056 23.9859 27.7083 24.7913 27.7083H26.2497C27.0551 27.7083 27.708 27.0554 27.708 26.25V17.5C27.708 14.5833 25.5205 13.125 22.6038 13.125C19.6872 13.125 18.958 15.3125 18.958 15.3125V14.5833C18.958 13.7779 18.3051 13.125 17.4997 13.125H16.0413C15.2359 13.125 14.583 13.7779 14.583 14.5833V26.25C14.583 27.0554 15.2359 27.7083 16.0413 27.7083Z" fill="#0F0F0F"/>
<path fill-rule="evenodd" clip-rule="evenodd" d="M29.1663 1.4585C31.5827 1.4585 33.5413 3.41726 33.5413 5.8335V29.1668C33.5413 31.5831 31.5827 33.5418 29.1663 33.5418H5.83301C3.41677 33.5418 1.45801 31.5831 1.45801 29.1668V5.8335C1.45801 3.41726 3.41677 1.4585 5.83301 1.4585H29.1663ZM29.1663 4.37516C29.9718 4.37516 30.6247 5.02809 30.6247 5.8335V29.1668C30.6247 29.9723 29.9718 30.6252 29.1663 30.6252H5.83301C5.0276 30.6252 4.37467 29.9723 4.37467 29.1668V5.8335C4.37467 5.02809 5.0276 4.37516 5.83301 4.37516H29.1663Z" fill="#0F0F0F"/>
</svg>
