<svg width="65" height="65" viewBox="0 0 65 65" fill="none" xmlns="http://www.w3.org/2000/svg">
<path d="M24.5 34.5L30.5 40.5L40.5 26.5M56.5 32.5C56.5 35.6517 55.8792 38.7726 54.6731 41.6844C53.467 44.5962 51.6992 47.242 49.4706 49.4706C47.242 51.6992 44.5962 53.467 41.6844 54.6731C38.7726 55.8792 35.6517 56.5 32.5 56.5C29.3483 56.5 26.2274 55.8792 23.3156 54.6731C20.4038 53.467 17.758 51.6992 15.5294 49.4706C13.3008 47.242 11.533 44.5962 10.3269 41.6844C9.12078 38.7726 8.5 35.6517 8.5 32.5C8.5 26.1348 11.0286 20.0303 15.5294 15.5294C20.0303 11.0286 26.1348 8.5 32.5 8.5C38.8652 8.5 44.9697 11.0286 49.4706 15.5294C53.9714 20.0303 56.5 26.1348 56.5 32.5Z" stroke="url(#paint0_linear_839_731)" stroke-width="5.5" stroke-linecap="round" stroke-linejoin="round"/>
<defs>
<linearGradient id="paint0_linear_839_731" x1="54.004" y1="56.5" x2="9.41643" y2="54.2604" gradientUnits="userSpaceOnUse">
<stop stop-color="#AE00FE"/>
<stop offset="1" stop-color="#652BB7"/>
</linearGradient>
</defs>
</svg>
