<svg width="65" height="64" viewBox="0 0 65 64" fill="none" xmlns="http://www.w3.org/2000/svg">
<path d="M26.0147 8H14.5C12.9087 8 11.3826 8.63214 10.2574 9.75736C9.13214 10.8826 8.5 12.4087 8.5 14V25.5147C8.5 27.1067 9.132 28.6347 10.2573 29.7573L35.8067 55.3067C37.6707 57.1707 40.5533 57.632 42.7587 56.1867C48.3096 52.551 53.051 47.8096 56.6867 42.2587C58.132 40.0533 57.6707 37.1707 55.8067 35.3067L30.26 9.76C29.7027 9.20205 29.041 8.75942 28.3125 8.45743C27.5841 8.15543 26.8032 7.99999 26.0147 8Z" stroke="#939393" stroke-width="5.5" stroke-linecap="round" stroke-linejoin="round"/>
<path d="M16.5 16H16.5213V16.0213H16.5V16Z" stroke="#939393" stroke-width="5.5" stroke-linecap="round" stroke-linejoin="round"/>
</svg>
