<svg width="70" height="71" viewBox="0 0 70 71" fill="none" xmlns="http://www.w3.org/2000/svg">
<path d="M48.125 22.375H21.875V48.625H48.125V22.375Z" fill="white"/>
<path fill-rule="evenodd" clip-rule="evenodd" d="M24.0625 7.0625C24.6427 7.0625 25.1991 7.29297 25.6093 7.7032C26.0195 8.11344 26.25 8.66984 26.25 9.25V11.4375H32.8125V9.25C32.8125 8.66984 33.043 8.11344 33.4532 7.7032C33.8634 7.29297 34.4198 7.0625 35 7.0625C35.5802 7.0625 36.1366 7.29297 36.5468 7.7032C36.957 8.11344 37.1875 8.66984 37.1875 9.25V11.4375H43.75V9.25C43.75 8.66984 43.9805 8.11344 44.3907 7.7032C44.8009 7.29297 45.3573 7.0625 45.9375 7.0625C46.5177 7.0625 47.0741 7.29297 47.4843 7.7032C47.8945 8.11344 48.125 8.66984 48.125 9.25V11.4375H50.3125C52.6331 11.4375 54.8587 12.3594 56.4997 14.0003C58.1406 15.6413 59.0625 17.8669 59.0625 20.1875V22.375H61.25C61.8302 22.375 62.3866 22.6055 62.7968 23.0157C63.207 23.4259 63.4375 23.9823 63.4375 24.5625C63.4375 25.1427 63.207 25.6991 62.7968 26.1093C62.3866 26.5195 61.8302 26.75 61.25 26.75H59.0625V33.3125H61.25C61.8302 33.3125 62.3866 33.543 62.7968 33.9532C63.207 34.3634 63.4375 34.9198 63.4375 35.5C63.4375 36.0802 63.207 36.6366 62.7968 37.0468C62.3866 37.457 61.8302 37.6875 61.25 37.6875H59.0625V44.25H61.25C61.8302 44.25 62.3866 44.4805 62.7968 44.8907C63.207 45.3009 63.4375 45.8573 63.4375 46.4375C63.4375 47.0177 63.207 47.5741 62.7968 47.9843C62.3866 48.3945 61.8302 48.625 61.25 48.625H59.0625V50.8125C59.0625 53.1331 58.1406 55.3587 56.4997 56.9997C54.8587 58.6406 52.6331 59.5625 50.3125 59.5625H48.125V61.75C48.125 62.3302 47.8945 62.8866 47.4843 63.2968C47.0741 63.707 46.5177 63.9375 45.9375 63.9375C45.3573 63.9375 44.8009 63.707 44.3907 63.2968C43.9805 62.8866 43.75 62.3302 43.75 61.75V59.5625H37.1875V61.75C37.1875 62.3302 36.957 62.8866 36.5468 63.2968C36.1366 63.707 35.5802 63.9375 35 63.9375C34.4198 63.9375 33.8634 63.707 33.4532 63.2968C33.043 62.8866 32.8125 62.3302 32.8125 61.75V59.5625H26.25V61.75C26.25 62.3302 26.0195 62.8866 25.6093 63.2968C25.1991 63.707 24.6427 63.9375 24.0625 63.9375C23.4823 63.9375 22.9259 63.707 22.5157 63.2968C22.1055 62.8866 21.875 62.3302 21.875 61.75V59.5625H19.6875C17.3669 59.5625 15.1413 58.6406 13.5003 56.9997C11.8594 55.3587 10.9375 53.1331 10.9375 50.8125V48.625H8.75C8.16984 48.625 7.61344 48.3945 7.2032 47.9843C6.79297 47.5741 6.5625 47.0177 6.5625 46.4375C6.5625 45.8573 6.79297 45.3009 7.2032 44.8907C7.61344 44.4805 8.16984 44.25 8.75 44.25H10.9375V37.6875H8.75C8.16984 37.6875 7.61344 37.457 7.2032 37.0468C6.79297 36.6366 6.5625 36.0802 6.5625 35.5C6.5625 34.9198 6.79297 34.3634 7.2032 33.9532C7.61344 33.543 8.16984 33.3125 8.75 33.3125H10.9375V26.75H8.75C8.16984 26.75 7.61344 26.5195 7.2032 26.1093C6.79297 25.6991 6.5625 25.1427 6.5625 24.5625C6.5625 23.9823 6.79297 23.4259 7.2032 23.0157C7.61344 22.6055 8.16984 22.375 8.75 22.375H10.9375V20.1875C10.9375 17.8669 11.8594 15.6413 13.5003 14.0003C15.1413 12.3594 17.3669 11.4375 19.6875 11.4375H21.875V9.25C21.875 8.66984 22.1055 8.11344 22.5157 7.7032C22.9259 7.29297 23.4823 7.0625 24.0625 7.0625ZM17.5 20.1875C17.5 19.6073 17.7305 19.0509 18.1407 18.6407C18.5509 18.2305 19.1073 18 19.6875 18H50.3125C50.8927 18 51.4491 18.2305 51.8593 18.6407C52.2695 19.0509 52.5 19.6073 52.5 20.1875V50.8125C52.5 51.3927 52.2695 51.9491 51.8593 52.3593C51.4491 52.7695 50.8927 53 50.3125 53H19.6875C19.1073 53 18.5509 52.7695 18.1407 52.3593C17.7305 51.9491 17.5 51.3927 17.5 50.8125V20.1875Z" fill="white"/>
</svg>
