<svg width="70" height="71" viewBox="0 0 70 71" fill="none" xmlns="http://www.w3.org/2000/svg">
<path d="M63.3821 7.11799C61.9463 5.68244 59.9991 4.87598 57.9688 4.87598C55.9384 4.87598 53.9912 5.68244 52.5554 7.11799L49.1808 10.4926L60.0075 21.3192L63.3821 17.9447C64.8176 16.5089 65.6241 14.5617 65.6241 12.5313C65.6241 10.501 64.8176 8.55378 63.3821 7.11799ZM56.9129 24.4138L46.0863 13.5872L21.5863 38.0872C19.7862 39.8863 18.463 42.1057 17.7363 44.5447L15.4029 52.3759C15.2903 52.7538 15.2819 53.1551 15.3786 53.5374C15.4753 53.9197 15.6736 54.2688 15.9525 54.5476C16.2313 54.8265 16.5803 55.0247 16.9626 55.1215C17.3449 55.2182 17.7463 55.2098 18.1242 55.0972L25.9554 52.7638C28.3944 52.0371 30.6138 50.7138 32.4129 48.9138L56.9129 24.4138Z" fill="white"/>
<path d="M15.3125 15.8125C12.9919 15.8125 10.7663 16.7344 9.12532 18.3753C7.48437 20.0163 6.5625 22.2419 6.5625 24.5625V55.1875C6.5625 57.5081 7.48437 59.7337 9.12532 61.3747C10.7663 63.0156 12.9919 63.9375 15.3125 63.9375H45.9375C48.2581 63.9375 50.4837 63.0156 52.1247 61.3747C53.7656 59.7337 54.6875 57.5081 54.6875 55.1875V39.875C54.6875 39.2948 54.457 38.7384 54.0468 38.3282C53.6366 37.918 53.0802 37.6875 52.5 37.6875C51.9198 37.6875 51.3634 37.918 50.9532 38.3282C50.543 38.7384 50.3125 39.2948 50.3125 39.875V55.1875C50.3125 56.3478 49.8516 57.4606 49.0311 58.2811C48.2106 59.1016 47.0978 59.5625 45.9375 59.5625H15.3125C14.1522 59.5625 13.0394 59.1016 12.2189 58.2811C11.3984 57.4606 10.9375 56.3478 10.9375 55.1875V24.5625C10.9375 23.4022 11.3984 22.2894 12.2189 21.4689C13.0394 20.6484 14.1522 20.1875 15.3125 20.1875H30.625C31.2052 20.1875 31.7616 19.957 32.1718 19.5468C32.582 19.1366 32.8125 18.5802 32.8125 18C32.8125 17.4198 32.582 16.8634 32.1718 16.4532C31.7616 16.043 31.2052 15.8125 30.625 15.8125H15.3125Z" fill="white"/>
</svg>
