<svg width="70" height="71" viewBox="0 0 70 71" fill="none" xmlns="http://www.w3.org/2000/svg">
<path fill-rule="evenodd" clip-rule="evenodd" d="M21.875 11.4375C20.7147 11.4375 19.6019 11.8984 18.7814 12.7189C17.9609 13.5394 17.5 14.6522 17.5 15.8125V55.1875C17.5 56.3478 17.9609 57.4606 18.7814 58.2811C19.6019 59.1016 20.7147 59.5625 21.875 59.5625H39.375C40.5353 59.5625 41.6481 59.1016 42.4686 58.2811C43.2891 57.4606 43.75 56.3478 43.75 55.1875V44.25C43.75 43.6698 43.9805 43.1134 44.3907 42.7032C44.8009 42.293 45.3573 42.0625 45.9375 42.0625C46.5177 42.0625 47.0741 42.293 47.4843 42.7032C47.8945 43.1134 48.125 43.6698 48.125 44.25V55.1875C48.125 57.5081 47.2031 59.7337 45.5622 61.3747C43.9212 63.0156 41.6956 63.9375 39.375 63.9375H21.875C19.5544 63.9375 17.3288 63.0156 15.6878 61.3747C14.0469 59.7337 13.125 57.5081 13.125 55.1875V15.8125C13.125 13.4919 14.0469 11.2663 15.6878 9.62532C17.3288 7.98437 19.5544 7.0625 21.875 7.0625H39.375C41.6956 7.0625 43.9212 7.98437 45.5622 9.62532C47.2031 11.2663 48.125 13.4919 48.125 15.8125V26.75C48.125 27.3302 47.8945 27.8866 47.4843 28.2968C47.0741 28.707 46.5177 28.9375 45.9375 28.9375C45.3573 28.9375 44.8009 28.707 44.3907 28.2968C43.9805 27.8866 43.75 27.3302 43.75 26.75V15.8125C43.75 14.6522 43.2891 13.5394 42.4686 12.7189C41.6481 11.8984 40.5353 11.4375 39.375 11.4375H21.875ZM36.5458 25.2042C36.9555 25.6143 37.1856 26.1703 37.1856 26.75C37.1856 27.3297 36.9555 27.8857 36.5458 28.2958L31.5292 33.3125H63.4375C64.0177 33.3125 64.5741 33.543 64.9843 33.9532C65.3945 34.3634 65.625 34.9198 65.625 35.5C65.625 36.0802 65.3945 36.6366 64.9843 37.0468C64.5741 37.457 64.0177 37.6875 63.4375 37.6875H31.5292L36.5458 42.7042C36.7608 42.9044 36.9331 43.1459 37.0527 43.4143C37.1723 43.6826 37.2365 43.9723 37.2417 44.266C37.2469 44.5597 37.1929 44.8514 37.0829 45.1238C36.9728 45.3962 36.8091 45.6436 36.6014 45.8514C36.3936 46.0591 36.1462 46.2228 35.8738 46.3329C35.6014 46.4429 35.3097 46.4969 35.016 46.4917C34.7223 46.4865 34.4326 46.4223 34.1643 46.3027C33.8959 46.1831 33.6544 46.0108 33.4542 45.7958L24.7042 37.0458C24.2945 36.6357 24.0644 36.0797 24.0644 35.5C24.0644 34.9203 24.2945 34.3643 24.7042 33.9542L33.4542 25.2042C33.8643 24.7945 34.4203 24.5644 35 24.5644C35.5797 24.5644 36.1357 24.7945 36.5458 25.2042Z" fill="white"/>
</svg>
