<svg width="30" height="30" viewBox="0 0 30 30" fill="none" xmlns="http://www.w3.org/2000/svg">
<path d="M14.9996 14.9912C14.7509 14.9912 14.5125 15.09 14.3367 15.2658C14.1608 15.4416 14.0621 15.6801 14.0621 15.9287V15.9362C14.0621 16.4537 14.4821 16.8737 14.9996 16.8737H15.0071C15.2557 16.8737 15.4942 16.7749 15.67 16.5991C15.8458 16.4233 15.9446 16.1849 15.9446 15.9362V15.9287C15.9446 15.6801 15.8458 15.4416 15.67 15.2658C15.4942 15.09 15.2557 14.9912 15.0071 14.9912H14.9996ZM14.9996 20.6175C14.7509 20.6175 14.5125 20.7162 14.3367 20.892C14.1608 21.0679 14.0621 21.3063 14.0621 21.555V21.5612C14.0621 22.0787 14.4808 22.4987 14.9996 22.4987H15.0058C15.2545 22.4987 15.4929 22.3999 15.6687 22.2241C15.8445 22.0483 15.9433 21.8099 15.9433 21.5612V21.555C15.9433 21.3063 15.8445 21.0679 15.6687 20.892C15.4929 20.7162 15.2545 20.6175 15.0058 20.6175H14.9996ZM11.2483 21.555C11.2483 21.3063 11.3471 21.0679 11.5229 20.892C11.6987 20.7162 11.9372 20.6175 12.1858 20.6175H12.1933C12.442 20.6175 12.6804 20.7162 12.8562 20.892C13.032 21.0679 13.1308 21.3063 13.1308 21.555V21.5625C13.1308 21.8111 13.032 22.0496 12.8562 22.2254C12.6804 22.4012 12.442 22.5 12.1933 22.5H12.1858C11.9372 22.5 11.6987 22.4012 11.5229 22.2254C11.3471 22.0496 11.2483 21.8111 11.2483 21.5625V21.555ZM9.37332 20.6175C9.12468 20.6175 8.88622 20.7162 8.71041 20.892C8.53459 21.0679 8.43582 21.3063 8.43582 21.555V21.5612C8.43582 22.0787 8.85582 22.4987 9.37332 22.4987H9.37957C9.62821 22.4987 9.86667 22.3999 10.0425 22.2241C10.2183 22.0483 10.3171 21.8099 10.3171 21.5612V21.555C10.3171 21.3063 10.2183 21.0679 10.0425 20.892C9.86667 20.7162 9.62821 20.6175 9.37957 20.6175H9.37332ZM16.8733 18.7462C16.8733 18.4976 16.9721 18.2591 17.1479 18.0833C17.3237 17.9075 17.5622 17.8087 17.8108 17.8087H17.8183C18.067 17.8087 18.3054 17.9075 18.4812 18.0833C18.657 18.2591 18.7558 18.4976 18.7558 18.7462V18.7525C18.7558 19.0011 18.657 19.2396 18.4812 19.4154C18.3054 19.5912 18.067 19.69 17.8183 19.69H17.8108C17.5622 19.69 17.3237 19.5912 17.1479 19.4154C16.9721 19.2396 16.8733 19.0011 16.8733 18.7525V18.7462ZM17.8121 20.6175C17.5634 20.6175 17.325 20.7162 17.1492 20.892C16.9733 21.0679 16.8746 21.3063 16.8746 21.555V21.5625C16.8746 22.08 17.2933 22.5 17.8121 22.5H17.8183C18.067 22.5 18.3054 22.4012 18.4812 22.2254C18.657 22.0496 18.7558 21.8111 18.7558 21.5625V21.555C18.7558 21.3063 18.657 21.0679 18.4812 20.892C18.3054 20.7162 18.067 20.6175 17.8183 20.6175H17.8121ZM19.6871 18.7437C19.6871 18.4951 19.7858 18.2566 19.9617 18.0808C20.1375 17.905 20.3759 17.8062 20.6246 17.8062H20.6308C20.8795 17.8062 21.1179 17.905 21.2937 18.0808C21.4695 18.2566 21.5683 18.4951 21.5683 18.7437V18.7512C21.5683 18.9999 21.4695 19.2383 21.2937 19.4141C21.1179 19.5899 20.8795 19.6887 20.6308 19.6887H20.6246C20.3759 19.6887 20.1375 19.5899 19.9617 19.4141C19.7858 19.2383 19.6871 18.9999 19.6871 18.7512V18.7437ZM16.8721 15.9287C16.8721 15.6801 16.9708 15.4416 17.1467 15.2658C17.3225 15.09 17.5609 14.9912 17.8096 14.9912H20.6221C20.8707 14.9912 21.1092 15.09 21.285 15.2658C21.4608 15.4416 21.5596 15.6801 21.5596 15.9287C21.5596 16.1774 21.4608 16.4158 21.285 16.5916C21.1092 16.7674 20.8707 16.8662 20.6221 16.8662H17.8096C17.5609 16.8662 17.3225 16.7674 17.1467 16.5916C16.9708 16.4158 16.8721 16.1774 16.8721 15.9287ZM8.43457 18.7412C8.43457 18.4926 8.53334 18.2541 8.70916 18.0783C8.88497 17.9025 9.12343 17.8037 9.37207 17.8037H14.9971C15.2457 17.8037 15.4842 17.9025 15.66 18.0783C15.8358 18.2541 15.9346 18.4926 15.9346 18.7412C15.9346 18.9899 15.8358 19.2283 15.66 19.4041C15.4842 19.5799 15.2457 19.6787 14.9971 19.6787H9.37207C9.12343 19.6787 8.88497 19.5799 8.70916 19.4041C8.53334 19.2283 8.43457 18.9899 8.43457 18.7412Z" fill="#525252"/>
<path fill-rule="evenodd" clip-rule="evenodd" d="M22.4996 3.74121C22.4996 3.49257 22.4008 3.25411 22.225 3.0783C22.0492 2.90248 21.8107 2.80371 21.5621 2.80371C21.3134 2.80371 21.075 2.90248 20.8992 3.0783C20.7233 3.25411 20.6246 3.49257 20.6246 3.74121V5.61621H9.37457V3.74246C9.37457 3.49382 9.2758 3.25536 9.09998 3.07955C8.92417 2.90373 8.68571 2.80496 8.43707 2.80496C8.18843 2.80496 7.94997 2.90373 7.77416 3.07955C7.59834 3.25536 7.49957 3.49382 7.49957 3.74246V5.61371H6.55957C5.56501 5.61371 4.61118 6.0088 3.90792 6.71206C3.20466 7.41532 2.80957 8.36915 2.80957 9.36371V23.4287C2.80957 24.4233 3.20466 25.3771 3.90792 26.0804C4.61118 26.7836 5.56501 27.1787 6.55957 27.1787H23.4346C24.4291 27.1787 25.383 26.7836 26.0862 26.0804C26.7895 25.3771 27.1846 24.4233 27.1846 23.4287V9.36496C27.1846 8.3704 26.7895 7.41657 26.0862 6.71331C25.383 6.01005 24.4291 5.61496 23.4346 5.61496H22.4996V3.74121ZM4.68457 23.4287V14.0537C4.68457 13.5564 4.88211 13.0795 5.23375 12.7279C5.58538 12.3763 6.06229 12.1787 6.55957 12.1787H23.4346C23.9319 12.1787 24.4088 12.3763 24.7604 12.7279C25.112 13.0795 25.3096 13.5564 25.3096 14.0537V23.4287C25.3096 23.926 25.112 24.4029 24.7604 24.7545C24.4088 25.1062 23.9319 25.3037 23.4346 25.3037H6.55957C6.06229 25.3037 5.58538 25.1062 5.23375 24.7545C4.88211 24.4029 4.68457 23.926 4.68457 23.4287Z" fill="#525252"/>
</svg>
