<svg width="30" height="30" viewBox="0 0 30 30" fill="none" xmlns="http://www.w3.org/2000/svg">
<path fill-rule="evenodd" clip-rule="evenodd" d="M11.2503 5.625C11.454 5.62504 11.6522 5.69143 11.8148 5.81412C11.9774 5.93681 12.0956 6.10913 12.1516 6.305L13.1678 9.8625C13.3866 10.6286 13.7971 11.3264 14.3605 11.8898C14.9239 12.4532 15.6217 12.8637 16.3878 13.0825L19.9453 14.0988C20.141 14.1548 20.3132 14.2731 20.4358 14.4357C20.5583 14.5983 20.6246 14.7964 20.6246 15C20.6246 15.2036 20.5583 15.4017 20.4358 15.5643C20.3132 15.7269 20.141 15.8452 19.9453 15.9012L16.3878 16.9175C15.6217 17.1363 14.9239 17.5468 14.3605 18.1102C13.7971 18.6736 13.3866 19.3714 13.1678 20.1375L12.1516 23.695C12.0955 23.8907 11.9772 24.0629 11.8146 24.1855C11.652 24.308 11.4539 24.3743 11.2503 24.3743C11.0467 24.3743 10.8486 24.308 10.686 24.1855C10.5234 24.0629 10.4051 23.8907 10.3491 23.695L9.3328 20.1375C9.11399 19.3714 8.70349 18.6736 8.14009 18.1102C7.57668 17.5468 6.87895 17.1363 6.1128 16.9175L2.5553 15.9012C2.35956 15.8452 2.18739 15.7269 2.06483 15.5643C1.94227 15.4017 1.87598 15.2036 1.87598 15C1.87598 14.7964 1.94227 14.5983 2.06483 14.4357C2.18739 14.2731 2.35956 14.1548 2.5553 14.0988L6.1128 13.0825C6.87895 12.8637 7.57668 12.4532 8.14009 11.8898C8.70349 11.3264 9.11399 10.6286 9.3328 9.8625L10.3491 6.305C10.405 6.10913 10.5232 5.93681 10.6858 5.81412C10.8484 5.69143 11.0466 5.62504 11.2503 5.625ZM22.5003 1.875C22.7094 1.87488 22.9126 1.9447 23.0775 2.07336C23.2424 2.20201 23.3596 2.38211 23.4103 2.585L23.7328 3.88C24.0278 5.055 24.9453 5.9725 26.1203 6.2675L27.4153 6.59C27.6186 6.64035 27.7992 6.75732 27.9282 6.92225C28.0573 7.08718 28.1274 7.29057 28.1274 7.5C28.1274 7.70943 28.0573 7.91282 27.9282 8.07775C27.7992 8.24268 27.6186 8.35965 27.4153 8.41L26.1203 8.7325C24.9453 9.0275 24.0278 9.945 23.7328 11.12L23.4103 12.415C23.36 12.6183 23.243 12.7989 23.0781 12.9279C22.9131 13.057 22.7097 13.1271 22.5003 13.1271C22.2909 13.1271 22.0875 13.057 21.9226 12.9279C21.7576 12.7989 21.6407 12.6183 21.5903 12.415L21.2678 11.12C21.1236 10.543 20.8252 10.0161 20.4047 9.59559C19.9842 9.17506 19.4573 8.87673 18.8803 8.7325L17.5853 8.41C17.382 8.35965 17.2014 8.24268 17.0724 8.07775C16.9433 7.91282 16.8732 7.70943 16.8732 7.5C16.8732 7.29057 16.9433 7.08718 17.0724 6.92225C17.2014 6.75732 17.382 6.64035 17.5853 6.59L18.8803 6.2675C19.4573 6.12327 19.9842 5.82494 20.4047 5.40441C20.8252 4.98388 21.1236 4.45696 21.2678 3.88L21.5903 2.585C21.6411 2.38211 21.7582 2.20201 21.9231 2.07336C22.088 1.9447 22.2912 1.87488 22.5003 1.875ZM20.6253 18.75C20.8222 18.7499 21.0141 18.8118 21.1739 18.9269C21.3336 19.042 21.4531 19.2044 21.5153 19.3912L22.0078 20.87C22.1953 21.4287 22.6328 21.8687 23.1928 22.055L24.6716 22.5487C24.8578 22.6113 25.0196 22.7307 25.1343 22.8902C25.249 23.0496 25.3107 23.2411 25.3107 23.4375C25.3107 23.6339 25.249 23.8254 25.1343 23.9848C25.0196 24.1443 24.8578 24.2637 24.6716 24.3263L23.1928 24.82C22.6341 25.0075 22.1941 25.445 22.0078 26.005L21.5141 27.4837C21.4515 27.67 21.3321 27.8318 21.1726 27.9465C21.0132 28.0612 20.8217 28.1229 20.6253 28.1229C20.4289 28.1229 20.2374 28.0612 20.078 27.9465C19.9185 27.8318 19.7991 27.67 19.7365 27.4837L19.2428 26.005C19.1507 25.7291 18.9957 25.4784 18.7901 25.2727C18.5844 25.0671 18.3337 24.9121 18.0578 24.82L16.5791 24.3263C16.3928 24.2637 16.231 24.1443 16.1163 23.9848C16.0016 23.8254 15.9399 23.6339 15.9399 23.4375C15.9399 23.2411 16.0016 23.0496 16.1163 22.8902C16.231 22.7307 16.3928 22.6113 16.5791 22.5487L18.0578 22.055C18.6166 21.8675 19.0566 21.43 19.2428 20.87L19.7365 19.3912C19.7987 19.2046 19.918 19.0423 20.0775 18.9272C20.237 18.8122 20.4286 18.7501 20.6253 18.75Z" fill="url(#paint0_linear_588_2983)"/>
<defs>
<linearGradient id="paint0_linear_588_2983" x1="26.7623" y1="28.1229" x2="2.3772" y2="26.8979" gradientUnits="userSpaceOnUse">
<stop stop-color="#AE00FE"/>
<stop offset="1" stop-color="#652BB7"/>
</linearGradient>
</defs>
</svg>
