<svg width="40" height="40" viewBox="0 0 40 40" fill="none" xmlns="http://www.w3.org/2000/svg">
<path fill-rule="evenodd" clip-rule="evenodd" d="M17.5 10C17.5 9.33696 17.7634 8.70107 18.2322 8.23223C18.7011 7.76339 19.337 7.5 20 7.5C20.663 7.5 21.2989 7.76339 21.7678 8.23223C22.2366 8.70107 22.5 9.33696 22.5 10C22.5 10.663 22.2366 11.2989 21.7678 11.7678C21.2989 12.2366 20.663 12.5 20 12.5C19.337 12.5 18.7011 12.2366 18.2322 11.7678C17.7634 11.2989 17.5 10.663 17.5 10ZM17.5 20C17.5 19.337 17.7634 18.7011 18.2322 18.2322C18.7011 17.7634 19.337 17.5 20 17.5C20.663 17.5 21.2989 17.7634 21.7678 18.2322C22.2366 18.7011 22.5 19.337 22.5 20C22.5 20.663 22.2366 21.2989 21.7678 21.7678C21.2989 22.2366 20.663 22.5 20 22.5C19.337 22.5 18.7011 22.2366 18.2322 21.7678C17.7634 21.2989 17.5 20.663 17.5 20ZM17.5 30C17.5 29.337 17.7634 28.7011 18.2322 28.2322C18.7011 27.7634 19.337 27.5 20 27.5C20.663 27.5 21.2989 27.7634 21.7678 28.2322C22.2366 28.7011 22.5 29.337 22.5 30C22.5 30.663 22.2366 31.2989 21.7678 31.7678C21.2989 32.2366 20.663 32.5 20 32.5C19.337 32.5 18.7011 32.2366 18.2322 31.7678C17.7634 31.2989 17.5 30.663 17.5 30Z" fill="black"/>
</svg>
