<svg width="24" height="24" viewBox="0 0 24 24" fill="none" xmlns="http://www.w3.org/2000/svg">
<path d="M21.7308 2.26918C21.2385 1.77699 20.5709 1.50049 19.8748 1.50049C19.1786 1.50049 18.511 1.77699 18.0188 2.26918L16.8618 3.42618L20.5738 7.13818L21.7308 5.98118C22.223 5.48891 22.4995 4.8213 22.4995 4.12518C22.4995 3.42906 22.223 2.76145 21.7308 2.26918ZM19.5128 8.19918L15.8008 4.48718L3.65077 16.6372C3.03362 17.254 2.57994 18.015 2.33077 18.8512L1.53077 21.5362C1.49214 21.6657 1.48926 21.8033 1.52243 21.9344C1.5556 22.0655 1.62358 22.1852 1.71918 22.2808C1.81478 22.3764 1.93445 22.4443 2.06553 22.4775C2.1966 22.5107 2.3342 22.5078 2.46377 22.4692L5.14877 21.6692C5.98499 21.42 6.74593 20.9663 7.36277 20.3492L19.5128 8.19918Z" fill="url(#paint0_linear_1062_1060)"/>
<defs>
<linearGradient id="paint0_linear_1062_1060" x1="21.4075" y1="22.5004" x2="1.90045" y2="21.5206" gradientUnits="userSpaceOnUse">
<stop stop-color="#AE00FE"/>
<stop offset="1" stop-color="#652BB7"/>
</linearGradient>
</defs>
</svg>
