<svg width="35" height="35" viewBox="0 0 35 35" fill="none" xmlns="http://www.w3.org/2000/svg">
<path d="M31.7188 9.84375V25.1563C31.7188 26.0265 31.373 26.8611 30.7577 27.4764C30.1423 28.0918 29.3077 28.4375 28.4375 28.4375H6.5625C5.69226 28.4375 4.85766 28.0918 4.24231 27.4764C3.62695 26.8611 3.28125 26.0265 3.28125 25.1563V9.84375M31.7188 9.84375C31.7188 8.97351 31.373 8.13891 30.7577 7.52356C30.1423 6.9082 29.3077 6.5625 28.4375 6.5625H6.5625C5.69226 6.5625 4.85766 6.9082 4.24231 7.52356C3.62695 8.13891 3.28125 8.97351 3.28125 9.84375M31.7188 9.84375V10.1981C31.7188 10.7583 31.5754 11.3092 31.3023 11.7983C31.0292 12.2875 30.6353 12.6985 30.1583 12.9923L19.2208 19.7225C18.7034 20.0412 18.1077 20.2099 17.5 20.2099C16.8923 20.2099 16.2966 20.0412 15.7792 19.7225L4.84167 12.9937C4.36468 12.6999 3.97085 12.2889 3.6977 11.7998C3.42456 11.3107 3.28119 10.7598 3.28125 10.1996V9.84375" stroke="black" stroke-width="2" stroke-linecap="round" stroke-linejoin="round"/>
</svg>
