<svg width="370" height="889" viewBox="0 0 370 889" fill="none" xmlns="http://www.w3.org/2000/svg">
<g opacity="0.5" clip-path="url(#clip0_500_737)">
<path d="M-510.481 228.949C-504.707 95.5601 -277.994 -11.5045 -148.874 11.1863C-19.7548 33.877 115.066 204.476 109.293 337.864C103.519 471.253 -47.4664 674.141 -176.586 651.451" stroke="#949494" stroke-width="2"/>
<path d="M-496.641 232.524C-491.13 105.199 -274.721 3.00053 -151.471 24.6599C-28.2206 46.3193 100.472 209.164 94.9611 336.489C89.4502 463.814 -54.6726 657.481 -177.923 635.821" stroke="#949494" stroke-width="2"/>
<path d="M-482.801 236.099C-477.552 114.837 -271.449 17.5051 -154.067 38.1331C-36.6861 58.7611 85.8781 213.851 80.6297 335.113C75.3813 456.375 -61.8785 640.82 -179.26 620.192" stroke="#949494" stroke-width="2"/>
<path d="M-468.961 239.674C-463.975 124.475 -268.176 32.0102 -156.664 51.6068C-45.152 71.2033 71.2841 218.539 66.2981 333.738C61.3121 448.937 -69.0847 624.159 -180.597 604.562" stroke="#949494" stroke-width="2"/>
<path d="M-455.12 243.25C-450.397 134.114 -264.904 46.5153 -159.261 65.0804C-53.6175 83.6456 56.6903 223.226 51.9668 332.362C47.2432 441.498 -76.2907 607.498 -181.934 588.933" stroke="#949494" stroke-width="2"/>
<path d="M-441.281 246.824C-436.819 143.752 -261.632 61.0198 -161.857 78.5536C-62.0833 96.0874 42.0963 227.914 37.6352 330.987C33.174 434.059 -83.4968 590.837 -183.271 573.303" stroke="#949494" stroke-width="2"/>
<path d="M-427.44 250.4C-423.242 153.39 -258.359 75.5249 -164.454 92.0273C-70.5489 108.53 27.5026 232.602 23.3038 329.611C19.1051 426.621 -90.7028 574.177 -184.608 557.674" stroke="#949494" stroke-width="2"/>
<path d="M-413.6 253.975C-409.664 163.028 -255.087 90.0295 -167.051 105.5C-79.0147 120.971 12.9085 237.289 8.97223 328.235C5.03592 419.182 -97.909 557.515 -185.945 542.044" stroke="#949494" stroke-width="2"/>
<path d="M-399.761 257.55C-396.087 172.667 -251.814 104.535 -169.647 118.974C-87.4805 133.414 -1.68548 241.977 -5.35937 326.86C-9.03326 411.744 -105.115 540.855 -187.282 526.415" stroke="#949494" stroke-width="2"/>
<path d="M-385.92 261.125C-382.509 182.305 -248.542 119.04 -172.244 132.448C-95.9461 145.856 -16.2793 246.664 -19.6907 325.485C-23.1022 404.305 -112.321 524.194 -188.619 510.786" stroke="#949494" stroke-width="2"/>
<path d="M-372.08 264.7C-368.931 191.943 -245.269 133.544 -174.84 145.921C-104.412 158.298 -30.873 251.352 -34.0221 324.109C-37.1711 396.866 -119.527 507.533 -189.956 495.156" stroke="#949494" stroke-width="2"/>
<path d="M-358.24 268.276C-355.354 201.582 -241.997 148.049 -177.437 159.395C-112.877 170.74 -45.467 256.039 -48.3537 322.734C-51.2403 389.428 -126.733 490.872 -191.293 479.527" stroke="#949494" stroke-width="2"/>
</g>
<defs>
<clipPath id="clip0_500_737">
<rect width="869.465" height="848.132" fill="white" transform="translate(370 115.124) rotate(117.234)"/>
</clipPath>
</defs>
</svg>
