<svg width="40" height="40" viewBox="0 0 40 40" fill="none" xmlns="http://www.w3.org/2000/svg">
<path d="M20.0007 19.1668C18.8956 19.1668 17.8358 18.7278 17.0544 17.9464C16.273 17.165 15.834 16.1052 15.834 15.0002C15.834 13.8951 16.273 12.8353 17.0544 12.0539C17.8358 11.2725 18.8956 10.8335 20.0007 10.8335C21.1057 10.8335 22.1655 11.2725 22.9469 12.0539C23.7283 12.8353 24.1673 13.8951 24.1673 15.0002C24.1673 15.5473 24.0595 16.0892 23.8502 16.5947C23.6408 17.1002 23.3338 17.5595 22.9469 17.9464C22.56 18.3334 22.1007 18.6403 21.5952 18.8497C21.0896 19.0591 20.5478 19.1668 20.0007 19.1668ZM20.0007 3.3335C16.9065 3.3335 13.939 4.56266 11.7511 6.75058C9.56315 8.93851 8.33398 11.906 8.33398 15.0002C8.33398 23.7502 20.0007 36.6668 20.0007 36.6668C20.0007 36.6668 31.6673 23.7502 31.6673 15.0002C31.6673 11.906 30.4382 8.93851 28.2502 6.75058C26.0623 4.56266 23.0948 3.3335 20.0007 3.3335Z" fill="#525252"/>
</svg>
