<svg width="24" height="24" viewBox="0 0 24 24" fill="none" xmlns="http://www.w3.org/2000/svg">
<path d="M11.421 15.17L17.251 21C17.751 21.484 18.4212 21.7521 19.1171 21.7465C19.8129 21.7408 20.4787 21.4619 20.9708 20.9698C21.4628 20.4777 21.7418 19.812 21.7474 19.1161C21.7531 18.4202 21.485 17.75 21.001 17.25L15.124 11.373M11.421 15.17L13.917 12.14C14.234 11.756 14.657 11.514 15.125 11.374C15.675 11.21 16.288 11.186 16.868 11.234C17.6498 11.3011 18.4356 11.1627 19.1474 10.8323C19.8592 10.502 20.4722 9.99124 20.9256 9.35081C21.3791 8.71037 21.6571 7.9625 21.7323 7.1814C21.8074 6.4003 21.677 5.61313 21.354 4.898L18.078 8.175C17.5299 8.04826 17.0284 7.77016 16.6306 7.37238C16.2328 6.97459 15.9547 6.4731 15.828 5.925L19.104 2.649C18.3888 2.32596 17.6017 2.19554 16.8206 2.27068C16.0395 2.34582 15.2916 2.62391 14.6512 3.07735C14.0107 3.53079 13.5 4.14381 13.1697 4.8556C12.8393 5.56738 12.7008 6.35317 12.768 7.135C12.859 8.211 12.697 9.399 11.864 10.085L11.762 10.17M11.421 15.17L6.76597 20.823C6.54036 21.098 6.25967 21.3227 5.94197 21.4827C5.62426 21.6427 5.27658 21.7344 4.9213 21.7518C4.56603 21.7693 4.21102 21.7122 3.87914 21.5842C3.54726 21.4562 3.24586 21.2602 2.99434 21.0086C2.74282 20.7571 2.54674 20.4557 2.41874 20.1238C2.29074 19.792 2.23364 19.4369 2.25113 19.0817C2.26861 18.7264 2.36029 18.3787 2.52027 18.061C2.68024 17.7433 2.90497 17.4626 3.17997 17.237L10.017 11.607L5.90997 7.5H4.50097L2.25097 3.75L3.75097 2.25L7.50097 4.5V5.909L11.761 10.169L10.016 11.606M18.376 18.375L15.751 15.75M4.86797 19.125H4.87597V19.133H4.86797V19.125Z" stroke="url(#paint0_linear_1343_953)" stroke-width="1.5" stroke-linecap="round" stroke-linejoin="round"/>
<defs>
<linearGradient id="paint0_linear_1343_953" x1="20.7387" y1="21.7549" x2="2.62044" y2="20.8449" gradientUnits="userSpaceOnUse">
<stop stop-color="#AE00FE"/>
<stop offset="1" stop-color="#652BB7"/>
</linearGradient>
</defs>
</svg>
