<svg width="40" height="40" viewBox="0 0 40 40" fill="none" xmlns="http://www.w3.org/2000/svg">
<path fill-rule="evenodd" clip-rule="evenodd" d="M13.75 11.25C13.75 9.5924 14.4085 8.00268 15.5806 6.83058C16.7527 5.65848 18.3424 5 20 5C21.6576 5 23.2473 5.65848 24.4194 6.83058C25.5915 8.00268 26.25 9.5924 26.25 11.25C26.25 12.9076 25.5915 14.4973 24.4194 15.6694C23.2473 16.8415 21.6576 17.5 20 17.5C18.3424 17.5 16.7527 16.8415 15.5806 15.6694C14.4085 14.4973 13.75 12.9076 13.75 11.25ZM26.25 16.25C26.25 14.9239 26.7768 13.6521 27.7145 12.7145C28.6521 11.7768 29.9239 11.25 31.25 11.25C32.5761 11.25 33.8479 11.7768 34.7855 12.7145C35.7232 13.6521 36.25 14.9239 36.25 16.25C36.25 17.5761 35.7232 18.8479 34.7855 19.7855C33.8479 20.7232 32.5761 21.25 31.25 21.25C29.9239 21.25 28.6521 20.7232 27.7145 19.7855C26.7768 18.8479 26.25 17.5761 26.25 16.25ZM3.75 16.25C3.75 14.9239 4.27678 13.6521 5.21447 12.7145C6.15215 11.7768 7.42392 11.25 8.75 11.25C10.0761 11.25 11.3479 11.7768 12.2855 12.7145C13.2232 13.6521 13.75 14.9239 13.75 16.25C13.75 17.5761 13.2232 18.8479 12.2855 19.7855C11.3479 20.7232 10.0761 21.25 8.75 21.25C7.42392 21.25 6.15215 20.7232 5.21447 19.7855C4.27678 18.8479 3.75 17.5761 3.75 16.25ZM10.5167 25.195C11.5332 23.6017 12.9351 22.2904 14.5927 21.3824C16.2503 20.4744 18.11 19.9989 20 20C21.583 19.9986 23.1485 20.3315 24.594 20.9769C26.0395 21.6224 27.3323 22.5659 28.3879 23.7456C29.4435 24.9253 30.238 26.3147 30.7194 27.8227C31.2009 29.3308 31.3584 30.9235 31.1817 32.4967C31.1601 32.6921 31.0927 32.8797 30.9849 33.0442C30.8772 33.2087 30.7322 33.3454 30.5617 33.4433C27.3476 35.2875 23.7056 36.2554 20 36.25C16.1583 36.25 12.55 35.23 9.43833 33.4433C9.26782 33.3454 9.1228 33.2087 9.01507 33.0442C8.90734 32.8797 8.83994 32.6921 8.81833 32.4967C8.53842 29.941 9.13743 27.3663 10.5167 25.1967V25.195Z" fill="#525252"/>
<path d="M8.47013 23.7568C6.82639 26.2941 6.06056 29.3007 6.29013 32.3152C5.28931 32.1634 4.30498 31.9179 3.35013 31.5818L3.15847 31.5152C2.98746 31.4545 2.83772 31.3455 2.72738 31.2014C2.61704 31.0574 2.55085 30.8844 2.5368 30.7035L2.52013 30.5018C2.45281 29.6651 2.55473 28.8234 2.81981 28.0269C3.08489 27.2304 3.5077 26.4955 4.06301 25.866C4.61832 25.2365 5.29475 24.7253 6.05193 24.3629C6.80912 24.0006 7.63154 23.7944 8.47013 23.7568ZM33.7101 32.3152C33.9397 29.3007 33.1739 26.2941 31.5301 23.7568C32.3687 23.7944 33.1912 24.0006 33.9483 24.3629C34.7055 24.7253 35.382 25.2365 35.9373 25.866C36.4926 26.4955 36.9154 27.2304 37.1805 28.0269C37.4455 28.8234 37.5475 29.6651 37.4801 30.5018L37.4635 30.7035C37.4491 30.8841 37.3828 31.0567 37.2725 31.2005C37.1621 31.3442 37.0126 31.4529 36.8418 31.5135L36.6501 31.5802C35.7051 31.9135 34.7235 32.1618 33.7101 32.3152Z" fill="#525252"/>
</svg>
