<svg width="51" height="51" viewBox="0 0 51 51" fill="none" xmlns="http://www.w3.org/2000/svg">
<path fill-rule="evenodd" clip-rule="evenodd" d="M17.2227 14.1675C17.2227 12.0955 18.0458 10.1083 19.5109 8.64321C20.976 7.17808 22.9632 6.35498 25.0352 6.35498C27.1072 6.35498 29.0943 7.17808 30.5594 8.64321C32.0246 10.1083 32.8477 12.0955 32.8477 14.1675C32.8477 16.2395 32.0246 18.2266 30.5594 19.6918C29.0943 21.1569 27.1072 21.98 25.0352 21.98C22.9632 21.98 20.976 21.1569 19.5109 19.6918C18.0458 18.2266 17.2227 16.2395 17.2227 14.1675ZM32.8477 20.4175C32.8477 18.7599 33.5061 17.1702 34.6782 15.9981C35.8503 14.826 37.4401 14.1675 39.0977 14.1675C40.7553 14.1675 42.345 14.826 43.5171 15.9981C44.6892 17.1702 45.3477 18.7599 45.3477 20.4175C45.3477 22.0751 44.6892 23.6648 43.5171 24.8369C42.345 26.009 40.7553 26.6675 39.0977 26.6675C37.4401 26.6675 35.8503 26.009 34.6782 24.8369C33.5061 23.6648 32.8477 22.0751 32.8477 20.4175ZM4.72266 20.4175C4.72266 18.7599 5.38114 17.1702 6.55324 15.9981C7.72534 14.826 9.31505 14.1675 10.9727 14.1675C12.6303 14.1675 14.22 14.826 15.3921 15.9981C16.5642 17.1702 17.2227 18.7599 17.2227 20.4175C17.2227 22.0751 16.5642 23.6648 15.3921 24.8369C14.22 26.009 12.6303 26.6675 10.9727 26.6675C9.31505 26.6675 7.72534 26.009 6.55324 24.8369C5.38114 23.6648 4.72266 22.0751 4.72266 20.4175ZM13.181 31.5987C14.4517 29.6071 16.2041 27.968 18.276 26.833C20.348 25.698 22.6727 25.1036 25.0352 25.105C27.0139 25.1032 28.9708 25.5193 30.7776 26.3261C32.5845 27.133 34.2005 28.3123 35.52 29.787C36.8395 31.2617 37.8326 32.9984 38.4344 34.8834C39.0363 36.7685 39.2331 38.7594 39.0122 40.7258C38.9852 40.9701 38.901 41.2046 38.7663 41.4102C38.6317 41.6158 38.4504 41.7868 38.2372 41.9091C34.2197 44.2144 29.6671 45.4242 25.0352 45.4175C20.2331 45.4175 15.7227 44.1425 11.8331 41.9091C11.6199 41.7868 11.4387 41.6158 11.304 41.4102C11.1693 41.2046 11.0851 40.9701 11.0581 40.7258C10.7082 37.5313 11.4569 34.3129 13.181 31.6008V31.5987Z" fill="url(#paint0_linear_640_4959)"/>
<path d="M10.6228 29.8008C8.56815 32.9724 7.61085 36.7306 7.89782 40.4987C6.6468 40.309 5.41638 40.0021 4.22282 39.582L3.98324 39.4987C3.76948 39.4228 3.58231 39.2866 3.44438 39.1065C3.30646 38.9265 3.22371 38.7103 3.20616 38.4841L3.18532 38.232C3.10117 37.1861 3.22857 36.134 3.55992 35.1384C3.89127 34.1428 4.41978 33.2241 5.11392 32.4372C5.80805 31.6504 6.65359 31.0114 7.60007 30.5584C8.54655 30.1054 9.57459 29.8478 10.6228 29.8008ZM42.1728 40.4987C42.4598 36.7306 41.5025 32.9724 39.4478 29.8008C40.4961 29.8478 41.5241 30.1054 42.4706 30.5584C43.4171 31.0114 44.2626 31.6504 44.9567 32.4372C45.6509 33.2241 46.1794 34.1428 46.5107 35.1384C46.8421 36.134 46.9695 37.1861 46.8853 38.232L46.8645 38.4841C46.8465 38.7099 46.7636 38.9256 46.6257 39.1053C46.4878 39.285 46.3009 39.4209 46.0874 39.4966L45.8478 39.5799C44.6666 39.9966 43.4395 40.307 42.1728 40.4987Z" fill="url(#paint1_linear_640_4959)"/>
<defs>
<linearGradient id="paint0_linear_640_4959" x1="43.2352" y1="45.4175" x2="5.50603" y2="43.4466" gradientUnits="userSpaceOnUse">
<stop stop-color="#AE00FE"/>
<stop offset="1" stop-color="#652BB7"/>
</linearGradient>
<linearGradient id="paint1_linear_640_4959" x1="44.6355" y1="40.4987" x2="5.54246" y2="32.4684" gradientUnits="userSpaceOnUse">
<stop stop-color="#AE00FE"/>
<stop offset="1" stop-color="#652BB7"/>
</linearGradient>
</defs>
</svg>
