<svg width="50" height="50" viewBox="0 0 50 50" fill="none" xmlns="http://www.w3.org/2000/svg">
<path fill-rule="evenodd" clip-rule="evenodd" d="M25 4.6875C13.7812 4.6875 4.6875 13.7812 4.6875 25C4.6875 36.2188 13.7812 45.3125 25 45.3125C36.2188 45.3125 45.3125 36.2188 45.3125 25C45.3125 13.7812 36.2188 4.6875 25 4.6875ZM26.5625 18.75C26.5625 18.3356 26.3979 17.9382 26.1049 17.6451C25.8118 17.3521 25.4144 17.1875 25 17.1875C24.5856 17.1875 24.1882 17.3521 23.8951 17.6451C23.6021 17.9382 23.4375 18.3356 23.4375 18.75V23.4375H18.75C18.3356 23.4375 17.9382 23.6021 17.6451 23.8951C17.3521 24.1882 17.1875 24.5856 17.1875 25C17.1875 25.4144 17.3521 25.8118 17.6451 26.1049C17.9382 26.3979 18.3356 26.5625 18.75 26.5625H23.4375V31.25C23.4375 31.6644 23.6021 32.0618 23.8951 32.3549C24.1882 32.6479 24.5856 32.8125 25 32.8125C25.4144 32.8125 25.8118 32.6479 26.1049 32.3549C26.3979 32.0618 26.5625 31.6644 26.5625 31.25V26.5625H31.25C31.6644 26.5625 32.0618 26.3979 32.3549 26.1049C32.6479 25.8118 32.8125 25.4144 32.8125 25C32.8125 24.5856 32.6479 24.1882 32.3549 23.8951C32.0618 23.6021 31.6644 23.4375 31.25 23.4375H26.5625V18.75Z" fill="url(#paint0_linear_640_4819)"/>
<defs>
<linearGradient id="paint0_linear_640_4819" x1="43.2" y1="45.3125" x2="5.46313" y2="43.417" gradientUnits="userSpaceOnUse">
<stop stop-color="#AE00FE"/>
<stop offset="1" stop-color="#652BB7"/>
</linearGradient>
</defs>
</svg>
