<svg width="24" height="24" viewBox="0 0 24 24" fill="none" xmlns="http://www.w3.org/2000/svg">
<path d="M12 18.75C13.5913 18.75 15.1174 18.1179 16.2426 16.9926C17.3679 15.8674 18 14.3413 18 12.75V11.25M12 18.75C10.4087 18.75 8.88258 18.1179 7.75736 16.9926C6.63214 15.8674 6 14.3413 6 12.75V11.25M12 18.75V22.5M8.25 22.5H15.75M12 15.75C11.2044 15.75 10.4413 15.4339 9.87868 14.8713C9.31607 14.3087 9 13.5456 9 12.75V4.5C9 3.70435 9.31607 2.94129 9.87868 2.37868C10.4413 1.81607 11.2044 1.5 12 1.5C12.7956 1.5 13.5587 1.81607 14.1213 2.37868C14.6839 2.94129 15 3.70435 15 4.5V12.75C15 13.5456 14.6839 14.3087 14.1213 14.8713C13.5587 15.4339 12.7956 15.75 12 15.75Z" stroke="url(#paint0_linear_1343_956)" stroke-width="1.5" stroke-linecap="round" stroke-linejoin="round"/>
<defs>
<linearGradient id="paint0_linear_1343_956" x1="17.376" y1="22.5" x2="6.21018" y2="22.1795" gradientUnits="userSpaceOnUse">
<stop stop-color="#AE00FE"/>
<stop offset="1" stop-color="#652BB7"/>
</linearGradient>
</defs>
</svg>
