<svg width="51" height="51" viewBox="0 0 51 51" fill="none" xmlns="http://www.w3.org/2000/svg">
<path d="M23.4727 11.2237C23.4727 10.4841 23.0852 9.8154 22.6372 9.22581C22.1708 8.62867 21.9151 7.89393 21.9102 7.13623C21.9102 4.9779 24.0081 3.22998 26.5977 3.22998C29.1872 3.22998 31.2852 4.97998 31.2852 7.13623C31.2852 7.90498 31.0185 8.62165 30.5581 9.22581C30.1102 9.8154 29.7227 10.4841 29.7227 11.2237C29.7227 11.9154 30.3018 12.4696 30.9935 12.4279C34.9727 12.1904 38.8893 11.7154 42.7268 11.0196C42.9358 10.9817 43.1504 10.9868 43.3574 11.0346C43.5644 11.0825 43.7594 11.172 43.9306 11.2978C44.1018 11.4235 44.2456 11.5829 44.3531 11.7661C44.4606 11.9493 44.5297 12.1525 44.556 12.3633C45.0275 16.132 45.289 19.9239 45.3393 23.7216C45.3413 23.9031 45.3071 24.0832 45.2388 24.2514C45.1705 24.4195 45.0694 24.5724 44.9414 24.7012C44.8135 24.8299 44.6612 24.9319 44.4934 25.0012C44.3257 25.0705 44.1458 25.1058 43.9643 25.105C43.2268 25.105 42.5581 24.7175 41.9685 24.2696C41.3713 23.8031 40.6366 23.5475 39.8789 23.5425C37.7227 23.5425 35.9727 25.6404 35.9727 28.23C35.9727 30.8196 37.7227 32.9175 39.8789 32.9175C40.6477 32.9175 41.3643 32.6508 41.9685 32.1904C42.5581 31.7425 43.2268 31.355 43.9664 31.355C44.6122 31.355 45.1268 31.9008 45.0789 32.5446C44.8344 35.9277 44.4207 39.2965 43.8393 42.6383C43.7841 42.9552 43.6324 43.2473 43.4049 43.4747C43.1775 43.7022 42.8854 43.8539 42.5685 43.9091C38.7768 44.5696 34.9164 45.0196 30.9956 45.2466C30.8314 45.2554 30.6671 45.2306 30.5128 45.1737C30.3585 45.1168 30.2175 45.029 30.0983 44.9157C29.9792 44.8024 29.8844 44.6659 29.8198 44.5147C29.7552 44.3635 29.7221 44.2007 29.7227 44.0362C29.7227 43.2966 30.1102 42.6279 30.5581 42.0383C31.0185 41.4341 31.2852 40.7175 31.2852 39.9487C31.2852 37.7925 29.1872 36.0425 26.5977 36.0425C24.0081 36.0425 21.9102 37.7925 21.9102 39.9487C21.9102 40.7175 22.1768 41.4341 22.6372 42.0383C23.0852 42.6279 23.4727 43.2966 23.4727 44.0362C23.4733 44.215 23.438 44.392 23.3689 44.5569C23.2999 44.7217 23.1984 44.871 23.0706 44.996C22.9427 45.1209 22.7911 45.2189 22.6247 45.2841C22.4583 45.3494 22.2805 45.3806 22.1018 45.3758C18.8222 45.2832 15.549 45.0329 12.2935 44.6258C12.0827 44.5995 11.8795 44.5304 11.6963 44.4229C11.5131 44.3154 11.3537 44.1716 11.2279 44.0004C11.1022 43.8292 11.0126 43.6342 10.9648 43.4272C10.917 43.2202 10.9118 43.0057 10.9497 42.7966C11.5602 39.4341 11.9997 36.0112 12.2602 32.5383C12.2711 32.3866 12.2505 32.2343 12.1998 32.0909C12.1491 31.9475 12.0693 31.8162 11.9654 31.7051C11.8616 31.594 11.7359 31.5055 11.5962 31.4453C11.4566 31.385 11.306 31.3543 11.1539 31.355C10.4143 31.355 9.74557 31.7425 9.15599 32.1904C8.55182 32.6508 7.83516 32.9175 7.06641 32.9175C4.90807 32.9175 3.16016 30.8196 3.16016 28.23C3.16016 25.6404 4.91016 23.5425 7.06641 23.5425C7.83516 23.5425 8.55182 23.8091 9.15599 24.2696C9.74557 24.7175 10.4143 25.105 11.1539 25.105C11.3351 25.1058 11.5147 25.0706 11.6822 25.0014C11.8497 24.9322 12.0018 24.8303 12.1295 24.7018C12.2573 24.5732 12.3582 24.4206 12.4264 24.2527C12.4946 24.0848 12.5288 23.905 12.5268 23.7237C12.4812 20.3677 12.2657 17.0162 11.881 13.6821C11.8537 13.4482 11.8797 13.2112 11.9569 12.9888C12.0341 12.7664 12.1605 12.5643 12.3268 12.3976C12.4931 12.231 12.6949 12.104 12.9171 12.0263C13.1393 11.9485 13.3762 11.922 13.6102 11.9487C16.4081 12.2716 19.2414 12.4779 22.1039 12.5612C22.2823 12.566 22.4599 12.5348 22.626 12.4697C22.7922 12.4046 22.9435 12.3067 23.0712 12.182C23.1988 12.0573 23.3001 11.9082 23.3691 11.7436C23.4381 11.579 23.4733 11.4022 23.4727 11.2237Z" fill="url(#paint0_linear_640_4673)"/>
<defs>
<linearGradient id="paint0_linear_640_4673" x1="43.1461" y1="45.3763" x2="3.96561" y2="43.4068" gradientUnits="userSpaceOnUse">
<stop stop-color="#AE00FE"/>
<stop offset="1" stop-color="#652BB7"/>
</linearGradient>
</defs>
</svg>
