<svg width="38" height="38" viewBox="0 0 38 38" fill="none" xmlns="http://www.w3.org/2000/svg">
<path d="M18.1763 5.53961C18.2432 5.37626 18.3573 5.23652 18.5039 5.13817C18.6505 5.03982 18.8231 4.9873 18.9996 4.9873C19.1762 4.9873 19.3487 5.03982 19.4953 5.13817C19.6419 5.23652 19.756 5.37626 19.8229 5.53961L23.1875 13.632C23.2505 13.7834 23.354 13.9146 23.4867 14.0109C23.6194 14.1073 23.7761 14.1652 23.9396 14.1783L32.6764 14.8781C33.4665 14.9414 33.7864 15.9279 33.1847 16.4424L26.5284 22.1456C26.404 22.252 26.3113 22.3906 26.2605 22.5461C26.2097 22.7017 26.2026 22.8682 26.2402 23.0275L28.2748 31.5538C28.3157 31.7248 28.305 31.9042 28.244 32.0692C28.183 32.2341 28.0745 32.3773 27.9322 32.4807C27.7899 32.584 27.6201 32.6429 27.4444 32.6498C27.2686 32.6567 27.0948 32.6114 26.9448 32.5196L19.4635 27.9517C19.3238 27.8663 19.1633 27.8212 18.9996 27.8212C18.8359 27.8212 18.6754 27.8663 18.5357 27.9517L11.0544 32.5212C10.9044 32.613 10.7306 32.6583 10.5548 32.6514C10.3791 32.6445 10.2093 32.5856 10.067 32.4823C9.92471 32.3789 9.81621 32.2357 9.75524 32.0707C9.69427 31.9058 9.68355 31.7264 9.72444 31.5554L11.759 23.0275C11.7968 22.8682 11.7898 22.7016 11.739 22.546C11.6881 22.3904 11.5954 22.2519 11.4709 22.1456L4.81453 16.4424C4.68048 16.3282 4.58337 16.1767 4.53548 16.0072C4.48759 15.8377 4.49107 15.6578 4.5455 15.4903C4.59992 15.3228 4.70284 15.1752 4.84121 15.0662C4.97957 14.9572 5.14717 14.8918 5.32278 14.8781L14.0596 14.1783C14.2231 14.1652 14.3798 14.1073 14.5125 14.0109C14.6452 13.9146 14.7487 13.7834 14.8117 13.632L18.1763 5.53961Z" stroke="url(#paint0_linear_1237_2018)" stroke-width="1.5" stroke-linecap="round" stroke-linejoin="round"/>
<defs>
<linearGradient id="paint0_linear_1237_2018" x1="31.9895" y1="32.6521" x2="5.06222" y2="31.2345" gradientUnits="userSpaceOnUse">
<stop stop-color="#AE00FE"/>
<stop offset="1" stop-color="#652BB7"/>
</linearGradient>
</defs>
</svg>
