<svg width="51" height="51" viewBox="0 0 51 51" fill="none" xmlns="http://www.w3.org/2000/svg">
<path fill-rule="evenodd" clip-rule="evenodd" d="M10.9727 4.79199C9.31505 4.79199 7.72534 5.45047 6.55324 6.62257C5.38114 7.79468 4.72266 9.38439 4.72266 11.042V20.0378C4.72301 21.6953 5.38172 23.2847 6.55391 24.4566L26.5122 44.417C28.4289 46.3337 31.4914 46.8878 33.9039 45.3087C38.4214 42.3504 42.2803 38.4923 45.2393 33.9753C46.8185 31.5587 46.2643 28.4982 44.3477 26.5837L24.3893 6.62324C23.8088 6.04259 23.1196 5.582 22.3611 5.26778C21.6026 4.95357 20.7895 4.79189 19.9685 4.79199H10.9727ZM13.3164 15.7295C13.938 15.7295 14.5341 15.4826 14.9737 15.043C15.4132 14.6035 15.6602 14.0073 15.6602 13.3857C15.6602 12.7641 15.4132 12.168 14.9737 11.7285C14.5341 11.2889 13.938 11.042 13.3164 11.042C12.6948 11.042 12.0987 11.2889 11.6591 11.7285C11.2196 12.168 10.9727 12.7641 10.9727 13.3857C10.9727 14.0073 11.2196 14.6035 11.6591 15.043C12.0987 15.4826 12.6948 15.7295 13.3164 15.7295Z" fill="url(#paint0_linear_640_5640)"/>
<defs>
<linearGradient id="paint0_linear_640_5640" x1="44.0049" y1="46.229" x2="5.51379" y2="44.2957" gradientUnits="userSpaceOnUse">
<stop stop-color="#AE00FE"/>
<stop offset="1" stop-color="#652BB7"/>
</linearGradient>
</defs>
</svg>
