<svg width="35" height="35" viewBox="0 0 35 35" fill="none" xmlns="http://www.w3.org/2000/svg">
<path fill-rule="evenodd" clip-rule="evenodd" d="M7.65625 3.28125C6.49593 3.28125 5.38313 3.74219 4.56266 4.56266C3.74219 5.38313 3.28125 6.49593 3.28125 7.65625V13.9533C3.2815 15.1136 3.7426 16.2262 4.56312 17.0465L18.534 31.0187C19.8756 32.3604 22.0194 32.7483 23.7081 31.6429C26.8704 29.5722 29.5716 26.8715 31.6429 23.7096C32.7483 22.0179 32.3604 19.8756 31.0187 18.5354L17.0479 4.56312C16.6416 4.15667 16.1591 3.83425 15.6282 3.6143C15.0972 3.39435 14.5281 3.28118 13.9533 3.28125H7.65625ZM9.29687 10.9375C9.732 10.9375 10.1493 10.7646 10.457 10.457C10.7646 10.1493 10.9375 9.732 10.9375 9.29687C10.9375 8.86175 10.7646 8.44445 10.457 8.13678C10.1493 7.8291 9.732 7.65625 9.29687 7.65625C8.86175 7.65625 8.44445 7.8291 8.13678 8.13678C7.8291 8.44445 7.65625 8.86175 7.65625 9.29687C7.65625 9.732 7.8291 10.1493 8.13678 10.457C8.44445 10.7646 8.86175 10.9375 9.29687 10.9375Z" fill="url(#paint0_linear_587_2127)"/>
<defs>
<linearGradient id="paint0_linear_587_2127" x1="30.7788" y1="32.2872" x2="3.83504" y2="30.9338" gradientUnits="userSpaceOnUse">
<stop stop-color="#AE00FE"/>
<stop offset="1" stop-color="#652BB7"/>
</linearGradient>
</defs>
</svg>
