<svg width="51" height="51" viewBox="0 0 51 51" fill="none" xmlns="http://www.w3.org/2000/svg">
<path fill-rule="evenodd" clip-rule="evenodd" d="M25.0352 4.79199C13.8164 4.79199 4.72266 13.8857 4.72266 25.1045C4.72266 36.3232 13.8164 45.417 25.0352 45.417C36.2539 45.417 45.3477 36.3232 45.3477 25.1045C45.3477 13.8857 36.2539 4.79199 25.0352 4.79199ZM26.5977 12.6045C26.5977 12.1901 26.433 11.7927 26.14 11.4996C25.847 11.2066 25.4496 11.042 25.0352 11.042C24.6208 11.042 24.2233 11.2066 23.9303 11.4996C23.6373 11.7927 23.4727 12.1901 23.4727 12.6045V25.1045C23.4727 25.967 24.1727 26.667 25.0352 26.667H34.4102C34.8246 26.667 35.222 26.5024 35.515 26.2093C35.808 25.9163 35.9727 25.5189 35.9727 25.1045C35.9727 24.6901 35.808 24.2927 35.515 23.9996C35.222 23.7066 34.8246 23.542 34.4102 23.542H26.5977V12.6045Z" fill="url(#paint0_linear_640_5406)"/>
<defs>
<linearGradient id="paint0_linear_640_5406" x1="43.2352" y1="45.417" x2="5.49828" y2="43.5215" gradientUnits="userSpaceOnUse">
<stop stop-color="#AE00FE"/>
<stop offset="1" stop-color="#652BB7"/>
</linearGradient>
</defs>
</svg>
