<svg width="30" height="30" viewBox="0 0 30 30" fill="none" xmlns="http://www.w3.org/2000/svg">
<path fill-rule="evenodd" clip-rule="evenodd" d="M9.37488 7.5C9.37488 6.00816 9.96751 4.57742 11.0224 3.52252C12.0773 2.46763 13.508 1.875 14.9999 1.875C16.4917 1.875 17.9225 2.46763 18.9774 3.52252C20.0322 4.57742 20.6249 6.00816 20.6249 7.5C20.6249 8.99184 20.0322 10.4226 18.9774 11.4775C17.9225 12.5324 16.4917 13.125 14.9999 13.125C13.508 13.125 12.0773 12.5324 11.0224 11.4775C9.96751 10.4226 9.37488 8.99184 9.37488 7.5ZM4.68863 25.1312C4.73078 22.4243 5.83568 19.8426 7.76483 17.9432C9.69398 16.0439 12.2926 14.9793 14.9999 14.9793C17.7071 14.9793 20.3058 16.0439 22.2349 17.9432C24.1641 19.8426 25.269 22.4243 25.3111 25.1312C25.3144 25.3135 25.2644 25.4927 25.1674 25.647C25.0704 25.8013 24.9305 25.924 24.7649 26C21.7013 27.4046 18.3701 28.1296 14.9999 28.125C11.5174 28.125 8.20863 27.365 5.23488 26C5.06923 25.924 4.92934 25.8013 4.83233 25.647C4.73531 25.4927 4.68537 25.3135 4.68863 25.1312Z" fill="#000"/>
</svg>
