<svg width="281" height="357" viewBox="0 0 281 357" fill="none" xmlns="http://www.w3.org/2000/svg">
<path d="M0.175325 332.643L1.03017 24.2265C1.05452 17.9842 3.55338 12.0064 7.97851 7.60466C12.4036 3.2029 18.3936 0.736606 24.6344 0.746858L257.499 1.39262C263.739 1.417 269.716 3.9165 274.116 8.34274C278.517 12.769 280.982 18.7605 280.972 25.0028L280.117 333.419C280.093 339.662 277.594 345.639 273.169 350.041C268.744 354.443 262.754 356.909 256.513 356.899L23.6491 356.253C17.4083 356.229 11.4321 353.729 7.0314 349.303C2.63075 344.877 0.16507 338.885 0.175325 332.643Z" fill="#E6E6E6"/>
<path d="M18.2955 239.538L18.8451 41.2597C18.8678 35.4136 21.208 29.8152 25.3523 25.6928C29.4966 21.5703 35.1065 19.2606 40.9512 19.2704L241.078 19.8253C246.923 19.848 252.52 22.1887 256.642 26.334C260.763 30.4793 263.073 36.0907 263.063 41.937L262.303 316.386C262.28 322.232 259.939 327.83 255.795 331.953C251.65 336.075 246.04 338.385 240.195 338.375L116.221 338.031C90.1865 337.93 65.2554 327.503 46.8972 309.038C28.539 290.574 18.2529 265.579 18.2955 239.538Z" fill="white"/>
<path d="M218.147 106.366H62.0992C59.616 106.366 57.2345 105.379 55.4787 103.623C53.7228 101.866 52.7363 99.4843 52.7363 97.0005C52.7363 94.5167 53.7228 92.1346 55.4787 90.3783C57.2345 88.622 59.616 87.6353 62.0992 87.6353H218.147C220.63 87.6353 223.012 88.622 224.768 90.3783C226.523 92.1346 227.51 94.5167 227.51 97.0005C227.51 99.4843 226.523 101.866 224.768 103.623C223.012 105.379 220.63 106.366 218.147 106.366Z" fill="url(#paint0_linear_919_1137)"/>
<path d="M96.4297 63.1816H62.0992C59.616 63.1816 57.2345 62.195 55.4787 60.4386C53.7228 58.6823 52.7363 56.3002 52.7363 53.8164C52.7363 51.3326 53.7228 48.9505 55.4787 47.1942C57.2345 45.4379 59.616 44.4512 62.0992 44.4512H96.4297C98.9129 44.4512 101.294 45.4379 103.05 47.1942C104.806 48.9505 105.793 51.3326 105.793 53.8164C105.793 56.3002 104.806 58.6823 103.05 60.4386C101.294 62.195 98.9129 63.1816 96.4297 63.1816Z" fill="url(#paint1_linear_919_1137)"/>
<path d="M218.147 149.55H62.0992C59.616 149.55 57.2345 148.563 55.4787 146.807C53.7228 145.051 52.7363 142.668 52.7363 140.185C52.7363 137.701 53.7228 135.319 55.4787 133.562C57.2345 131.806 59.616 130.819 62.0992 130.819H218.147C220.63 130.819 223.012 131.806 224.768 133.562C226.523 135.319 227.51 137.701 227.51 140.185C227.51 142.668 226.523 145.051 224.768 146.807C223.012 148.563 220.63 149.55 218.147 149.55Z" fill="url(#paint2_linear_919_1137)"/>
<path d="M218.147 192.234H62.0992C59.7487 192.234 57.4944 191.3 55.8323 189.638C54.1701 187.975 53.2363 185.72 53.2363 183.369C53.2363 181.018 54.1701 178.763 55.8323 177.1C57.4944 175.438 59.7487 174.504 62.0992 174.504H218.147C220.498 174.504 222.752 175.438 224.414 177.1C226.076 178.763 227.01 181.018 227.01 183.369C227.01 185.72 226.076 187.975 224.414 189.638C222.752 191.3 220.498 192.234 218.147 192.234Z" fill="url(#paint3_linear_919_1137)" stroke="black"/>
<path d="M205.52 306.522C226.096 306.522 242.775 289.839 242.775 269.258C242.775 248.678 226.096 231.994 205.52 231.994C184.945 231.994 168.266 248.678 168.266 269.258C168.266 289.839 184.945 306.522 205.52 306.522Z" fill="url(#paint4_linear_919_1137)"/>
<path d="M200.438 288.652C199.795 288.652 199.161 288.503 198.585 288.215C198.01 287.927 197.509 287.509 197.123 286.994L186.96 273.439C186.632 273.003 186.394 272.508 186.258 271.98C186.123 271.452 186.093 270.903 186.169 270.364C186.246 269.825 186.428 269.306 186.706 268.837C186.983 268.368 187.35 267.958 187.786 267.632C188.221 267.305 188.717 267.067 189.245 266.932C189.772 266.797 190.322 266.767 190.861 266.845C191.4 266.922 191.918 267.105 192.387 267.383C192.855 267.661 193.264 268.029 193.59 268.465L200.24 277.332L217.318 251.709C217.619 251.254 218.007 250.863 218.459 250.559C218.912 250.254 219.42 250.042 219.954 249.934C220.489 249.826 221.039 249.825 221.574 249.93C222.109 250.036 222.618 250.246 223.072 250.548C223.526 250.851 223.915 251.24 224.218 251.694C224.521 252.147 224.732 252.656 224.838 253.191C224.944 253.726 224.944 254.277 224.837 254.811C224.73 255.346 224.518 255.855 224.214 256.308L203.887 286.806C203.519 287.358 203.025 287.813 202.445 288.134C201.865 288.455 201.216 288.632 200.554 288.651C200.515 288.652 200.477 288.652 200.438 288.652Z" fill="white"/>
<defs>
<linearGradient id="paint0_linear_919_1137" x1="218.422" y1="106.366" x2="84.9762" y2="43.8226" gradientUnits="userSpaceOnUse">
<stop stop-color="#AE00FE"/>
<stop offset="1" stop-color="#652BB7"/>
</linearGradient>
<linearGradient id="paint1_linear_919_1137" x1="103.034" y1="63.1816" x2="54.6053" y2="56.2914" gradientUnits="userSpaceOnUse">
<stop stop-color="#AE00FE"/>
<stop offset="1" stop-color="#652BB7"/>
</linearGradient>
<linearGradient id="paint2_linear_919_1137" x1="218.422" y1="149.55" x2="84.9762" y2="87.0068" gradientUnits="userSpaceOnUse">
<stop stop-color="#AE00FE"/>
<stop offset="1" stop-color="#652BB7"/>
</linearGradient>
<linearGradient id="paint3_linear_919_1137" x1="218.422" y1="192.734" x2="84.9762" y2="130.191" gradientUnits="userSpaceOnUse">
<stop stop-color="#AE00FE"/>
<stop offset="1" stop-color="#652BB7"/>
</linearGradient>
<linearGradient id="paint4_linear_919_1137" x1="238.901" y1="306.522" x2="169.688" y2="303.047" gradientUnits="userSpaceOnUse">
<stop stop-color="#AE00FE"/>
<stop offset="1" stop-color="#652BB7"/>
</linearGradient>
</defs>
</svg>
