<svg width="647" height="397" viewBox="0 0 647 397" fill="none" xmlns="http://www.w3.org/2000/svg">
<path d="M343.317 296.833C341.93 305.229 334.629 311.657 325.854 311.657C317.08 311.657 309.77 305.229 308.392 296.833H263.704V393.731H388.004V296.833L343.317 296.833Z" fill="#D9D9D9"/>
<path d="M278.151 393.371H265.867V395.542H278.151V393.371Z" fill="#B6B3C5"/>
<path d="M386.915 393.731H374.631V395.902H386.915V393.731Z" fill="#B6B3C5"/>
<path d="M575.833 299.365H75.8758C72.0526 299.365 68.9424 296.253 68.9424 292.427V6.93754C68.9424 3.1121 72.0526 0 75.8758 0H575.833C579.656 0 582.766 3.1121 582.766 6.93754V292.435C582.766 296.261 579.656 299.373 575.833 299.373L575.833 299.365Z" fill="#2F2E41"/>
<path d="M570.834 12.2915H81.5869V288.516H570.834V12.2915Z" fill="white"/>
<path d="M144.226 79.958H131.036C127.869 79.958 125.292 77.3391 125.292 74.1193V60.7117C125.292 57.4919 127.869 54.873 131.036 54.873H144.226C147.394 54.873 149.97 57.4919 149.97 60.7117V74.1193C149.97 77.3391 147.394 79.958 144.226 79.958Z" fill="url(#paint0_linear_555_1282)"/>
<path d="M205.334 79.958H192.144C188.977 79.958 186.4 77.3391 186.4 74.1193V60.7117C186.4 57.4919 188.977 54.873 192.144 54.873H205.334C208.502 54.873 211.078 57.4919 211.078 60.7117V74.1193C211.078 77.3391 208.502 79.958 205.334 79.958Z" fill="url(#paint1_linear_555_1282)"/>
<path d="M267.226 79.958H254.036C250.868 79.958 248.292 77.3391 248.292 74.1193V60.7117C248.292 57.4919 250.868 54.873 254.036 54.873H267.226C270.393 54.873 272.97 57.4919 272.97 60.7117V74.1193C272.97 77.3391 270.393 79.958 267.226 79.958Z" fill="url(#paint2_linear_555_1282)"/>
<path d="M329.9 79.958H316.71C313.543 79.958 310.966 77.3391 310.966 74.1193V60.7117C310.966 57.4919 313.543 54.873 316.71 54.873H329.9C333.068 54.873 335.644 57.4919 335.644 60.7117V74.1193C335.644 77.3391 333.068 79.958 329.9 79.958Z" fill="#D9D9D9"/>
<path d="M391.008 79.958H377.818C374.651 79.958 372.074 77.3391 372.074 74.1193V60.7117C372.074 57.4919 374.651 54.873 377.818 54.873H391.008C394.176 54.873 396.752 57.4919 396.752 60.7117V74.1193C396.752 77.3391 394.176 79.958 391.008 79.958Z" fill="#D9D9D9"/>
<path d="M452.9 79.958H439.71C436.542 79.958 433.966 77.3391 433.966 74.1193V60.7117C433.966 57.4919 436.542 54.873 439.71 54.873H452.9C456.068 54.873 458.644 57.4919 458.644 60.7117V74.1193C458.644 77.3391 456.068 79.958 452.9 79.958Z" fill="#D9D9D9"/>
<path d="M514.008 79.958H500.818C497.65 79.958 495.074 77.3391 495.074 74.1193V60.7117C495.074 57.4919 497.65 54.873 500.818 54.873H514.008C517.176 54.873 519.752 57.4919 519.752 60.7117V74.1193C519.752 77.3391 517.176 79.958 514.008 79.958Z" fill="#D9D9D9"/>
<path d="M144.226 127.776H131.036C127.869 127.776 125.292 125.157 125.292 121.937V108.53C125.292 105.31 127.869 102.691 131.036 102.691H144.226C147.394 102.691 149.97 105.31 149.97 108.53V121.937C149.97 125.157 147.394 127.776 144.226 127.776Z" fill="#D9D9D9"/>
<path d="M205.334 127.776H192.144C188.977 127.776 186.4 125.157 186.4 121.937V108.53C186.4 105.31 188.977 102.691 192.144 102.691H205.334C208.502 102.691 211.078 105.31 211.078 108.53V121.937C211.078 125.157 208.502 127.776 205.334 127.776Z" fill="#D9D9D9"/>
<path d="M267.226 127.776H254.036C250.868 127.776 248.292 125.157 248.292 121.937V108.53C248.292 105.31 250.868 102.691 254.036 102.691H267.226C270.393 102.691 272.97 105.31 272.97 108.53V121.937C272.97 125.157 270.393 127.776 267.226 127.776Z" fill="#D9D9D9"/>
<path d="M329.9 127.776H316.71C313.543 127.776 310.966 125.157 310.966 121.937V108.53C310.966 105.31 313.543 102.691 316.71 102.691H329.9C333.068 102.691 335.644 105.31 335.644 108.53V121.937C335.644 125.157 333.068 127.776 329.9 127.776Z" fill="#D9D9D9"/>
<path d="M391.008 127.776H377.818C374.651 127.776 372.074 125.157 372.074 121.937V108.53C372.074 105.31 374.651 102.691 377.818 102.691H391.008C394.176 102.691 396.752 105.31 396.752 108.53V121.937C396.752 125.157 394.176 127.776 391.008 127.776Z" fill="#D9D9D9"/>
<path d="M452.9 127.776H439.71C436.542 127.776 433.966 125.157 433.966 121.937V108.53C433.966 105.31 436.542 102.691 439.71 102.691H452.9C456.068 102.691 458.644 105.31 458.644 108.53V121.937C458.644 125.157 456.068 127.776 452.9 127.776Z" fill="#D9D9D9"/>
<path d="M514.008 127.776H500.818C497.65 127.776 495.074 125.157 495.074 121.937V108.53C495.074 105.31 497.65 102.691 500.818 102.691H514.008C517.176 102.691 519.752 105.31 519.752 108.53V121.937C519.752 125.157 517.176 127.776 514.008 127.776Z" fill="#D9D9D9"/>
<path d="M144.226 175.594H131.036C127.869 175.594 125.292 172.975 125.292 169.755V156.348C125.292 153.128 127.869 150.509 131.036 150.509H144.226C147.394 150.509 149.97 153.128 149.97 156.348V169.755C149.97 172.975 147.394 175.594 144.226 175.594Z" fill="#D9D9D9"/>
<path d="M205.334 175.594H192.144C188.977 175.594 186.4 172.975 186.4 169.755V156.348C186.4 153.128 188.977 150.509 192.144 150.509H205.334C208.502 150.509 211.078 153.128 211.078 156.348V169.755C211.078 172.975 208.502 175.594 205.334 175.594Z" fill="#D9D9D9"/>
<path d="M267.226 175.594H254.036C250.868 175.594 248.292 172.975 248.292 169.755V156.348C248.292 153.128 250.868 150.509 254.036 150.509H267.226C270.393 150.509 272.97 153.128 272.97 156.348V169.755C272.97 172.975 270.393 175.594 267.226 175.594Z" fill="#D9D9D9"/>
<path d="M329.9 175.594H316.71C313.543 175.594 310.966 172.975 310.966 169.755V156.348C310.966 153.128 313.543 150.509 316.71 150.509H329.9C333.068 150.509 335.644 153.128 335.644 156.348V169.755C335.644 172.975 333.068 175.594 329.9 175.594Z" fill="#D9D9D9"/>
<path d="M391.008 175.594H377.818C374.651 175.594 372.074 172.975 372.074 169.755V156.348C372.074 153.128 374.651 150.509 377.818 150.509H391.008C394.176 150.509 396.752 153.128 396.752 156.348V169.755C396.752 172.975 394.176 175.594 391.008 175.594Z" fill="#D9D9D9"/>
<path d="M452.9 175.594H439.71C436.542 175.594 433.966 172.975 433.966 169.755V156.348C433.966 153.128 436.542 150.509 439.71 150.509H452.9C456.068 150.509 458.644 153.128 458.644 156.348V169.755C458.644 172.975 456.068 175.594 452.9 175.594Z" fill="#D9D9D9"/>
<path d="M514.008 175.594H500.818C497.65 175.594 495.074 172.975 495.074 169.755V156.348C495.074 153.128 497.65 150.509 500.818 150.509H514.008C517.176 150.509 519.752 153.128 519.752 156.348V169.755C519.752 172.975 517.176 175.594 514.008 175.594Z" fill="#D9D9D9"/>
<path d="M209.434 110.687C212.463 110.687 214.918 108.23 214.918 105.199C214.918 102.169 212.463 99.7119 209.434 99.7119C206.405 99.7119 203.95 102.169 203.95 105.199C203.95 108.23 206.405 110.687 209.434 110.687Z" fill="#FF6363"/>
<defs>
<linearGradient id="paint0_linear_555_1282" x1="148.687" y1="79.958" x2="125.762" y2="78.8251" gradientUnits="userSpaceOnUse">
<stop stop-color="#AE00FE"/>
<stop offset="1" stop-color="#652BB7"/>
</linearGradient>
<linearGradient id="paint1_linear_555_1282" x1="209.795" y1="79.958" x2="186.869" y2="78.8251" gradientUnits="userSpaceOnUse">
<stop stop-color="#AE00FE"/>
<stop offset="1" stop-color="#652BB7"/>
</linearGradient>
<linearGradient id="paint2_linear_555_1282" x1="271.686" y1="79.958" x2="248.761" y2="78.8251" gradientUnits="userSpaceOnUse">
<stop stop-color="#AE00FE"/>
<stop offset="1" stop-color="#652BB7"/>
</linearGradient>
</defs>
</svg>
