<svg width="70" height="70" viewBox="0 0 70 70" fill="none" xmlns="http://www.w3.org/2000/svg">
<path d="M12.095 53.2504C11.5071 53.2597 10.9234 53.15 10.3776 52.9279C9.8319 52.7058 9.33512 52.3757 8.91623 51.9567C8.49733 51.5378 8.16469 51.0384 7.93765 50.4876C7.71062 49.9368 7.59374 49.3457 7.59381 48.7486C7.59388 48.1515 7.7109 47.5603 7.93807 47.0096C8.16524 46.4589 8.498 45.9596 8.917 45.5407C9.33599 45.1218 9.83284 44.7918 10.3786 44.5699C10.9244 44.3479 11.5082 44.2384 12.096 44.2478C13.2595 44.2663 14.3692 44.7488 15.1855 45.5911C16.0017 46.4333 16.4592 47.5678 16.459 48.7496C16.4589 49.9315 16.0012 51.0658 15.1847 51.9079C14.3682 52.75 13.2585 53.2322 12.095 53.2504ZM3.16943 69.5758V60.7558C3.16943 57.5751 5.7422 54.9906 8.87713 54.9906H14.9973C18.1322 54.9906 20.9322 57.5751 20.9322 60.7558V69.5758H3.16943ZM58.044 52.8687C59.2193 52.8673 60.346 52.3923 61.1768 51.5481C62.0076 50.7039 62.4747 49.5594 62.4756 48.3657C62.4886 47.7663 62.3836 47.1703 62.1667 46.6127C61.9499 46.0551 61.6255 45.5471 61.2127 45.1185C60.7999 44.6899 60.307 44.3494 59.7629 44.1169C59.2187 43.8844 58.6344 43.7646 58.044 43.7646C57.4537 43.7646 56.8693 43.8844 56.3252 44.1169C55.7811 44.3494 55.2882 44.6899 54.8754 45.1185C54.4626 45.5471 54.1382 46.0551 53.9214 46.6127C53.7045 47.1703 53.5995 47.7663 53.6125 48.3657C53.6134 49.5594 54.0805 50.7039 54.9113 51.5481C55.7421 52.3923 56.8688 52.8673 58.044 52.8687ZM66.9653 69.5758V60.7558C66.9653 57.5751 64.3925 54.9906 61.2554 54.9906H55.1417C52.0014 54.9906 49.2057 57.5751 49.2057 60.7558V69.5758H66.9653ZM35.0614 53.2264C32.5845 53.2264 30.5782 51.204 30.5782 48.7114C30.5782 46.2187 32.5845 44.1953 35.0614 44.1953C37.5362 44.1953 39.5425 46.2176 39.5425 48.7114C39.5425 51.2051 37.5373 53.2264 35.0614 53.2264ZM24.2653 69.5758L27.7933 59.814C29.2062 54.8276 33.3211 54.9818 33.3211 54.9818H36.8136C36.8136 54.9818 40.9264 54.8287 42.3414 59.814L45.8694 69.5758H24.2653ZM35.0614 38.4957V27.8153L33.3157 26.0423V36.7173H6.90636V2.75856H33.3157V20.2039L35.0614 21.9757V0.983398H5.16713V38.4947L35.0614 38.4957Z" fill="url(#paint0_linear_500_700)"/>
<path d="M19.8542 10.0572C20.4617 10.0309 21.0357 9.76719 21.4564 9.32128C21.8771 8.87537 22.1119 8.28168 22.1119 7.66412C22.1119 7.04656 21.8771 6.45287 21.4564 6.00696C21.0357 5.56105 20.4617 5.29738 19.8542 5.271C19.2293 5.271 18.63 5.52313 18.1881 5.97193C17.7462 6.42072 17.4979 7.02943 17.4979 7.66412C17.4979 8.29882 17.7462 8.90752 18.1881 9.35632C18.63 9.80511 19.2293 10.0572 19.8542 10.0572ZM27.635 20.0027C27.635 20.0027 25.7019 13.3341 25.6987 13.3287C24.9287 10.7332 22.7727 10.8108 22.7727 10.8108H16.9401C16.9401 10.8108 14.7809 10.7332 14.0119 13.3287L12.0789 20.0027C12.0389 20.1321 12.0247 20.2682 12.0371 20.4032C12.0495 20.5383 12.0882 20.6694 12.1511 20.789C12.214 20.9086 12.2997 21.0143 12.4033 21.0999C12.5068 21.1855 12.6261 21.2492 12.7542 21.2875C12.8823 21.3257 13.0166 21.3376 13.1493 21.3225C13.282 21.3074 13.4103 21.2657 13.5269 21.1996C13.6435 21.1336 13.746 21.0446 13.8283 20.9378C13.9107 20.8311 13.9713 20.7088 14.0065 20.578L15.8524 14.196L15.8567 14.1982L16.6795 14.196V21.4585L13.4304 32.7832C13.3702 32.9919 13.3586 33.2119 13.3967 33.4259C13.4348 33.6399 13.5215 33.842 13.6498 34.0161C13.7781 34.1901 13.9446 34.3315 14.1361 34.4288C14.3276 34.5262 14.5387 34.5769 14.7529 34.5769C15.3505 34.5769 15.9019 34.1799 16.0785 33.5696L19.2878 22.3871H20.4239L23.6332 33.5696C23.684 33.746 23.7686 33.9106 23.882 34.0539C23.9955 34.1971 24.1356 34.3163 24.2944 34.4046C24.4532 34.4928 24.6276 34.5484 24.8076 34.5683C24.9875 34.5881 25.1696 34.5717 25.3433 34.5201C25.5172 34.4685 25.6793 34.3827 25.8205 34.2676C25.9616 34.1524 26.0791 34.0101 26.1661 33.8488C26.2531 33.6875 26.308 33.5104 26.3276 33.3275C26.3471 33.1447 26.3311 32.9597 26.2802 32.7832L23.0312 21.464V14.1971L23.8539 14.1993L23.8582 14.1971L25.7062 20.5791C25.7814 20.8387 25.9549 21.0574 26.1888 21.1871C26.3046 21.2513 26.4317 21.2916 26.5629 21.3059C26.6941 21.3202 26.8267 21.3081 26.9533 21.2704C27.0799 21.2326 27.1979 21.1699 27.3006 21.0858C27.4033 21.0017 27.4887 20.8979 27.5519 20.7803C27.6151 20.6626 27.6549 20.5335 27.6689 20.4003C27.683 20.2671 27.6711 20.1324 27.6339 20.0038L27.635 20.0027ZM58.0236 18.9976C56.8669 18.9716 55.7662 18.4868 54.9572 17.6468C54.1481 16.8067 53.6951 15.6784 53.6951 14.5033C53.6951 13.3283 54.1481 12.1999 54.9572 11.3599C55.7662 10.5199 56.8669 10.035 58.0236 10.0091C58.6049 10.0087 59.1805 10.1247 59.7175 10.3506C60.2546 10.5765 60.7424 10.9078 61.1532 11.3255C61.564 11.7431 61.8895 12.239 62.1113 12.7847C62.333 13.3304 62.4466 13.9152 62.4455 14.5055C62.4465 15.0956 62.3328 15.6801 62.1109 16.2255C61.8891 16.7709 61.5634 17.2664 61.1526 17.6837C60.7418 18.101 60.254 18.4319 59.717 18.6574C59.1801 18.8828 58.6046 18.9984 58.0236 18.9976ZM58.0236 25.6815C58.0236 25.6815 59.0973 25.8226 59.7542 24.8983C60.3487 24.054 60.3929 21.2562 60.3972 20.7497H55.6458C55.6296 22.7633 55.8601 24.2312 56.3339 24.9705C56.8121 25.7252 58.0236 25.6826 58.0236 25.6826V25.6815Z" fill="url(#paint1_linear_500_700)"/>
<path d="M38.7424 29.6438C38.5798 29.915 38.3267 30.4663 38.3267 30.8141C38.3267 31.8641 39.1613 32.7074 40.1919 32.7074H46.3272C47.0239 32.7074 47.9393 32.4219 48.3302 31.8269C49.6495 29.8374 51.0441 27.7406 51.4555 27.1139V38.8958H66.9072V26.8131C66.9072 23.6533 64.4766 20.8084 61.6012 20.8084C61.6087 22.2916 61.4127 24.7547 60.5576 25.8331C59.6649 26.9345 58.6138 26.8383 58.6138 26.8383V31.4353C58.945 31.5726 59.2188 31.8226 59.3882 32.1426C59.5577 32.4625 59.6122 32.8324 59.5424 33.1887C59.4726 33.545 59.2828 33.8655 59.0057 34.0952C58.7285 34.3249 58.3813 34.4495 58.0236 34.4475C57.821 34.4477 57.6204 34.4072 57.4332 34.3285C57.246 34.2497 57.076 34.1342 56.9328 33.9886C56.7897 33.843 56.6762 33.6702 56.599 33.48C56.5217 33.2898 56.4821 33.0859 56.4826 32.8802C56.4826 32.2294 56.8724 31.6716 57.4302 31.4353V26.8175C57.4302 26.8175 56.5127 26.8941 55.6458 26.0114C54.4881 24.7864 54.445 21.3149 54.4472 20.7472H54.1661C53.2316 20.7461 52.3114 20.9799 51.4875 21.4276C50.6636 21.8753 49.9615 22.523 49.4438 23.3131L45.7704 28.9427L40.1973 28.9405L32.3272 20.9463C32.2571 20.8743 32.1736 20.8172 32.0817 20.7783C31.9897 20.7393 31.891 20.7192 31.7914 20.7192C31.6918 20.7192 31.5931 20.7393 31.5011 20.7783C31.4092 20.8172 31.3257 20.8743 31.2556 20.9463C31.1849 21.0176 31.1287 21.1025 31.0902 21.196C31.0518 21.2895 31.0319 21.3897 31.0317 21.491C31.0315 21.5923 31.051 21.6927 31.0891 21.7863C31.1271 21.88 31.183 21.9651 31.2535 22.0367L38.7435 29.6449L38.7424 29.6438Z" fill="url(#paint2_linear_500_700)"/>
<defs>
<linearGradient id="paint0_linear_500_700" x1="35.0674" y1="0.983398" x2="35.0674" y2="69.5758" gradientUnits="userSpaceOnUse">
<stop stop-color="#B01BEB"/>
<stop offset="1" stop-color="#652BB7"/>
</linearGradient>
<linearGradient id="paint1_linear_500_700" x1="37.2391" y1="5.271" x2="37.2391" y2="34.5769" gradientUnits="userSpaceOnUse">
<stop stop-color="#B01BEB"/>
<stop offset="1" stop-color="#652BB7"/>
</linearGradient>
<linearGradient id="paint2_linear_500_700" x1="48.9695" y1="20.7192" x2="48.9695" y2="38.8958" gradientUnits="userSpaceOnUse">
<stop stop-color="#B01BEB"/>
<stop offset="1" stop-color="#652BB7"/>
</linearGradient>
</defs>
</svg>
