<svg width="285" height="1140" viewBox="0 0 285 1140" fill="none" xmlns="http://www.w3.org/2000/svg">
<g opacity="0.5">
<path d="M217.077 702.201C139.575 573.798 235.621 320.417 341.515 254.199C447.408 187.98 647.865 255.95 725.367 384.353C802.869 512.757 819.418 804.316 713.524 870.534" stroke="#949494" stroke-width="2"/>
<path d="M229.127 696.17C155.148 573.603 246.828 331.739 347.908 268.531C448.988 205.323 640.333 270.203 714.312 392.77C788.292 515.337 804.088 793.643 703.008 856.851" stroke="#949494" stroke-width="2"/>
<path d="M241.177 690.139C170.721 573.409 258.035 343.063 354.302 282.864C450.569 222.666 632.802 284.457 703.258 401.187C773.715 517.917 788.76 782.971 692.493 843.169" stroke="#949494" stroke-width="2"/>
<path d="M253.227 684.108C186.293 573.214 269.242 354.385 360.695 297.197C452.149 240.008 625.271 298.71 692.204 409.603C759.138 520.497 773.43 772.298 681.977 829.486" stroke="#949494" stroke-width="2"/>
<path d="M265.277 678.077C201.866 573.02 280.449 365.708 367.089 311.53C453.729 257.351 617.739 312.963 681.15 418.02C744.561 523.077 758.101 761.626 671.46 815.804" stroke="#949494" stroke-width="2"/>
<path d="M277.327 672.046C217.439 572.825 291.656 377.031 373.483 325.862C455.31 274.694 610.208 327.216 670.096 426.436C729.984 525.657 742.772 750.953 660.945 802.121" stroke="#949494" stroke-width="2"/>
<path d="M289.376 666.015C233.011 572.631 302.863 388.354 379.876 340.195C456.89 292.037 602.676 341.469 659.042 434.853C715.407 528.238 727.442 740.28 650.429 788.439" stroke="#949494" stroke-width="2"/>
<path d="M301.426 659.984C248.584 572.436 314.07 399.677 386.27 354.528C458.47 309.379 595.145 355.722 647.987 443.27C700.829 530.817 712.113 729.608 639.913 774.756" stroke="#949494" stroke-width="2"/>
<path d="M313.476 653.953C264.157 572.242 325.277 411 392.664 368.861C460.051 326.722 587.614 369.976 636.933 451.687C686.253 533.398 696.784 718.935 629.397 761.074" stroke="#949494" stroke-width="2"/>
<path d="M325.526 647.922C279.729 572.047 336.484 422.322 399.057 383.193C461.631 344.065 580.082 384.229 625.879 460.103C671.676 535.978 681.455 708.263 618.881 747.392" stroke="#949494" stroke-width="2"/>
<path d="M337.576 641.891C295.302 571.853 347.691 433.646 405.451 397.527C463.211 361.407 572.551 398.482 614.825 468.52C657.099 538.558 666.126 697.59 608.366 733.709" stroke="#949494" stroke-width="2"/>
</g>
</svg>
