<svg width="577" height="445" viewBox="0 0 577 445" fill="none" xmlns="http://www.w3.org/2000/svg">
<path d="M533.74 407.697H128.805C125.197 407.693 121.738 406.258 119.186 403.707C116.635 401.155 115.2 397.696 115.196 394.088V64.3652C115.2 60.7572 116.635 57.2981 119.186 54.7468C121.738 52.1956 125.197 50.7604 128.805 50.7562H533.74C537.348 50.7604 540.808 52.1955 543.359 54.7468C545.91 57.2981 547.345 60.7572 547.349 64.3652V394.088C547.345 397.696 545.91 401.155 543.359 403.707C540.808 406.258 537.348 407.693 533.74 407.697Z" fill="#E6E6E6"/>
<path d="M137.986 60.4429C134.511 60.4469 131.179 61.8294 128.721 64.287C126.264 66.7446 124.881 70.0767 124.877 73.5523V384.909C124.882 388.385 126.264 391.716 128.721 394.174C131.179 396.631 134.511 398.014 137.986 398.018H415.149C447.632 397.981 478.775 385.061 501.744 362.091C524.713 339.122 537.633 307.98 537.67 275.497V73.5523C537.666 70.0767 536.284 66.7446 533.826 64.287C531.369 61.8294 528.037 60.4469 524.561 60.4429L137.986 60.4429Z" fill="white"/>
<path d="M459.9 200.474H386.476C384.944 200.472 383.476 199.863 382.393 198.78C381.31 197.697 380.701 196.229 380.7 194.698V158.153C380.701 156.622 381.31 155.154 382.393 154.071C383.476 152.988 384.944 152.379 386.476 152.377H459.9C461.431 152.379 462.9 152.988 463.982 154.071C465.065 155.154 465.674 156.622 465.676 158.153C470.219 171.086 470.865 183.374 465.676 194.698C465.674 196.229 465.065 197.698 463.982 198.78C462.9 199.863 461.431 200.472 459.9 200.474Z" fill="#E6E6E6"/>
<path d="M451.201 196.942H388.82C387.519 196.941 386.271 196.423 385.352 195.503C384.432 194.583 383.914 193.336 383.913 192.035V160.986C383.914 159.685 384.432 158.438 385.352 157.518C386.271 156.598 387.519 156.08 388.82 156.079H451.201C452.503 156.08 453.75 156.598 454.67 157.518C455.59 158.438 456.107 159.685 456.109 160.986C460.319 172.044 460.996 182.507 456.109 192.035C456.107 193.336 455.59 194.583 454.67 195.503C453.75 196.423 452.503 196.941 451.201 196.942Z" fill="white"/>
<path d="M447.837 219.617H398.375C396.92 219.619 395.524 219.043 394.494 218.016C393.463 216.989 392.883 215.595 392.88 214.14C392.877 212.685 393.452 211.288 394.479 210.257C395.506 209.226 396.9 208.645 398.355 208.642H447.837C449.291 208.645 450.684 209.224 451.711 210.253C452.738 211.282 453.314 212.676 453.314 214.129C453.314 215.583 452.738 216.977 451.711 218.006C450.684 219.035 449.291 219.614 447.837 219.617Z" fill="#E6E6E6"/>
<path d="M414.581 164.462C414.012 164.464 413.467 164.692 413.065 165.094C412.663 165.497 412.437 166.042 412.436 166.611V189.872C412.435 190.247 412.534 190.617 412.721 190.942C412.909 191.268 413.178 191.538 413.503 191.727C413.828 191.916 414.196 192.016 414.572 192.017C414.948 192.019 415.317 191.922 415.643 191.736L436.174 180.029C436.504 179.841 436.779 179.569 436.969 179.241C437.159 178.912 437.259 178.539 437.258 178.159C437.257 177.78 437.155 177.407 436.963 177.08C436.771 176.752 436.495 176.482 436.164 176.296L415.634 164.741C415.313 164.559 414.95 164.463 414.581 164.462Z" fill="#E6E6E6"/>
<path d="M425.383 155.694H423.383V12.651H502.04V14.651H425.383V155.694Z" fill="#3F3D56"/>
<path d="M563.212 0H510.212C506.765 0 503.458 1.36964 501.02 3.80762C498.582 6.24559 497.212 9.55219 497.212 13C497.212 16.4478 498.582 19.7544 501.02 22.1924C503.458 24.6304 506.765 26 510.212 26H563.212C566.66 26 569.967 24.6304 572.405 22.1924C574.843 19.7544 576.212 16.4478 576.212 13C576.212 9.55219 574.843 6.24559 572.405 3.80762C569.967 1.36964 566.66 0 563.212 0Z" fill="#6C63FF"/>
<path d="M563.212 0H510.212C506.765 0 503.458 1.36964 501.02 3.80762C498.582 6.24559 497.212 9.55219 497.212 13C497.212 16.4478 498.582 19.7544 501.02 22.1924C503.458 24.6304 506.765 26 510.212 26H563.212C566.66 26 569.967 24.6304 572.405 22.1924C574.843 19.7544 576.212 16.4478 576.212 13C576.212 9.55219 574.843 6.24559 572.405 3.80762C569.967 1.36964 566.66 0 563.212 0Z" fill="#6C63FF"/>
<path d="M563.212 0H510.212C506.765 0 503.458 1.36964 501.02 3.80762C498.582 6.24559 497.212 9.55219 497.212 13C497.212 16.4478 498.582 19.7544 501.02 22.1924C503.458 24.6304 506.765 26 510.212 26H563.212C566.66 26 569.967 24.6304 572.405 22.1924C574.843 19.7544 576.212 16.4478 576.212 13C576.212 9.55219 574.843 6.24559 572.405 3.80762C569.967 1.36964 566.66 0 563.212 0Z" fill="url(#paint0_linear_919_1138)"/>
<path d="M423.223 168.78C429.82 168.78 435.169 163.432 435.169 156.834C435.169 150.237 429.82 144.888 423.223 144.888C416.625 144.888 411.277 150.237 411.277 156.834C411.277 163.432 416.625 168.78 423.223 168.78Z" fill="#6C63FF"/>
<path d="M423.223 168.78C429.82 168.78 435.169 163.432 435.169 156.834C435.169 150.237 429.82 144.888 423.223 144.888C416.625 144.888 411.277 150.237 411.277 156.834C411.277 163.432 416.625 168.78 423.223 168.78Z" fill="url(#paint1_linear_919_1138)"/>
<path d="M279.272 201.722L331.678 189.595L346.72 186.114C348.602 185.679 347.82 182.782 345.938 183.217L293.532 195.344L278.489 198.826C276.608 199.261 277.389 202.158 279.272 201.722Z" fill="#F2F2F2"/>
<path d="M333.388 170.14L361.443 183.045C362.4 183.376 363.297 183.862 364.098 184.482C364.872 185.241 364.308 185.97 363.676 186.631C361.788 188.394 359.794 190.04 357.705 191.56L345.753 201.277C344.252 202.497 346.369 204.626 347.856 203.417L358.266 194.954L363.471 190.722C364.946 189.523 366.741 188.3 367.333 186.39C368.578 182.377 363.665 180.782 360.934 179.526L348.717 173.906L334.916 167.557C333.176 166.757 331.635 169.334 333.388 170.14Z" fill="#F2F2F2"/>
<path d="M252.341 198.622H189.475C186.556 198.619 183.758 197.458 181.695 195.395C179.631 193.331 178.47 190.533 178.467 187.615V146.182C178.47 143.264 179.631 140.466 181.695 138.402C183.758 136.339 186.556 135.178 189.475 135.174H252.341C255.259 135.178 258.057 136.339 260.121 138.402C262.184 140.466 263.345 143.264 263.349 146.182V187.615C263.345 190.533 262.184 193.331 260.121 195.395C258.057 197.458 255.259 198.619 252.341 198.622Z" fill="#E6E6E6"/>
<path d="M245.433 196.39H190.719C188.179 196.387 185.744 195.377 183.948 193.581C182.152 191.785 181.142 189.35 181.139 186.81V150.751C181.142 148.211 182.152 145.776 183.948 143.98C185.744 142.184 188.179 141.173 190.719 141.17H245.433C247.973 141.173 250.408 142.184 252.204 143.98C254 145.776 255.01 148.211 255.013 150.751V186.81C255.01 189.35 254 191.785 252.204 193.581C250.408 195.377 247.973 196.387 245.433 196.39Z" fill="white"/>
<path d="M261.196 235.951H180.53C180.032 235.95 179.554 235.751 179.202 235.398C178.85 235.045 178.652 234.567 178.652 234.068C178.652 233.57 178.85 233.092 179.202 232.739C179.554 232.386 180.032 232.187 180.53 232.186H261.196C261.694 232.187 262.172 232.386 262.524 232.739C262.876 233.092 263.074 233.57 263.074 234.068C263.074 234.567 262.876 235.045 262.524 235.398C262.172 235.751 261.694 235.95 261.196 235.951Z" fill="#E6E6E6"/>
<path d="M261.196 225.195H180.53C180.032 225.194 179.554 224.995 179.202 224.643C178.85 224.29 178.652 223.812 178.652 223.313C178.652 222.815 178.85 222.337 179.202 221.984C179.554 221.631 180.032 221.432 180.53 221.431H261.196C261.694 221.432 262.172 221.631 262.524 221.984C262.876 222.337 263.074 222.815 263.074 223.313C263.074 223.812 262.876 224.29 262.524 224.643C262.172 224.995 261.694 225.194 261.196 225.195Z" fill="#E6E6E6"/>
<path d="M261.196 246.706H180.53C180.031 246.706 179.552 246.508 179.199 246.155C178.846 245.802 178.648 245.323 178.648 244.824C178.648 244.325 178.846 243.846 179.199 243.493C179.552 243.14 180.031 242.942 180.53 242.942H261.196C261.695 242.942 262.174 243.14 262.527 243.493C262.88 243.846 263.078 244.325 263.078 244.824C263.078 245.323 262.88 245.802 262.527 246.155C262.174 246.508 261.695 246.706 261.196 246.706Z" fill="#E6E6E6"/>
<path d="M261.196 257.462H180.53C180.031 257.462 179.552 257.263 179.199 256.91C178.846 256.557 178.648 256.079 178.648 255.579C178.648 255.08 178.846 254.602 179.199 254.249C179.552 253.896 180.031 253.697 180.53 253.697H261.196C261.695 253.697 262.174 253.896 262.527 254.249C262.88 254.602 263.078 255.08 263.078 255.579C263.078 256.079 262.88 256.557 262.527 256.91C262.174 257.263 261.695 257.462 261.196 257.462Z" fill="#E6E6E6"/>
<path d="M261.196 268.217H180.53C180.031 268.217 179.552 268.019 179.199 267.666C178.846 267.313 178.648 266.834 178.648 266.335C178.648 265.836 178.846 265.357 179.199 265.004C179.552 264.651 180.031 264.453 180.53 264.453H261.196C261.695 264.453 262.174 264.651 262.527 265.004C262.88 265.357 263.078 265.836 263.078 266.335C263.078 266.834 262.88 267.313 262.527 267.666C262.174 268.019 261.695 268.217 261.196 268.217Z" fill="#E6E6E6"/>
<path d="M261.196 278.972H180.53C180.032 278.971 179.554 278.772 179.202 278.42C178.85 278.067 178.652 277.589 178.652 277.09C178.652 276.592 178.85 276.114 179.202 275.761C179.554 275.408 180.032 275.209 180.53 275.208H261.196C261.694 275.209 262.172 275.408 262.524 275.761C262.876 276.114 263.074 276.592 263.074 277.09C263.074 277.589 262.876 278.067 262.524 278.42C262.172 278.772 261.694 278.971 261.196 278.972Z" fill="#E6E6E6"/>
<path d="M216.83 254.306H218.83V331.349H74.1729V329.349H216.83V254.306Z" fill="#3F3D56"/>
<path d="M13 344H66C69.4478 344 72.7544 342.63 75.1924 340.192C77.6304 337.754 79 334.448 79 331C79 327.552 77.6304 324.246 75.1924 321.808C72.7544 319.37 69.4478 318 66 318H13C9.55219 318 6.24559 319.37 3.80762 321.808C1.36964 324.246 0 327.552 0 331C0 334.448 1.36964 337.754 3.80762 340.192C6.24559 342.63 9.55219 344 13 344Z" fill="#6C63FF"/>
<path d="M13 344H66C69.4478 344 72.7544 342.63 75.1924 340.192C77.6304 337.754 79 334.448 79 331C79 327.552 77.6304 324.246 75.1924 321.808C72.7544 319.37 69.4478 318 66 318H13C9.55219 318 6.24559 319.37 3.80762 321.808C1.36964 324.246 0 327.552 0 331C0 334.448 1.36964 337.754 3.80762 340.192C6.24559 342.63 9.55219 344 13 344Z" fill="url(#paint2_linear_919_1138)"/>
<path d="M219.223 260.112C225.82 260.112 231.169 254.763 231.169 248.166C231.169 241.568 225.82 236.22 219.223 236.22C212.625 236.22 207.277 241.568 207.277 248.166C207.277 254.763 212.625 260.112 219.223 260.112Z" fill="#6C63FF"/>
<path d="M219.223 260.112C225.82 260.112 231.169 254.763 231.169 248.166C231.169 241.568 225.82 236.22 219.223 236.22C212.625 236.22 207.277 241.568 207.277 248.166C207.277 254.763 212.625 260.112 219.223 260.112Z" fill="url(#paint3_linear_919_1138)"/>
<path d="M280.968 251.485C298.507 255.213 294.045 255.94 311.584 259.668L326.686 262.877C328.576 263.279 329.093 260.323 327.203 259.922C309.664 256.194 314.126 255.467 296.587 251.739L281.484 248.529C279.595 248.128 279.078 251.083 280.968 251.485Z" fill="#F2F2F2"/>
<path d="M321.364 242.763L341.324 266.325C342.052 267.03 342.659 267.85 343.122 268.751C343.503 269.766 342.683 270.188 341.831 270.519C339.375 271.318 336.871 271.966 334.335 272.459L319.394 276.207C317.519 276.678 318.536 279.502 320.394 279.036L333.408 275.772L339.914 274.139C341.758 273.677 343.902 273.328 345.247 271.848C348.072 268.739 344.295 265.214 342.353 262.921L333.66 252.66L323.841 241.069C322.603 239.608 320.117 241.291 321.364 242.763Z" fill="#F2F2F2"/>
<path d="M384.653 345.475C399.995 345.475 412.433 333.037 412.433 317.695C412.433 302.352 399.995 289.915 384.653 289.915C369.31 289.915 356.873 302.352 356.873 317.695C356.873 333.037 369.31 345.475 384.653 345.475Z" fill="#E6E6E6"/>
<path d="M381.945 341.933C393.608 341.933 403.064 332.478 403.064 320.814C403.064 309.15 393.608 299.694 381.945 299.694C370.281 299.694 360.825 309.15 360.825 320.814C360.825 332.478 370.281 341.933 381.945 341.933Z" fill="white"/>
<path d="M378.155 335.272C377.676 335.272 377.203 335.161 376.773 334.946C376.344 334.731 375.971 334.42 375.684 334.036L368.105 323.931C367.861 323.606 367.684 323.237 367.583 322.844C367.482 322.451 367.46 322.042 367.517 321.64C367.574 321.238 367.71 320.852 367.916 320.502C368.123 320.153 368.396 319.848 368.721 319.604C369.045 319.361 369.415 319.183 369.808 319.083C370.201 318.982 370.61 318.959 371.011 319.016C371.413 319.074 371.8 319.209 372.149 319.416C372.498 319.622 372.803 319.896 373.047 320.22L373.049 320.223L378.007 326.833L390.742 307.731C390.967 307.393 391.256 307.103 391.593 306.876C391.931 306.65 392.309 306.492 392.707 306.412C393.106 306.333 393.516 306.332 393.914 306.411C394.313 306.489 394.692 306.646 395.03 306.871C395.368 307.096 395.658 307.386 395.884 307.724C396.11 308.061 396.267 308.44 396.346 308.838C396.425 309.237 396.426 309.647 396.346 310.045C396.267 310.443 396.11 310.822 395.884 311.16L380.727 333.896C380.453 334.307 380.084 334.647 379.651 334.886C379.219 335.125 378.735 335.257 378.241 335.271C378.213 335.272 378.184 335.272 378.155 335.272Z" fill="#E6E6E6"/>
<path d="M384.412 355.068H382.412V432.111H450.069V430.111H384.412V355.068Z" fill="#3F3D56"/>
<path d="M524.242 431.762C524.238 428.315 522.868 425.011 520.43 422.573C517.993 420.136 514.689 418.766 511.242 418.762H458.242C454.794 418.762 451.487 420.132 449.049 422.57C446.611 425.008 445.242 428.314 445.242 431.762C445.242 435.21 446.611 438.517 449.049 440.955C451.487 443.393 454.794 444.762 458.242 444.762H511.242C514.689 444.759 517.993 443.388 520.43 440.951C522.868 438.514 524.238 435.209 524.242 431.762Z" fill="#6C63FF"/>
<path d="M524.242 431.762C524.238 428.315 522.868 425.011 520.43 422.573C517.993 420.136 514.689 418.766 511.242 418.762H458.242C454.794 418.762 451.487 420.132 449.049 422.57C446.611 425.008 445.242 428.314 445.242 431.762C445.242 435.21 446.611 438.517 449.049 440.955C451.487 443.393 454.794 444.762 458.242 444.762H511.242C514.689 444.759 517.993 443.388 520.43 440.951C522.868 438.514 524.238 435.209 524.242 431.762Z" fill="url(#paint4_linear_919_1138)"/>
<path d="M382.019 360.874C388.617 360.874 393.965 355.525 393.965 348.928C393.965 342.33 388.617 336.982 382.019 336.982C375.422 336.982 370.073 342.33 370.073 348.928C370.073 355.525 375.422 360.874 382.019 360.874Z" fill="#6C63FF"/>
<path d="M382.019 360.874C388.617 360.874 393.965 355.525 393.965 348.928C393.965 342.33 388.617 336.982 382.019 336.982C375.422 336.982 370.073 342.33 370.073 348.928C370.073 355.525 375.422 360.874 382.019 360.874Z" fill="url(#paint5_linear_919_1138)"/>
<defs>
<linearGradient id="paint0_linear_919_1138" x1="572.104" y1="26" x2="500.21" y2="15.0277" gradientUnits="userSpaceOnUse">
<stop stop-color="#AE00FE"/>
<stop offset="1" stop-color="#652BB7"/>
</linearGradient>
<linearGradient id="paint1_linear_919_1138" x1="433.926" y1="168.78" x2="411.733" y2="167.665" gradientUnits="userSpaceOnUse">
<stop stop-color="#AE00FE"/>
<stop offset="1" stop-color="#652BB7"/>
</linearGradient>
<linearGradient id="paint2_linear_919_1138" x1="74.892" y1="344" x2="2.99771" y2="333.028" gradientUnits="userSpaceOnUse">
<stop stop-color="#AE00FE"/>
<stop offset="1" stop-color="#652BB7"/>
</linearGradient>
<linearGradient id="paint3_linear_919_1138" x1="229.926" y1="260.112" x2="207.733" y2="258.997" gradientUnits="userSpaceOnUse">
<stop stop-color="#AE00FE"/>
<stop offset="1" stop-color="#652BB7"/>
</linearGradient>
<linearGradient id="paint4_linear_919_1138" x1="520.134" y1="444.762" x2="448.239" y2="433.79" gradientUnits="userSpaceOnUse">
<stop stop-color="#AE00FE"/>
<stop offset="1" stop-color="#652BB7"/>
</linearGradient>
<linearGradient id="paint5_linear_919_1138" x1="392.723" y1="360.874" x2="370.529" y2="359.759" gradientUnits="userSpaceOnUse">
<stop stop-color="#AE00FE"/>
<stop offset="1" stop-color="#652BB7"/>
</linearGradient>
</defs>
</svg>
