<svg width="16" height="23" viewBox="0 0 16 23" fill="none" xmlns="http://www.w3.org/2000/svg">
<path d="M13.9098 12.2067C12.8243 11.7927 11.6832 11.4897 10.5119 11.308C10.1433 11.2524 9.77476 11.4393 9.61317 11.7775L7.98743 15.1401L6.36668 11.7775C6.20509 11.4393 5.84161 11.2474 5.46798 11.308C4.3017 11.4897 3.15558 11.7927 2.07513 12.2067C0.838176 12.6813 0 13.9031 0 15.2562V21.2089C0 21.6784 0.37871 22.0621 0.853249 22.0621H15.1468C15.6163 22.0621 16 21.6834 16 21.2089V15.2562C15.99 13.9031 15.162 12.6813 13.9098 12.2067ZM14.2936 20.3556H14.2885H1.7015V15.2562C1.7015 14.6099 2.10036 14.0242 2.69111 13.8021C3.46868 13.4992 4.29163 13.272 5.12473 13.1003L7.23016 17.4676C7.3766 17.7655 7.6694 17.9523 7.99758 17.9523C8.32576 17.9523 8.62363 17.7655 8.76499 17.4676L10.8704 13.1003C11.7035 13.2619 12.5164 13.4992 13.304 13.8021C13.8948 14.0242 14.2937 14.6099 14.2937 15.2562V20.3556H14.2936Z" fill="url(#paint0_linear_686_2781)"/>
<path d="M7.9966 0.9375C5.57814 0.9375 3.61914 2.9015 3.61914 5.31488C3.61914 7.72827 5.58821 9.69234 7.9966 9.69234C10.41 9.69234 12.374 7.73335 12.374 5.31488C12.374 2.89642 10.4151 0.9375 7.9966 0.9375ZM7.9966 7.99592C6.5223 7.99592 5.33079 6.79426 5.33079 5.31996C5.33079 3.84565 6.52237 2.644 7.9966 2.644C9.47083 2.644 10.6726 3.84565 10.6726 5.31996C10.6726 6.79426 9.47091 7.99592 7.9966 7.99592Z" fill="url(#paint1_linear_686_2781)"/>
<defs>
<linearGradient id="paint0_linear_686_2781" x1="0" y1="16.6795" x2="16" y2="16.6795" gradientUnits="userSpaceOnUse">
<stop stop-color="#662DB5"/>
<stop offset="0.685" stop-color="#B01BEB"/>
</linearGradient>
<linearGradient id="paint1_linear_686_2781" x1="3.61914" y1="5.31492" x2="12.374" y2="5.31492" gradientUnits="userSpaceOnUse">
<stop stop-color="#662DB5"/>
<stop offset="0.685" stop-color="#B01BEB"/>
</linearGradient>
</defs>
</svg>
