<svg width="620" height="280" viewBox="0 0 620 280" fill="none" xmlns="http://www.w3.org/2000/svg">
<path d="M111.233 256.848V22.8585C111.233 10.5377 121.251 0.51416 133.565 0.51416H597.247C609.561 0.51416 619.579 10.5377 619.579 22.8585V256.848C619.579 269.169 609.561 279.193 597.247 279.193H133.565C121.251 279.193 111.233 269.169 111.233 256.848ZM617.315 22.8585C617.315 11.7693 608.33 2.77984 597.248 2.77984H133.565C122.482 2.77984 113.497 11.7696 113.497 22.859V256.848C113.497 267.938 122.482 276.927 133.565 276.927H448.955C541.937 276.927 617.315 201.506 617.315 108.468L617.315 22.8585Z" fill="#E6E6E6"/>
<path d="M274.59 43.0757H14.7185C7.01293 43.0757 0.74707 49.3452 0.74707 57.0553V152.576C0.74707 160.286 7.01293 166.555 14.7185 166.555H274.59C282.296 166.555 288.562 160.286 288.562 152.576V57.0553C288.562 49.3452 282.296 43.0757 274.59 43.0757Z" fill="white"/>
<path d="M274.59 43.0757H14.7185C7.01293 43.0757 0.74707 49.3452 0.74707 57.0553V152.576C0.74707 160.286 7.01293 166.555 14.7185 166.555H274.59C282.296 166.555 288.562 160.286 288.562 152.576V57.0553C288.562 49.3452 282.296 43.0757 274.59 43.0757ZM287.093 152.576C287.093 159.477 281.488 165.085 274.59 165.085H14.7185C7.82094 165.085 2.2162 159.477 2.2162 152.576V57.0553C2.2162 50.1537 7.82094 44.5457 14.7185 44.5457H274.59C281.488 44.5457 287.093 50.1537 287.093 57.0553V152.576Z" fill="#3F3D56"/>
<path d="M26.886 86.6099H257.849C260.038 86.6099 261.812 88.385 261.812 90.5748C261.812 92.7646 260.038 94.5398 257.849 94.5398H26.886C24.6975 94.5398 22.9233 92.7646 22.9233 90.5748C22.9233 88.385 24.6975 86.6099 26.886 86.6099Z" fill="url(#paint0_linear_922_1139)"/>
<path d="M26.886 112.665H110.667C112.855 112.665 114.629 114.44 114.629 116.63C114.629 118.82 112.855 120.595 110.667 120.595H26.886C24.6975 120.595 22.9233 118.82 22.9233 116.63C22.9233 114.44 24.6975 112.665 26.886 112.665Z" fill="url(#paint1_linear_922_1139)"/>
<path d="M531.216 74.4968H372.712C370.215 74.4968 368.183 72.464 368.183 69.9654C368.183 67.4669 370.215 65.4341 372.712 65.4341H531.216C533.713 65.4341 535.745 67.4669 535.745 69.9654C535.745 72.464 533.713 74.4968 531.216 74.4968Z" fill="#E6E6E6"/>
<path d="M561.265 172.769H340.399V171.636C413.121 182.795 486.817 181.877 561.265 171.636V172.769Z" fill="#E6E6E6"/>
<path d="M531.216 132.272H372.712C370.215 132.272 368.183 130.239 368.183 127.74C368.183 125.242 370.215 123.209 372.712 123.209H531.216C533.713 123.209 535.745 125.242 535.745 127.74C535.745 130.239 533.713 132.272 531.216 132.272Z" fill="#E6E6E6"/>
<path d="M562.397 187.495H341.531V188.628H562.397V187.495Z" fill="#E6E6E6"/>
<path d="M531.216 102.469H372.712C370.215 102.469 368.183 100.437 368.183 97.9381C368.183 95.4395 370.215 93.4067 372.712 93.4067H531.216C533.713 93.4067 535.745 95.4395 535.745 97.9381C535.745 100.437 533.713 102.469 531.216 102.469Z" fill="#E6E6E6"/>
<path d="M562.397 203.355C486.159 198.166 412.121 197.34 341.531 203.355V202.222H562.397V203.355Z" fill="#E6E6E6"/>
<path d="M257.583 184.921L248.266 180.504C252.087 185.841 255.38 194.175 257.143 200.807C260.128 194.63 264.94 187.07 269.703 182.555L259.856 185.09C265.924 155.333 288.748 133.97 314.884 133.97V131.704C287.584 131.704 263.779 153.962 257.583 184.921Z" fill="#3F3D56"/>
<path d="M300.469 230.261H241.596C239.099 230.261 237.067 228.229 237.067 225.73C237.067 223.232 239.099 221.199 241.596 221.199H300.469C302.966 221.199 304.998 223.232 304.998 225.73C304.998 228.229 302.966 230.261 300.469 230.261Z" fill="url(#paint2_linear_922_1139)"/>
<path d="M149.727 131.924C158.481 131.924 165.577 124.823 165.577 116.064C165.577 107.305 158.481 100.204 149.727 100.204C140.973 100.204 133.876 107.305 133.876 116.064C133.876 124.823 140.973 131.924 149.727 131.924Z" fill="url(#paint3_linear_922_1139)"/>
<path d="M157.971 106.777C157.216 106.335 156.063 106.564 155.648 107.386C153.764 111.121 151.88 114.855 149.996 118.59C148.476 116.208 146.532 114.128 144.276 112.384C143.55 111.823 142.374 112.274 141.953 112.994C141.44 113.872 141.834 114.756 142.562 115.319C145.192 117.352 147.22 120.084 148.586 123.1C149.105 124.246 150.977 124.174 151.519 123.1C153.873 118.434 156.227 113.768 158.581 109.102C158.994 108.283 158.797 107.26 157.971 106.777Z" fill="white"/>
<path d="M339.932 85.4769C348.686 85.4769 355.782 78.3762 355.782 69.6171C355.782 60.858 348.686 53.7573 339.932 53.7573C331.178 53.7573 324.082 60.858 324.082 69.6171C324.082 78.3762 331.178 85.4769 339.932 85.4769Z" fill="url(#paint4_linear_922_1139)"/>
<path d="M348.176 60.3301C347.421 59.888 346.268 60.1172 345.853 60.9397C343.969 64.6742 342.085 68.4087 340.201 72.1433C338.681 69.761 336.737 67.6809 334.481 65.9374C333.755 65.3759 332.579 65.8268 332.158 66.547C331.645 67.4249 332.039 68.3091 332.767 68.872C335.397 70.905 337.425 73.6375 338.791 76.6533C339.31 77.7997 341.182 77.7273 341.724 76.6533C344.078 71.9871 346.432 67.3211 348.786 62.655C349.199 61.8361 349.002 60.8132 348.176 60.3301Z" fill="white"/>
<path d="M567.499 111.533C576.253 111.533 583.349 104.432 583.349 95.6728C583.349 86.9137 576.253 79.813 567.499 79.813C558.745 79.813 551.648 86.9137 551.648 95.6728C551.648 104.432 558.745 111.533 567.499 111.533Z" fill="url(#paint5_linear_922_1139)"/>
<path d="M575.743 86.3857C574.988 85.9437 573.835 86.1729 573.42 86.9954C571.536 90.7299 569.652 94.4644 567.768 98.1989C566.248 95.8167 564.304 93.7366 562.048 91.9931C561.322 91.4316 560.146 91.8825 559.725 92.6027C559.212 93.4805 559.606 94.3647 560.334 94.9276C562.964 96.9606 564.992 99.6932 566.358 102.709C566.877 103.855 568.749 103.783 569.291 102.709C571.645 98.0428 573.999 93.3767 576.353 88.7107C576.766 87.8918 576.569 86.8689 575.743 86.3857Z" fill="white"/>
<path d="M212.241 194.888H174.063C171.692 194.888 169.764 192.958 169.764 190.586C164.716 175.824 164.816 161.358 169.764 147.172C169.764 144.801 171.692 142.871 174.063 142.871H212.241C214.611 142.871 216.54 144.801 216.54 147.172V190.586C216.54 192.958 214.611 194.888 212.241 194.888Z" fill="#E6E6E6"/>
<path d="M182.243 144.153C176.058 144.153 171.044 149.169 171.044 155.357V189.665C171.044 191.842 172.808 193.606 174.983 193.606H196.096C206.679 193.606 215.259 185.022 215.259 174.432V148.094C215.259 145.917 213.496 144.153 211.32 144.153H182.243Z" fill="white"/>
<path d="M202.043 156.769H184.168C183.718 156.769 183.351 156.402 183.351 155.951C183.351 155.501 183.718 155.134 184.168 155.134H202.043C202.494 155.134 202.86 155.501 202.86 155.951C202.86 156.402 202.494 156.769 202.043 156.769Z" fill="#E6E6E6"/>
<path d="M202.043 174.207H184.168C183.718 174.207 183.351 173.84 183.351 173.389C183.351 172.938 183.718 172.571 184.168 172.571H202.043C202.494 172.571 202.86 172.938 202.86 173.389C202.86 173.84 202.494 174.207 202.043 174.207Z" fill="#E6E6E6"/>
<path d="M211.635 165.493H174.577C174.126 165.493 173.759 165.126 173.759 164.676C173.759 164.225 174.126 163.858 174.577 163.858H211.635C212.085 163.858 212.452 164.225 212.452 164.676C212.452 165.126 212.085 165.493 211.635 165.493Z" fill="#E6E6E6"/>
<path d="M212.072 181.297H196.609C196.158 181.297 195.792 180.93 195.792 180.479C195.792 180.028 196.158 179.661 196.609 179.661H212.072C212.523 179.661 212.889 180.028 212.889 180.479C212.889 180.93 212.522 181.297 212.072 181.297Z" fill="#E6E6E6"/>
<defs>
<linearGradient id="paint0_linear_922_1139" x1="249.39" y1="94.5398" x2="181.762" y2="-7.7896" gradientUnits="userSpaceOnUse">
<stop stop-color="#AE00FE"/>
<stop offset="1" stop-color="#652BB7"/>
</linearGradient>
<linearGradient id="paint1_linear_922_1139" x1="109.861" y1="120.595" x2="46.0049" y2="83.503" gradientUnits="userSpaceOnUse">
<stop stop-color="#AE00FE"/>
<stop offset="1" stop-color="#652BB7"/>
</linearGradient>
<linearGradient id="paint2_linear_922_1139" x1="301.465" y1="230.261" x2="246.059" y2="209.401" gradientUnits="userSpaceOnUse">
<stop stop-color="#AE00FE"/>
<stop offset="1" stop-color="#652BB7"/>
</linearGradient>
<linearGradient id="paint3_linear_922_1139" x1="163.929" y1="131.924" x2="134.482" y2="130.445" gradientUnits="userSpaceOnUse">
<stop stop-color="#AE00FE"/>
<stop offset="1" stop-color="#652BB7"/>
</linearGradient>
<linearGradient id="paint4_linear_922_1139" x1="354.134" y1="85.4769" x2="324.687" y2="83.9987" gradientUnits="userSpaceOnUse">
<stop stop-color="#AE00FE"/>
<stop offset="1" stop-color="#652BB7"/>
</linearGradient>
<linearGradient id="paint5_linear_922_1139" x1="581.701" y1="111.533" x2="552.254" y2="110.054" gradientUnits="userSpaceOnUse">
<stop stop-color="#AE00FE"/>
<stop offset="1" stop-color="#652BB7"/>
</linearGradient>
</defs>
</svg>
