<svg width="24" height="25" viewBox="0 0 24 25" fill="none" xmlns="http://www.w3.org/2000/svg">
<path d="M11.4802 3.99921C11.5225 3.89605 11.5945 3.80779 11.6871 3.74567C11.7797 3.68356 11.8887 3.65039 12.0002 3.65039C12.1117 3.65039 12.2206 3.68356 12.3132 3.74567C12.4058 3.80779 12.4779 3.89605 12.5202 3.99921L14.6452 9.11021C14.6849 9.20585 14.7503 9.28866 14.8341 9.34953C14.9179 9.4104 15.0169 9.44697 15.1202 9.45521L20.6382 9.89721C21.1372 9.93721 21.3392 10.5602 20.9592 10.8852L16.7552 14.4872C16.6766 14.5544 16.6181 14.6419 16.586 14.7402C16.5539 14.8384 16.5494 14.9436 16.5732 15.0442L17.8582 20.4292C17.884 20.5373 17.8772 20.6505 17.8387 20.7547C17.8002 20.8589 17.7317 20.9494 17.6418 21.0146C17.5519 21.0799 17.4447 21.1171 17.3337 21.1214C17.2227 21.1258 17.1129 21.0972 17.0182 21.0392L12.2932 18.1542C12.2049 18.1003 12.1036 18.0718 12.0002 18.0718C11.8968 18.0718 11.7954 18.1003 11.7072 18.1542L6.98216 21.0402C6.88742 21.0982 6.77762 21.1268 6.66662 21.1224C6.55562 21.1181 6.44841 21.0809 6.35853 21.0156C6.26865 20.9504 6.20013 20.8599 6.16162 20.7557C6.12311 20.6515 6.11634 20.5383 6.14216 20.4302L7.42716 15.0442C7.451 14.9436 7.44661 14.8384 7.4145 14.7401C7.38239 14.6418 7.3238 14.5543 7.24516 14.4872L3.04116 10.8852C2.95651 10.813 2.89517 10.7174 2.86492 10.6103C2.83468 10.5033 2.83688 10.3897 2.87125 10.2839C2.90563 10.1781 2.97062 10.0849 3.05802 10.016C3.14541 9.94719 3.25126 9.90584 3.36216 9.89721L8.88016 9.45521C8.98341 9.44697 9.08239 9.4104 9.16619 9.34953C9.25 9.28866 9.31539 9.20585 9.35516 9.11021L11.4802 3.99921Z" stroke="url(#paint0_linear_686_2778)" stroke-width="1.5" stroke-linecap="round" stroke-linejoin="round"/>
<defs>
<linearGradient id="paint0_linear_686_2778" x1="20.2043" y1="21.1229" x2="3.1976" y2="20.2276" gradientUnits="userSpaceOnUse">
<stop stop-color="#AE00FE"/>
<stop offset="1" stop-color="#652BB7"/>
</linearGradient>
</defs>
</svg>
