<svg width="18" height="19" viewBox="0 0 18 19" fill="none" xmlns="http://www.w3.org/2000/svg">
<path d="M9 2C13.1423 2 16.5 5.35775 16.5 9.5C16.5 13.6423 13.1423 17 9 17C4.85775 17 1.5 13.6423 1.5 9.5C1.5 5.35775 4.85775 2 9 2ZM9 3.5C7.4087 3.5 5.88258 4.13214 4.75736 5.25736C3.63214 6.38258 3 7.9087 3 9.5C3 11.0913 3.63214 12.6174 4.75736 13.7426C5.88258 14.8679 7.4087 15.5 9 15.5C10.5913 15.5 12.1174 14.8679 13.2426 13.7426C14.3679 12.6174 15 11.0913 15 9.5C15 7.9087 14.3679 6.38258 13.2426 5.25736C12.1174 4.13214 10.5913 3.5 9 3.5ZM9 5C9.1837 5.00002 9.361 5.06747 9.49828 5.18954C9.63556 5.31161 9.72326 5.47981 9.74475 5.66225L9.75 5.75V9.1895L11.7802 11.2198C11.9148 11.3547 11.9929 11.5358 11.9987 11.7263C12.0045 11.9167 11.9376 12.1023 11.8116 12.2452C11.6855 12.3881 11.5098 12.4777 11.3201 12.4958C11.1305 12.5139 10.941 12.4591 10.7902 12.3425L10.7198 12.2802L8.46975 10.0302C8.35318 9.91358 8.27832 9.76175 8.25675 9.59825L8.25 9.5V5.75C8.25 5.55109 8.32902 5.36032 8.46967 5.21967C8.61032 5.07902 8.80109 5 9 5Z" fill="url(#paint0_linear_567_1264)"/>
<defs>
<linearGradient id="paint0_linear_567_1264" x1="15.72" y1="17" x2="1.78639" y2="16.3001" gradientUnits="userSpaceOnUse">
<stop stop-color="#AE00FE"/>
<stop offset="1" stop-color="#652BB7"/>
</linearGradient>
</defs>
</svg>
