<svg width="974" height="284" viewBox="0 0 974 284" fill="none" xmlns="http://www.w3.org/2000/svg">
<path d="M960.663 201.146C940.611 208.977 898.374 252.407 864.416 238.734C830.458 225.062 833.371 140.838 797.663 135.518C761.956 130.197 730.818 208.535 693.019 213.196C655.221 217.857 652.066 162.601 616.231 157.892C580.395 153.182 556.417 197.337 521.008 190.591C485.599 183.844 482.786 126.959 446.268 125.509C409.749 124.059 380.745 192.211 345.72 183.631C310.695 175.051 312.405 96.5721 278.148 84.3254C243.891 72.0787 216.099 134.445 181.287 124.847C146.476 115.248 147.272 41.1289 111.053 38.2529C74.8328 35.377 29.0202 95.8778 7.43279 111.042" stroke="#939393" stroke-opacity="0.3" stroke-linecap="round"/>
<path d="M949.649 181.099C930.758 189.451 892.772 233.128 858.97 221.191C825.169 209.254 822.337 127.583 787.401 123.801C752.466 120.019 727.571 197.074 691.281 203.038C654.991 209.002 648.228 155.615 613.21 152.43C578.191 149.245 557.936 192.923 523.194 187.749C488.452 182.575 481.91 127.596 446.449 127.594C410.989 127.591 387.476 194.7 352.983 187.736C318.491 180.771 314.879 104.709 280.884 94.1644C246.888 83.6197 224.161 145.08 189.806 137.121C155.452 129.162 151.248 57.3565 115.981 55.9614C80.7144 54.5663 40.4116 114.911 20.5248 130.425" stroke="#939393" stroke-opacity="0.3" stroke-linecap="round"/>
<path d="M937.199 162.089C919.483 170.893 885.663 214.604 852.162 204.351C818.661 194.099 810.445 115.197 776.395 112.878C742.344 110.558 723.427 186.057 688.719 193.218C654.011 200.379 643.888 148.991 609.797 147.252C575.706 145.513 559.039 188.545 525.082 184.871C491.125 181.197 481.11 128.261 446.804 129.617C412.499 130.974 394.252 196.799 360.416 191.383C326.58 185.968 317.986 112.522 284.391 103.625C250.796 94.7266 232.93 155.056 199.161 148.673C165.392 142.291 156.511 72.9857 122.299 72.988C88.0876 72.9904 53.1439 132.915 34.9452 148.685" stroke="#939393" stroke-opacity="0.3" stroke-linecap="round"/>
<path d="M923.425 144.172C906.894 153.36 877.137 196.897 844.075 188.272C811.012 179.647 797.787 103.71 764.725 102.772C731.662 101.835 718.437 175.522 685.375 183.772C652.312 192.022 639.087 142.747 606.025 142.372C572.962 141.997 559.737 184.222 526.675 181.972C493.612 179.722 480.387 128.947 447.325 131.572C414.262 134.197 401.037 198.51 367.975 194.572C334.912 190.635 321.687 119.985 288.625 112.672C255.562 105.36 242.337 164.347 209.275 159.472C176.212 154.597 162.987 87.96 129.925 89.2725C96.8623 90.585 67.1061 149.835 50.5748 165.772" stroke="#939393" stroke-opacity="0.3" stroke-linecap="round"/>
<path d="M908.445 127.402C893.101 136.903 867.289 180.07 834.795 173.009C802.302 165.948 784.454 93.1479 752.475 93.5076C720.496 93.8674 712.659 165.507 681.295 174.736C649.93 183.965 633.866 136.903 601.925 137.806C569.983 138.709 560.041 179.976 527.974 179.069C495.907 178.162 479.743 129.653 448.002 133.451C416.261 137.25 407.798 199.84 375.618 197.303C343.438 194.767 325.944 127.072 293.538 121.277C261.132 115.483 252.312 172.932 220.069 169.491C187.827 166.05 170.601 102.228 138.773 104.759C106.944 107.291 82.1831 165.626 67.2912 181.644" stroke="#939393" stroke-opacity="0.3" stroke-linecap="round"/>
<path d="M892.379 111.822C878.22 121.569 856.217 164.177 824.415 158.61C792.612 153.043 770.539 83.5317 739.729 85.1005C708.919 86.6693 706.15 156.043 676.525 166.14C646.901 176.237 628.267 131.474 597.53 133.565C566.792 135.656 559.964 175.826 528.985 176.176C498.005 176.527 479.178 130.372 448.827 135.248C418.477 140.123 414.499 200.795 383.302 199.579C352.104 198.363 330.713 133.76 299.08 129.411C267.448 125.063 262.783 180.792 231.464 178.706C200.146 176.62 179.273 115.741 148.753 119.398C118.233 123.056 98.257 180.248 84.9687 196.261" stroke="#939393" stroke-opacity="0.3" stroke-linecap="round"/>
<path d="M875.351 97.4699C862.367 107.397 844.023 149.266 813.027 145.119C782.031 140.972 756.136 74.8771 726.571 77.5636C697.007 80.25 698.971 147.16 671.117 158.013C643.263 168.867 622.333 126.473 592.873 129.66C563.413 132.846 559.519 171.789 529.711 173.308C499.902 174.828 478.692 131.101 449.791 136.954C420.889 142.807 421.108 201.384 390.985 201.404C360.862 201.423 335.951 140.029 305.2 137.049C274.448 134.068 273.676 187.911 243.378 187.098C213.08 186.284 188.917 128.456 159.771 133.143C130.626 137.829 115.207 193.666 103.48 209.593" stroke="#939393" stroke-opacity="0.3" stroke-linecap="round"/>
<path d="M857.487 84.3788C845.663 94.4197 830.813 135.382 800.729 132.575C770.646 129.768 741.339 67.1957 713.087 70.9057C684.836 74.6157 691.184 138.885 665.122 150.383C639.06 161.882 616.107 121.912 587.99 126.099C559.872 130.285 558.723 167.883 530.159 170.48C501.595 173.077 478.284 131.836 450.881 138.566C423.479 145.296 427.594 201.617 398.627 202.784C369.661 203.951 341.614 145.861 311.843 144.167C282.073 142.472 284.918 194.28 255.728 194.652C226.539 195.024 199.448 140.335 171.732 145.953C144.017 151.57 132.911 205.852 122.695 221.615" stroke="#939393" stroke-opacity="0.3" stroke-linecap="round"/>
<path d="M838.915 72.5736C828.229 82.665 816.695 122.563 787.622 121.012C758.548 119.462 726.243 60.4936 699.362 65.131C672.481 69.7685 682.855 131.239 658.595 143.272C634.335 155.305 609.634 117.798 582.914 122.888C556.194 127.979 557.593 164.124 530.338 167.705C503.083 171.286 477.954 132.572 452.09 140.077C426.225 147.582 433.924 201.507 406.188 203.729C378.452 205.952 347.654 151.24 318.955 150.746C290.256 150.252 296.436 199.89 268.432 201.358C240.429 202.826 210.776 151.343 184.537 157.792C158.298 164.241 151.246 216.786 142.486 232.311" stroke="#939393" stroke-opacity="0.3" stroke-linecap="round"/>
<path d="M819.762 62.0726C810.188 72.153 801.782 110.841 773.807 110.459C745.832 110.077 710.943 54.7722 685.481 60.2392C660.019 65.7063 674.048 124.243 651.59 136.7C629.132 149.158 602.959 114.139 577.681 120.034C552.403 125.929 556.146 160.528 530.255 164.997C504.364 169.465 477.701 133.305 453.404 141.483C429.107 149.66 440.071 201.064 413.628 204.249C387.186 207.433 354.025 156.152 326.479 156.768C298.933 157.385 308.156 204.738 281.407 207.209C254.657 209.68 222.809 161.451 198.082 168.63C173.356 175.809 170.087 226.452 162.72 241.668" stroke="#939393" stroke-opacity="0.3" stroke-linecap="round"/>
<path d="M800.158 52.8876C791.665 62.8979 786.186 100.241 759.388 100.937C732.59 101.632 695.532 50.0279 671.527 56.2256C647.522 62.4233 664.831 117.912 644.164 130.686C623.498 143.46 596.128 110.939 572.327 117.539C548.526 124.139 554.403 157.109 529.921 162.367C505.44 167.626 477.525 134.031 454.814 142.779C432.104 151.526 446.006 200.305 420.911 204.356C395.816 208.406 360.679 160.586 334.358 162.221C308.037 163.856 320.004 208.823 294.569 212.203C269.133 215.582 235.454 170.634 212.267 178.442C189.079 186.251 189.31 234.84 183.269 249.682" stroke="#939393" stroke-opacity="0.3" stroke-linecap="round"/>
<path d="M780.233 45.0253C772.782 54.9087 770.021 90.7871 744.47 92.4658C718.918 94.1444 680.103 46.2541 657.583 53.0829C635.064 59.9116 655.271 112.26 636.376 125.244C617.481 138.228 589.183 108.199 566.886 115.405C544.588 122.611 552.385 153.881 529.348 159.831C506.31 165.78 477.421 134.747 456.307 143.963C435.193 153.178 451.702 199.246 427.999 204.065C404.297 208.884 367.568 164.536 342.533 167.094C317.499 169.652 331.908 212.152 307.835 216.343C283.763 220.534 248.616 178.874 226.984 187.21C205.353 195.546 208.79 241.951 204.002 256.356" stroke="#939393" stroke-opacity="0.3" stroke-linecap="round"/>
<path d="M760.113 38.4834C753.664 48.1861 753.403 82.491 729.157 85.0563C704.911 87.6217 664.747 43.4371 643.732 50.7972C622.717 58.1573 645.438 107.294 628.284 120.385C611.13 133.475 582.172 105.92 561.393 113.631C540.614 121.342 550.112 150.856 528.545 157.397C506.978 163.939 477.39 135.448 457.872 145.03C438.354 154.612 457.135 197.902 434.859 203.391C412.583 208.88 374.641 167.993 350.947 171.377C327.252 174.761 343.795 214.73 321.125 219.634C298.455 224.539 262.2 186.155 242.13 194.918C222.061 203.681 228.403 247.786 224.791 261.699" stroke="#939393" stroke-opacity="0.3" stroke-linecap="round"/>
<path d="M739.928 33.2544C734.434 42.7255 736.447 75.3619 713.556 78.7156C690.665 82.0693 649.554 41.5601 630.052 49.3521C610.55 57.1442 635.398 103.021 619.947 116.118C604.495 129.214 575.137 104.098 555.883 112.215C536.629 120.332 547.608 148.044 527.528 155.078C507.447 162.113 477.428 136.131 459.497 145.98C441.565 155.829 462.281 196.293 441.457 202.353C420.632 208.413 381.852 170.956 359.54 175.068C337.227 179.179 355.596 216.569 334.358 222.088C313.12 227.607 276.109 192.467 257.599 201.558C239.089 210.649 248.028 252.357 245.51 265.725" stroke="#939393" stroke-opacity="0.3" stroke-linecap="round"/>
<path d="M719.802 29.3244C715.212 38.5162 719.268 69.4025 697.772 73.4448C676.276 77.487 634.61 40.6016 616.621 48.7271C598.632 56.8525 625.222 99.4416 611.424 112.447C597.626 125.453 568.124 102.729 550.391 111.153C532.659 119.578 544.896 145.455 526.309 152.884C507.721 160.312 477.534 136.792 461.17 146.81C444.806 156.827 467.119 194.437 447.762 200.969C428.404 207.501 389.15 173.424 368.253 178.163C347.356 182.903 367.24 217.684 347.455 223.718C327.67 229.752 290.246 197.806 273.284 207.127C256.321 216.447 267.544 255.679 266.034 268.457" stroke="#939393" stroke-opacity="0.3" stroke-linecap="round"/>
<path d="M699.859 26.6732C696.119 35.5413 701.982 64.61 681.91 69.2401C661.838 73.8702 620.001 40.5361 603.515 48.8978C587.029 57.2595 614.977 96.5548 602.776 109.376C590.575 122.198 561.174 101.806 544.95 110.441C528.726 119.075 542.001 143.098 524.902 150.823C507.804 158.548 477.703 137.428 462.878 147.519C448.054 157.61 471.63 192.354 453.744 199.26C435.859 206.165 396.488 175.398 377.028 180.665C357.569 185.932 378.662 218.092 360.339 224.542C342.016 230.993 304.517 202.173 289.08 211.627C273.643 221.081 286.834 257.776 286.243 269.921" stroke="#939393" stroke-opacity="0.3" stroke-linecap="round"/>
<path d="M680.219 25.2737C677.272 33.7774 684.701 60.9744 666.073 66.0914C647.445 71.2085 605.807 41.3331 590.805 49.8356C575.802 58.3381 604.731 94.355 594.062 106.904C583.393 119.452 554.329 101.318 539.592 110.069C524.855 118.819 538.945 140.98 523.324 148.905C507.703 156.829 477.932 138.035 464.61 148.106C451.288 158.178 475.795 190.066 459.378 197.247C442.961 204.429 403.816 176.882 385.808 182.577C367.799 188.272 389.794 217.815 372.935 224.584C356.076 231.352 318.824 205.572 304.883 215.066C290.942 224.559 305.781 258.675 306.018 270.152" stroke="#939393" stroke-opacity="0.3" stroke-linecap="round"/>
<path d="M661 25.0941C658.784 33.1964 667.538 58.4818 650.363 63.9851C633.188 69.4883 592.107 42.9597 578.561 51.5098C565.014 60.06 594.55 92.8343 585.34 105.026C576.129 117.217 547.632 101.256 534.351 110.029C521.069 118.803 535.756 139.107 521.59 147.137C507.424 155.167 478.219 138.611 466.354 148.573C454.488 158.535 479.6 187.594 464.637 194.955C449.675 202.316 411.089 177.883 394.534 183.907C377.978 189.93 400.577 216.878 385.172 223.868C369.767 230.857 333.075 208.015 320.59 217.457C308.105 226.899 324.275 258.412 325.245 269.189" stroke="#939393" stroke-opacity="0.3" stroke-linecap="round"/>
<path d="M642.315 26.0951C640.767 33.7628 650.603 57.1106 634.881 62.9C619.159 68.6895 578.977 45.377 566.849 53.8844C554.721 62.3918 584.5 91.9798 576.668 103.735C568.836 115.491 541.121 101.605 529.256 110.312C517.391 119.018 532.459 137.482 519.717 145.525C506.976 153.569 478.559 139.153 468.097 148.92C457.635 158.686 483.03 184.96 469.5 192.407C455.97 199.853 418.26 178.41 403.151 184.664C388.043 190.917 410.948 215.308 396.979 222.423C383.01 229.539 347.177 209.514 336.101 218.817C325.025 228.12 342.209 257.023 343.816 267.077" stroke="#939393" stroke-opacity="0.3" stroke-linecap="round"/>
<path d="M624.275 28.2337C623.327 35.4376 634.003 56.8357 619.723 62.8125C605.443 68.7893 566.485 48.545 555.731 56.9222C544.977 65.2995 574.644 91.7772 568.103 103.023C561.563 114.27 534.834 102.351 524.338 110.904C513.842 119.457 529.078 136.11 517.722 144.077C506.366 152.045 478.949 139.658 469.829 149.148C460.708 158.637 486.075 182.188 473.945 189.628C461.815 197.069 425.282 178.475 411.604 184.862C397.926 191.249 420.851 213.136 408.291 220.284C395.731 227.432 361.038 210.091 351.316 219.171C341.594 228.251 359.477 254.555 361.625 263.867" stroke="#939393" stroke-opacity="0.3" stroke-linecap="round"/>
<path d="M606.983 31.4602C606.567 38.1753 617.842 57.6254 604.985 63.6924C592.127 69.7594 554.7 52.4184 545.266 60.5818C535.833 68.7453 565.044 92.2079 559.702 102.877C554.36 113.546 528.808 103.476 519.625 111.793C510.441 120.109 525.641 134.992 515.622 142.798C505.604 150.603 479.384 140.124 471.536 149.259C463.689 158.394 488.725 179.3 477.955 186.645C467.186 193.99 432.114 178.091 419.841 184.516C407.567 190.941 430.232 210.395 419.045 217.485C407.857 224.574 374.572 209.77 366.141 218.547C357.709 227.324 375.982 251.059 378.572 259.614" stroke="#939393" stroke-opacity="0.3" stroke-linecap="round"/>
<path d="M590.539 35.7203C590.585 41.9255 602.221 59.4429 590.757 65.5052C579.292 71.5675 543.683 56.9496 535.509 64.8194C527.334 72.6891 555.761 93.2502 551.518 103.28C547.275 113.31 523.078 104.961 515.144 112.963C507.21 120.965 522.172 134.128 513.435 141.69C504.699 149.251 479.859 140.549 473.209 149.256C466.559 157.964 490.974 176.32 481.515 183.485C472.056 190.649 438.711 177.275 427.808 183.645C416.905 190.016 439.04 207.121 429.181 214.065C419.321 221.009 387.693 208.578 380.481 216.977C373.269 225.375 391.63 246.587 394.564 254.379" stroke="#939393" stroke-opacity="0.3" stroke-linecap="round"/>
<path d="M575.038 40.9546C575.473 46.6332 587.237 62.2468 577.126 68.2122C567.016 74.1776 533.492 62.0879 526.509 69.5885C519.525 77.0891 546.851 94.8797 543.604 104.215C540.356 113.55 517.676 106.785 510.921 114.398C504.166 122.011 518.697 133.519 511.179 140.757C503.662 147.996 480.371 140.931 474.836 149.143C469.301 157.355 492.815 173.273 484.611 180.175C476.407 187.076 445.034 176.043 435.457 182.27C425.881 188.498 447.229 203.353 438.644 210.067C430.059 216.781 400.317 206.549 394.248 214.499C388.179 222.448 406.333 241.2 409.513 248.226" stroke="#939393" stroke-opacity="0.3" stroke-linecap="round"/>
<path d="M560.567 47.0989C561.319 52.2386 572.981 65.99 564.178 71.7694C555.375 77.5488 524.18 67.7793 518.311 74.8399C512.443 81.9005 538.371 97.0685 536.01 105.66C533.649 114.252 512.633 108.927 506.98 116.081C501.326 123.235 515.242 133.16 508.873 140.001C502.503 146.843 480.915 141.268 476.407 148.922C471.898 156.576 494.247 170.182 487.233 176.742C480.22 183.303 451.043 174.415 442.741 180.413C434.439 186.411 454.755 199.129 447.383 205.533C440.011 211.938 412.367 203.718 407.358 211.154C402.348 218.59 420.009 234.96 423.338 241.224" stroke="#939393" stroke-opacity="0.3" stroke-linecap="round"/>
<path d="M547.208 54.0861C548.204 58.6787 559.542 70.6227 551.99 76.1306C544.438 81.6384 515.793 73.9689 510.958 80.5238C506.124 87.0787 530.372 99.7877 528.785 107.594C527.198 115.4 507.978 111.362 503.343 117.993C498.707 124.625 511.833 133.049 506.534 139.425C501.236 145.801 481.485 141.559 477.91 148.599C474.335 155.639 495.269 167.071 489.374 173.217C483.479 179.364 456.702 172.414 449.614 178.101C442.526 183.787 461.578 194.494 455.351 200.513C449.125 206.532 423.767 200.129 419.728 206.99C415.689 213.851 432.581 227.935 435.964 233.447" stroke="#939393" stroke-opacity="0.3" stroke-linecap="round"/>
<path d="M535.036 61.8432C536.203 65.8849 547.002 76.0884 540.637 81.2432C534.273 86.398 508.373 80.5977 504.485 86.5863C500.597 92.5749 522.903 103.003 521.974 109.989C521.046 116.974 503.737 114.065 500.03 120.115C496.323 126.165 508.492 133.181 504.181 139.027C499.871 144.873 482.078 141.802 479.337 148.177C476.597 154.552 495.882 163.964 491.028 169.627C486.173 175.29 461.977 170.063 456.035 175.36C450.093 180.658 467.663 189.492 462.506 195.053C457.35 200.615 434.446 195.823 431.283 202.056C428.12 208.289 443.981 220.196 447.323 224.97" stroke="#939393" stroke-opacity="0.3" stroke-linecap="round"/>
<path d="M524.119 70.296C525.384 73.7872 535.438 82.329 530.189 87.0537C524.939 91.7784 501.957 87.6069 498.922 92.9744C495.887 98.3419 516.01 106.682 515.622 112.818C515.234 118.953 499.933 117.011 497.06 122.426C494.187 127.84 505.246 133.55 501.833 138.807C498.42 144.065 482.687 141.998 480.678 147.663C478.67 153.329 496.092 160.885 492.193 166.001C488.294 171.118 466.834 167.389 461.963 172.223C457.092 177.057 472.98 184.168 468.81 189.206C464.641 194.245 444.338 190.851 441.952 196.407C439.565 201.962 454.146 211.818 457.355 215.874" stroke="#939393" stroke-opacity="0.3" stroke-linecap="round"/>
<path d="M514.519 79.3641C515.809 82.3096 524.922 89.2801 520.709 93.5023C516.496 97.7246 496.576 94.9335 494.297 99.6308C492.017 104.328 509.736 110.784 509.768 116.05C509.8 121.315 496.588 120.171 494.45 124.904C492.312 129.636 502.117 134.147 499.507 138.764C496.898 143.38 483.308 142.144 481.925 147.061C480.542 151.979 495.903 157.856 492.869 162.368C489.835 166.88 471.245 164.415 467.362 168.719C463.48 173.022 477.501 178.57 474.231 183.024C470.961 187.478 453.381 185.261 451.668 190.098C449.955 194.934 463.02 202.876 466.008 206.239" stroke="#939393" stroke-opacity="0.3" stroke-linecap="round"/>
<path d="M506.288 88.9674C507.531 91.376 515.517 96.8763 512.255 100.529C508.992 104.182 492.254 102.516 490.628 106.5C489.002 110.484 504.12 115.273 504.451 119.653C504.781 124.034 493.72 123.518 492.213 127.527C490.707 131.535 499.127 134.967 497.222 138.894C495.316 142.822 483.936 142.241 483.068 146.379C482.201 150.517 495.323 154.901 493.059 158.756C490.794 162.611 475.182 161.173 472.199 164.883C469.216 168.592 481.204 172.746 478.74 176.561C476.276 180.375 461.518 179.11 460.371 183.192C459.224 187.273 470.555 193.451 473.235 196.151" stroke="#939393" stroke-opacity="0.3" stroke-linecap="round"/>
<path d="M499.473 99.0214C500.599 100.906 507.284 105.048 504.88 108.069C502.476 111.09 489.011 110.29 487.933 113.524C486.855 116.759 499.198 120.105 499.704 123.595C500.211 127.084 491.345 127.022 490.364 130.272C489.383 133.522 496.299 135.997 494.994 139.195C493.69 142.393 484.565 142.29 484.102 145.623C483.638 148.956 494.364 152.043 492.768 155.195C491.172 158.346 478.62 157.692 476.442 160.75C474.265 163.807 484.072 166.747 482.315 169.872C480.557 172.997 468.697 172.454 468.007 175.751C467.317 179.048 476.711 183.625 479.002 185.697" stroke="#939393" stroke-opacity="0.3" stroke-linecap="round"/>
<path d="M494.111 109.44C495.053 110.818 500.274 113.722 498.63 116.056C496.986 118.39 486.86 118.19 486.221 120.644C485.581 123.099 494.999 125.239 495.56 127.838C496.12 130.436 489.477 130.653 488.911 133.116C488.344 135.58 493.653 137.228 492.842 139.662C492.031 142.096 485.192 142.289 485.017 144.799C484.843 147.31 493.037 149.304 492.005 151.711C490.974 154.119 481.538 154.001 480.066 156.356C478.594 158.711 486.092 160.621 484.938 163.014C483.784 165.407 474.873 165.353 474.527 167.842C474.181 170.332 481.455 173.481 483.278 174.965" stroke="#939393" stroke-opacity="0.3" stroke-linecap="round"/>
<path d="M490.232 120.135C490.922 121.028 494.532 122.823 493.546 124.421C492.559 126.018 485.808 126.152 485.496 127.803C485.183 129.454 491.552 130.631 492.045 132.346C492.538 134.061 488.125 134.38 487.862 136.035C487.599 137.69 491.209 138.647 490.781 140.289C490.354 141.931 485.809 142.24 485.809 143.916C485.809 145.592 491.356 146.703 490.78 148.333C490.205 149.963 483.918 150.134 483.046 151.741C482.175 153.347 487.255 154.421 486.597 156.045C485.939 157.668 480.004 157.867 479.888 159.534C479.773 161.2 484.761 163.105 486.043 164.045" stroke="#939393" stroke-opacity="0.3" stroke-linecap="round"/>
<path d="M487.857 131.019C488.232 131.451 490.097 132.276 489.66 133.093C489.222 133.91 485.856 134.11 485.757 134.941C485.658 135.772 488.879 136.233 489.185 137.08C489.49 137.926 487.298 138.173 487.224 139.005C487.15 139.836 488.985 140.243 488.829 141.071C488.672 141.899 486.414 142.144 486.472 142.98C486.529 143.817 489.338 144.262 489.107 145.087C488.876 145.913 485.742 146.122 485.363 146.942C484.983 147.761 487.557 148.197 487.285 149.021C487.012 149.844 484.056 150.061 484.056 150.896C484.056 151.73 486.612 152.582 487.285 153.026" stroke="#939393" stroke-opacity="0.3" stroke-linecap="round"/>
</svg>
