<svg width="80" height="80" viewBox="0 0 80 80" fill="none" xmlns="http://www.w3.org/2000/svg">
<path d="M72.1626 66.2502C67.4032 58.0221 60.0689 52.1221 51.5095 49.3252C55.7433 46.8048 59.0328 42.9642 60.8727 38.3933C62.7125 33.8224 63.0011 28.774 61.694 24.0232C60.387 19.2724 57.5566 15.0821 53.6375 12.0956C49.7185 9.10913 44.9274 7.4917 40.0001 7.4917C35.0728 7.4917 30.2818 9.10913 26.3627 12.0956C22.4436 15.0821 19.6132 19.2724 18.3062 24.0232C16.9991 28.774 17.2877 33.8224 19.1276 38.3933C20.9674 42.9642 24.2569 46.8048 28.4907 49.3252C19.9314 52.1189 12.597 58.019 7.83761 66.2502C7.66308 66.5348 7.54731 66.8515 7.49714 67.1815C7.44697 67.5116 7.46341 67.8483 7.5455 68.1719C7.62759 68.4955 7.77366 68.7994 7.97509 69.0656C8.17652 69.3318 8.42923 69.555 8.71832 69.722C9.0074 69.889 9.327 69.9964 9.65826 70.0378C9.98952 70.0793 10.3257 70.054 10.6471 69.9634C10.9684 69.8728 11.2683 69.7188 11.5291 69.5105C11.79 69.3021 12.0064 69.0436 12.1657 68.7502C18.0532 58.5752 28.4595 52.5002 40.0001 52.5002C51.5407 52.5002 61.947 58.5752 67.8345 68.7502C67.9938 69.0436 68.2103 69.3021 68.4711 69.5105C68.7319 69.7188 69.0318 69.8728 69.3532 69.9634C69.6745 70.054 70.0107 70.0793 70.342 70.0378C70.6732 69.9964 70.9928 69.889 71.2819 69.722C71.571 69.555 71.8237 69.3318 72.0251 69.0656C72.2266 68.7994 72.3726 68.4955 72.4547 68.1719C72.5368 67.8483 72.5533 67.5116 72.5031 67.1815C72.4529 66.8515 72.3371 66.5348 72.1626 66.2502ZM22.5001 30.0002C22.5001 26.539 23.5265 23.1556 25.4494 20.2777C27.3723 17.3999 30.1054 15.1568 33.3032 13.8323C36.5009 12.5078 40.0195 12.1612 43.4142 12.8365C46.8089 13.5117 49.9271 15.1784 52.3745 17.6258C54.8219 20.0732 56.4886 23.1915 57.1639 26.5861C57.8391 29.9808 57.4925 33.4995 56.168 36.6972C54.8435 39.8949 52.6005 42.628 49.7226 44.5509C46.8447 46.4738 43.4613 47.5002 40.0001 47.5002C35.3603 47.4952 30.912 45.6499 27.6312 42.3691C24.3504 39.0883 22.5051 34.64 22.5001 30.0002Z" fill="url(#paint0_linear_500_720)"/>
<defs>
<linearGradient id="paint0_linear_500_720" x1="40.0001" y1="7.4917" x2="40.0001" y2="70.0572" gradientUnits="userSpaceOnUse">
<stop stop-color="#AD01FE"/>
<stop offset="1" stop-color="#662DB5"/>
</linearGradient>
</defs>
</svg>
