<svg width="65" height="64" viewBox="0 0 65 64" fill="none" xmlns="http://www.w3.org/2000/svg">
<path d="M24.5 34L30.5 40L40.5 26M56.5 32C56.5 35.1517 55.8792 38.2726 54.6731 41.1844C53.467 44.0962 51.6992 46.742 49.4706 48.9706C47.242 51.1992 44.5962 52.967 41.6844 54.1731C38.7726 55.3792 35.6517 56 32.5 56C29.3483 56 26.2274 55.3792 23.3156 54.1731C20.4038 52.967 17.758 51.1992 15.5294 48.9706C13.3008 46.742 11.533 44.0962 10.3269 41.1844C9.12078 38.2726 8.5 35.1517 8.5 32C8.5 25.6348 11.0286 19.5303 15.5294 15.0294C20.0303 10.5286 26.1348 8 32.5 8C38.8652 8 44.9697 10.5286 49.4706 15.0294C53.9714 19.5303 56.5 25.6348 56.5 32Z" stroke="#939393" stroke-width="5.5" stroke-linecap="round" stroke-linejoin="round"/>
</svg>
