<svg width="65" height="64" viewBox="0 0 65 64" fill="none" xmlns="http://www.w3.org/2000/svg">
<path d="M42.4998 16C42.4998 18.6522 41.4462 21.1957 39.5708 23.0711C37.6955 24.9464 35.1519 26 32.4998 26C29.8476 26 27.3041 24.9464 25.4287 23.0711C23.5533 21.1957 22.4998 18.6522 22.4998 16C22.4998 13.3478 23.5533 10.8043 25.4287 8.92893C27.3041 7.05357 29.8476 6 32.4998 6C35.1519 6 37.6955 7.05357 39.5708 8.92893C41.4462 10.8043 42.4998 13.3478 42.4998 16ZM12.5024 53.648C12.5881 48.4009 14.7327 43.3978 18.4736 39.7175C22.2145 36.0371 27.252 33.9746 32.4998 33.9746C37.7475 33.9746 42.7851 36.0371 46.526 39.7175C50.2669 43.3978 52.4114 48.4009 52.4971 53.648C46.2235 56.5247 39.4015 58.0094 32.4998 58C25.3638 58 18.5904 56.4427 12.5024 53.648Z" stroke="#939393" stroke-width="5.5" stroke-linecap="round" stroke-linejoin="round"/>
</svg>
