<svg width="65" height="64" viewBox="0 0 65 64" fill="none" xmlns="http://www.w3.org/2000/svg">
<path d="M48.4519 49.9335C46.5886 47.4665 44.1779 45.4659 41.4097 44.0892C38.6415 42.7125 35.5915 41.9974 32.4999 42.0002C29.4083 41.9974 26.3582 42.7125 23.5901 44.0892C20.8219 45.4659 18.4112 47.4665 16.5479 49.9335M48.4519 49.9335C52.0879 46.6994 54.6522 42.4363 55.8097 37.7098C56.9672 32.9832 56.6606 28.0164 54.9304 23.4681C53.2003 18.9198 50.1285 15.0049 46.1223 12.2426C42.1161 9.48024 37.3648 8.00098 32.4985 8.00098C27.6323 8.00098 22.881 9.48024 18.8748 12.2426C14.8686 15.0049 11.7967 18.9198 10.0666 23.4681C8.33651 28.0164 8.02988 32.9832 9.18739 37.7098C10.3449 42.4363 12.9119 46.6994 16.5479 49.9335M48.4519 49.9335C44.0626 53.8487 38.3815 56.0086 32.4999 56.0002C26.6173 56.0092 20.9378 53.8493 16.5479 49.9335M40.4999 26.0002C40.4999 28.1219 39.657 30.1568 38.1567 31.657C36.6564 33.1573 34.6216 34.0002 32.4999 34.0002C30.3781 34.0002 28.3433 33.1573 26.843 31.657C25.3427 30.1568 24.4999 28.1219 24.4999 26.0002C24.4999 23.8785 25.3427 21.8436 26.843 20.3433C28.3433 18.843 30.3781 18.0002 32.4999 18.0002C34.6216 18.0002 36.6564 18.843 38.1567 20.3433C39.657 21.8436 40.4999 23.8785 40.4999 26.0002Z" stroke="#939393" stroke-width="5.5" stroke-linecap="round" stroke-linejoin="round"/>
</svg>
