<svg width="65" height="65" viewBox="0 0 65 65" fill="none" xmlns="http://www.w3.org/2000/svg">
<path d="M48.4519 50.4335C46.5886 47.9665 44.1779 45.9659 41.4097 44.5892C38.6415 43.2125 35.5915 42.4974 32.4999 42.5002C29.4083 42.4974 26.3582 43.2125 23.5901 44.5892C20.8219 45.9659 18.4112 47.9665 16.5479 50.4335M48.4519 50.4335C52.0879 47.1994 54.6522 42.9363 55.8097 38.2098C56.9672 33.4832 56.6606 28.5164 54.9304 23.9681C53.2003 19.4198 50.1285 15.5049 46.1223 12.7426C42.1161 9.98024 37.3648 8.50098 32.4985 8.50098C27.6323 8.50098 22.881 9.98024 18.8748 12.7426C14.8686 15.5049 11.7967 19.4198 10.0666 23.9681C8.33651 28.5164 8.02988 33.4832 9.18739 38.2098C10.3449 42.9363 12.9119 47.1994 16.5479 50.4335M48.4519 50.4335C44.0626 54.3487 38.3815 56.5086 32.4999 56.5002C26.6173 56.5092 20.9378 54.3493 16.5479 50.4335M40.4999 26.5002C40.4999 28.6219 39.657 30.6568 38.1567 32.157C36.6564 33.6573 34.6216 34.5002 32.4999 34.5002C30.3781 34.5002 28.3433 33.6573 26.843 32.157C25.3427 30.6568 24.4999 28.6219 24.4999 26.5002C24.4999 24.3785 25.3427 22.3436 26.843 20.8433C28.3433 19.343 30.3781 18.5002 32.4999 18.5002C34.6216 18.5002 36.6564 19.343 38.1567 20.8433C39.657 22.3436 40.4999 24.3785 40.4999 26.5002Z" stroke="url(#paint0_linear_839_1039)" stroke-width="5.5" stroke-linecap="round" stroke-linejoin="round"/>
<defs>
<linearGradient id="paint0_linear_839_1039" x1="56.4985" y1="32.5006" x2="8.49854" y2="32.5006" gradientUnits="userSpaceOnUse">
<stop stop-color="#24A500"/>
<stop offset="1" stop-color="#155702"/>
</linearGradient>
</defs>
</svg>
