<svg width="65" height="65" viewBox="0 0 65 65" fill="none" xmlns="http://www.w3.org/2000/svg">
<path d="M42.4998 16.5C42.4998 19.1522 41.4462 21.6957 39.5708 23.5711C37.6955 25.4464 35.1519 26.5 32.4998 26.5C29.8476 26.5 27.3041 25.4464 25.4287 23.5711C23.5533 21.6957 22.4998 19.1522 22.4998 16.5C22.4998 13.8478 23.5533 11.3043 25.4287 9.42893C27.3041 7.55357 29.8476 6.5 32.4998 6.5C35.1519 6.5 37.6955 7.55357 39.5708 9.42893C41.4462 11.3043 42.4998 13.8478 42.4998 16.5ZM12.5024 54.148C12.5881 48.9009 14.7327 43.8978 18.4736 40.2175C22.2145 36.5371 27.252 34.4746 32.4998 34.4746C37.7475 34.4746 42.7851 36.5371 46.526 40.2175C50.2669 43.8978 52.4114 48.9009 52.4971 54.148C46.2235 57.0247 39.4015 58.5094 32.4998 58.5C25.3638 58.5 18.5904 56.9427 12.5024 54.148Z" stroke="url(#paint0_linear_839_991)" stroke-width="5.5" stroke-linecap="round" stroke-linejoin="round"/>
<defs>
<linearGradient id="paint0_linear_839_991" x1="52.4971" y1="32.5" x2="12.5024" y2="32.5" gradientUnits="userSpaceOnUse">
<stop stop-color="#24A500"/>
<stop offset="1" stop-color="#155702"/>
</linearGradient>
</defs>
</svg>
