<svg width="200" height="200" viewBox="0 0 200 200" fill="none" xmlns="http://www.w3.org/2000/svg">
<path d="M50 25C43.3696 25 37.0107 27.6339 32.3223 32.3223C27.6339 37.0107 25 43.3696 25 50V68.75C25 75.3804 27.6339 81.7393 32.3223 86.4277C37.0107 91.1161 43.3696 93.75 50 93.75H68.75C75.3804 93.75 81.7393 91.1161 86.4277 86.4277C91.1161 81.7393 93.75 75.3804 93.75 68.75V50C93.75 43.3696 91.1161 37.0107 86.4277 32.3223C81.7393 27.6339 75.3804 25 68.75 25H50ZM131.25 25C124.62 25 118.261 27.6339 113.572 32.3223C108.884 37.0107 106.25 43.3696 106.25 50V68.75C106.25 75.3804 108.884 81.7393 113.572 86.4277C118.261 91.1161 124.62 93.75 131.25 93.75H150C156.63 93.75 162.989 91.1161 167.678 86.4277C172.366 81.7393 175 75.3804 175 68.75V50C175 43.3696 172.366 37.0107 167.678 32.3223C162.989 27.6339 156.63 25 150 25H131.25ZM50 106.25C43.3696 106.25 37.0107 108.884 32.3223 113.572C27.6339 118.261 25 124.62 25 131.25V150C25 156.63 27.6339 162.989 32.3223 167.678C37.0107 172.366 43.3696 175 50 175H68.75C75.3804 175 81.7393 172.366 86.4277 167.678C91.1161 162.989 93.75 156.63 93.75 150V131.25C93.75 124.62 91.1161 118.261 86.4277 113.572C81.7393 108.884 75.3804 106.25 68.75 106.25H50ZM146.875 112.5C146.875 110.842 146.217 109.253 145.044 108.081C143.872 106.908 142.283 106.25 140.625 106.25C138.967 106.25 137.378 106.908 136.206 108.081C135.033 109.253 134.375 110.842 134.375 112.5V134.375H112.5C110.842 134.375 109.253 135.033 108.081 136.206C106.908 137.378 106.25 138.967 106.25 140.625C106.25 142.283 106.908 143.872 108.081 145.044C109.253 146.217 110.842 146.875 112.5 146.875H134.375V168.75C134.375 170.408 135.033 171.997 136.206 173.169C137.378 174.342 138.967 175 140.625 175C142.283 175 143.872 174.342 145.044 173.169C146.217 171.997 146.875 170.408 146.875 168.75V146.875H168.75C170.408 146.875 171.997 146.217 173.169 145.044C174.342 143.872 175 142.283 175 140.625C175 138.967 174.342 137.378 173.169 136.206C171.997 135.033 170.408 134.375 168.75 134.375H146.875V112.5Z" fill="url(#paint0_linear_1393_1907)" fill-opacity="0.2"/>
<defs>
<linearGradient id="paint0_linear_1393_1907" x1="167.2" y1="175" x2="27.8639" y2="168.001" gradientUnits="userSpaceOnUse">
<stop stop-color="#AE00FE"/>
<stop offset="1" stop-color="#652BB7"/>
</linearGradient>
</defs>
</svg>
