<svg width="150" height="138" viewBox="0 0 150 138" fill="none" xmlns="http://www.w3.org/2000/svg">
<path d="M131.25 75.25H143.75C145.408 75.25 146.997 74.5915 148.169 73.4194C149.342 72.2473 150 70.6576 150 69C150 67.3424 149.342 65.7527 148.169 64.5806C146.997 63.4085 145.408 62.75 143.75 62.75H131.25C129.592 62.75 128.003 63.4085 126.831 64.5806C125.658 65.7527 125 67.3424 125 69C125 70.6576 125.658 72.2473 126.831 73.4194C128.003 74.5915 129.592 75.25 131.25 75.25ZM75 19C75 17.3424 75.6585 15.7527 76.8306 14.5806C78.0027 13.4085 79.5924 12.75 81.25 12.75H143.75C145.408 12.75 146.997 13.4085 148.169 14.5806C149.342 15.7527 150 17.3424 150 19C150 20.6576 149.342 22.2473 148.169 23.4194C146.997 24.5915 145.408 25.25 143.75 25.25H81.25C79.5924 25.25 78.0027 24.5915 76.8306 23.4194C75.6585 22.2473 75 20.6576 75 19ZM75 119C75 117.342 75.6585 115.753 76.8306 114.581C78.0027 113.408 79.5924 112.75 81.25 112.75H143.75C145.408 112.75 146.997 113.408 148.169 114.581C149.342 115.753 150 117.342 150 119C150 120.658 149.342 122.247 148.169 123.419C146.997 124.592 145.408 125.25 143.75 125.25H81.25C79.5924 125.25 78.0027 124.592 76.8306 123.419C75.6585 122.247 75 120.658 75 119ZM6.25 25.25H18.75C20.4076 25.25 21.9973 24.5915 23.1694 23.4194C24.3415 22.2473 25 20.6576 25 19C25 17.3424 24.3415 15.7527 23.1694 14.5806C21.9973 13.4085 20.4076 12.75 18.75 12.75H6.25C4.5924 12.75 3.00268 13.4085 1.83058 14.5806C0.658479 15.7527 0 17.3424 0 19C0 20.6576 0.658479 22.2473 1.83058 23.4194C3.00268 24.5915 4.5924 25.25 6.25 25.25ZM18.75 125.25H6.25C4.5924 125.25 3.00268 124.592 1.83058 123.419C0.658479 122.247 0 120.658 0 119C0 117.342 0.658479 115.753 1.83058 114.581C3.00268 113.408 4.5924 112.75 6.25 112.75H18.75C20.4076 112.75 21.9973 113.408 23.1694 114.581C24.3415 115.753 25 117.342 25 119C25 120.658 24.3415 122.247 23.1694 123.419C21.9973 124.592 20.4076 125.25 18.75 125.25ZM0 69C0 67.3424 0.658479 65.7527 1.83058 64.5806C3.00268 63.4085 4.5924 62.75 6.25 62.75H68.75C70.4076 62.75 71.9973 63.4085 73.1694 64.5806C74.3415 65.7527 75 67.3424 75 69C75 70.6576 74.3415 72.2473 73.1694 73.4194C71.9973 74.5915 70.4076 75.25 68.75 75.25H6.25C4.5924 75.25 3.00268 74.5915 1.83058 73.4194C0.658479 72.2473 0 70.6576 0 69ZM50 0.25C45.0272 0.25 40.2581 2.22544 36.7417 5.74175C33.2254 9.25806 31.25 14.0272 31.25 19C31.25 23.9728 33.2254 28.7419 36.7417 32.2583C40.2581 35.7746 45.0272 37.75 50 37.75C54.9728 37.75 59.7419 35.7746 63.2582 32.2583C66.7746 28.7419 68.75 23.9728 68.75 19C68.75 14.0272 66.7746 9.25806 63.2582 5.74175C59.7419 2.22544 54.9728 0.25 50 0.25ZM81.25 69C81.25 64.0272 83.2254 59.2581 86.7417 55.7417C90.2581 52.2254 95.0272 50.25 100 50.25C104.973 50.25 109.742 52.2254 113.258 55.7417C116.775 59.2581 118.75 64.0272 118.75 69C118.75 73.9728 116.775 78.7419 113.258 82.2582C109.742 85.7746 104.973 87.75 100 87.75C95.0272 87.75 90.2581 85.7746 86.7417 82.2582C83.2254 78.7419 81.25 73.9728 81.25 69ZM50 100.25C45.0272 100.25 40.2581 102.225 36.7417 105.742C33.2254 109.258 31.25 114.027 31.25 119C31.25 123.973 33.2254 128.742 36.7417 132.258C40.2581 135.775 45.0272 137.75 50 137.75C54.9728 137.75 59.7419 135.775 63.2582 132.258C66.7746 128.742 68.75 123.973 68.75 119C68.75 114.027 66.7746 109.258 63.2582 105.742C59.7419 102.225 54.9728 100.25 50 100.25Z" fill="url(#paint0_linear_1393_1911)" fill-opacity="0.2"/>
<defs>
<linearGradient id="paint0_linear_1393_1911" x1="142.2" y1="137.75" x2="2.93048" y2="130.119" gradientUnits="userSpaceOnUse">
<stop stop-color="#AE00FE"/>
<stop offset="1" stop-color="#652BB7"/>
</linearGradient>
</defs>
</svg>
