<svg width="164" height="164" viewBox="0 0 164 164" fill="none" xmlns="http://www.w3.org/2000/svg">
<path fill-rule="evenodd" clip-rule="evenodd" d="M137.708 141.142C145.783 133.554 152.216 124.391 156.61 114.218C161.003 104.046 163.263 93.0805 163.25 82C163.25 37.125 126.875 0.75 82.0001 0.75C37.1251 0.75 0.750054 37.125 0.750054 82C0.737233 93.0805 2.99728 104.046 7.39047 114.218C11.7837 124.391 18.2166 133.554 26.2917 141.142C41.3495 155.366 61.2862 163.278 82.0001 163.25C102.714 163.278 122.651 155.366 137.708 141.142ZM33.2084 130.433C39.059 123.114 46.4835 117.206 54.9304 113.149C63.3772 109.092 72.6295 106.991 82.0001 107C91.3706 106.991 100.623 109.092 109.07 113.149C117.517 117.206 124.941 123.114 130.792 130.433C124.409 136.881 116.809 141.997 108.433 145.484C100.058 148.972 91.0728 150.762 82.0001 150.75C72.9273 150.762 63.9426 148.972 55.5669 145.484C47.1913 141.997 39.5915 136.881 33.2084 130.433ZM113.25 57C113.25 65.288 109.958 73.2366 104.097 79.0971C98.2366 84.9576 90.2881 88.25 82.0001 88.25C73.712 88.25 65.7635 84.9576 59.903 79.0971C54.0425 73.2366 50.7501 65.288 50.7501 57C50.7501 48.712 54.0425 40.7634 59.903 34.9029C65.7635 29.0424 73.712 25.75 82.0001 25.75C90.2881 25.75 98.2366 29.0424 104.097 34.9029C109.958 40.7634 113.25 48.712 113.25 57Z" fill="url(#paint0_linear_1393_1905)" fill-opacity="0.2"/>
<defs>
<linearGradient id="paint0_linear_1393_1905" x1="154.8" y1="163.25" x2="3.85252" y2="155.668" gradientUnits="userSpaceOnUse">
<stop stop-color="#AE00FE"/>
<stop offset="1" stop-color="#652BB7"/>
</linearGradient>
</defs>
</svg>
