<svg width="250" height="98" viewBox="0 0 250 98" fill="none" xmlns="http://www.w3.org/2000/svg">
<path d="M78.5641 79.2079C78.4156 79.2079 78.2894 79.1634 78.1854 79.0743C78.0963 78.9703 78.0518 78.8441 78.0518 78.6956V64.1485C78.0518 63.9852 78.0963 63.8589 78.1854 63.7698C78.2894 63.6659 78.4156 63.6139 78.5641 63.6139H79.678C79.8562 63.6139 79.9899 63.6584 80.079 63.7476C80.1681 63.8367 80.2201 63.9109 80.2349 63.9703L84.9577 72.9703L89.7028 63.9703C89.7325 63.9109 89.7844 63.8367 89.8587 63.7476C89.9478 63.6584 90.0815 63.6139 90.2597 63.6139H91.3513C91.5146 63.6139 91.6409 63.6659 91.73 63.7698C91.8339 63.8589 91.8859 63.9852 91.8859 64.1485V78.6956C91.8859 78.8441 91.8339 78.9703 91.73 79.0743C91.6409 79.1634 91.5146 79.2079 91.3513 79.2079H90.2597C90.1112 79.2079 89.9849 79.1634 89.881 79.0743C89.7919 78.9703 89.7473 78.8441 89.7473 78.6956V67.7352L86.027 74.9976C85.9676 75.1461 85.8785 75.2649 85.7597 75.354C85.6409 75.4282 85.4923 75.4654 85.3141 75.4654H84.6235C84.4305 75.4654 84.2745 75.4282 84.1557 75.354C84.0518 75.2649 83.9626 75.1461 83.8884 74.9976L80.1681 67.7352V78.6956C80.1681 78.8441 80.1161 78.9703 80.0122 79.0743C79.923 79.1634 79.8042 79.2079 79.6557 79.2079H78.5641ZM99.7708 79.4307C98.8203 79.4307 98.0109 79.2228 97.3426 78.807C96.6891 78.3763 96.1916 77.7822 95.85 77.0248C95.5084 76.2674 95.3376 75.3985 95.3376 74.4183V68.1362C95.3376 67.9877 95.3822 67.8688 95.4713 67.7797C95.5753 67.6758 95.7015 67.6238 95.85 67.6238H96.9639C97.1124 67.6238 97.2312 67.6758 97.3203 67.7797C97.4243 67.8688 97.4763 67.9877 97.4763 68.1362V74.307C97.4763 76.5198 98.4416 77.6263 100.372 77.6263C101.293 77.6263 102.028 77.3367 102.578 76.7575C103.142 76.1634 103.424 75.3466 103.424 74.307V68.1362C103.424 67.9877 103.469 67.8688 103.558 67.7797C103.662 67.6758 103.788 67.6238 103.937 67.6238H105.028C105.192 67.6238 105.318 67.6758 105.407 67.7797C105.496 67.8688 105.541 67.9877 105.541 68.1362V78.6956C105.541 78.8441 105.496 78.9703 105.407 79.0743C105.318 79.1634 105.192 79.2079 105.028 79.2079H104.003C103.855 79.2079 103.729 79.1634 103.625 79.0743C103.536 78.9703 103.491 78.8441 103.491 78.6956V77.7154C103.09 78.2352 102.6 78.651 102.021 78.9629C101.456 79.2748 100.706 79.4307 99.7708 79.4307ZM109.362 79.2079C109.214 79.2079 109.088 79.1634 108.984 79.0743C108.895 78.9703 108.85 78.8441 108.85 78.6956V68.1362C108.85 67.9877 108.895 67.8688 108.984 67.7797C109.088 67.6758 109.214 67.6238 109.362 67.6238H110.409C110.558 67.6238 110.677 67.6758 110.766 67.7797C110.87 67.8688 110.922 67.9877 110.922 68.1362V69.1164C111.308 68.6114 111.791 68.203 112.37 67.8911C112.964 67.5644 113.721 67.401 114.642 67.401C115.607 67.401 116.424 67.6164 117.093 68.0471C117.776 68.4629 118.288 69.0495 118.63 69.807C118.971 70.5495 119.142 71.4183 119.142 72.4134V78.6956C119.142 78.8441 119.098 78.9703 119.008 79.0743C118.919 79.1634 118.801 79.2079 118.652 79.2079H117.538C117.39 79.2079 117.263 79.1634 117.159 79.0743C117.07 78.9703 117.026 78.8441 117.026 78.6956V72.5248C117.026 71.4852 116.773 70.6758 116.268 70.0966C115.763 69.5025 115.021 69.2055 114.041 69.2055C113.12 69.2055 112.377 69.5025 111.813 70.0966C111.263 70.6758 110.989 71.4852 110.989 72.5248V78.6956C110.989 78.8441 110.937 78.9703 110.833 79.0743C110.744 79.1634 110.625 79.2079 110.476 79.2079H109.362ZM125.59 79.4307C124.848 79.4307 124.172 79.2822 123.563 78.9852C122.954 78.6881 122.464 78.2872 122.093 77.7822C121.721 77.2773 121.536 76.7055 121.536 76.0669C121.536 75.0421 121.952 74.2253 122.783 73.6164C123.615 73.0075 124.699 72.6065 126.036 72.4134L129.355 71.9456V71.2995C129.355 70.5867 129.147 70.0297 128.731 69.6287C128.33 69.2277 127.669 69.0273 126.749 69.0273C126.08 69.0273 125.538 69.1609 125.122 69.4282C124.721 69.6956 124.439 70.0372 124.276 70.453C124.187 70.6758 124.031 70.7872 123.808 70.7872H122.805C122.642 70.7872 122.516 70.7426 122.427 70.6535C122.352 70.5495 122.315 70.4307 122.315 70.2971C122.315 70.0743 122.397 69.7995 122.56 69.4728C122.739 69.1461 123.006 68.8268 123.362 68.5149C123.719 68.203 124.172 67.9431 124.721 67.7352C125.286 67.5124 125.969 67.401 126.771 67.401C127.662 67.401 128.412 67.5198 129.021 67.7575C129.63 67.9802 130.105 68.2847 130.447 68.6708C130.803 69.057 131.055 69.4951 131.204 69.9852C131.367 70.4753 131.449 70.9728 131.449 71.4778V78.6956C131.449 78.8441 131.397 78.9703 131.293 79.0743C131.204 79.1634 131.085 79.2079 130.937 79.2079H129.912C129.749 79.2079 129.622 79.1634 129.533 79.0743C129.444 78.9703 129.4 78.8441 129.4 78.6956V77.7377C129.206 78.005 128.947 78.2723 128.62 78.5396C128.293 78.7921 127.885 79.0075 127.395 79.1857C126.904 79.349 126.303 79.4307 125.59 79.4307ZM126.058 77.7599C126.667 77.7599 127.224 77.6337 127.729 77.3812C128.234 77.1139 128.627 76.7055 128.909 76.156C129.206 75.6065 129.355 74.9159 129.355 74.0842V73.4604L126.771 73.8391C125.716 73.9877 124.922 74.2401 124.387 74.5966C123.852 74.9381 123.585 75.3763 123.585 75.9109C123.585 76.3268 123.704 76.6758 123.942 76.9579C124.194 77.2253 124.506 77.4258 124.877 77.5594C125.263 77.6931 125.657 77.7599 126.058 77.7599ZM138.662 79.4307C137.83 79.4307 137.117 79.3268 136.523 79.1188C135.929 78.9109 135.447 78.6584 135.075 78.3614C134.704 78.0644 134.422 77.7674 134.229 77.4703C134.051 77.1733 133.954 76.9357 133.939 76.7575C133.924 76.5941 133.976 76.4679 134.095 76.3787C134.214 76.2896 134.333 76.2451 134.452 76.2451H135.432C135.521 76.2451 135.588 76.2599 135.632 76.2896C135.692 76.3045 135.766 76.3639 135.855 76.4678C136.048 76.6758 136.263 76.8837 136.501 77.0916C136.739 77.2995 137.028 77.4703 137.37 77.604C137.726 77.7377 138.164 77.8045 138.684 77.8045C139.442 77.8045 140.065 77.6634 140.555 77.3812C141.046 77.0842 141.291 76.6535 141.291 76.0891C141.291 75.7179 141.187 75.4208 140.979 75.198C140.786 74.9753 140.429 74.7748 139.909 74.5966C139.404 74.4183 138.706 74.2327 137.815 74.0396C136.924 73.8317 136.219 73.5792 135.699 73.2822C135.179 72.9703 134.808 72.6065 134.585 72.1906C134.362 71.7599 134.251 71.2773 134.251 70.7426C134.251 70.1931 134.414 69.6659 134.741 69.1609C135.068 68.6411 135.543 68.2178 136.167 67.8911C136.805 67.5644 137.6 67.401 138.551 67.401C139.323 67.401 139.984 67.4976 140.533 67.6906C141.083 67.8837 141.536 68.1287 141.892 68.4258C142.249 68.7079 142.516 68.9901 142.694 69.2723C142.872 69.5545 142.969 69.7921 142.984 69.9852C142.999 70.1337 142.954 70.2599 142.85 70.3639C142.746 70.453 142.627 70.4976 142.494 70.4976H141.558C141.454 70.4976 141.365 70.4753 141.291 70.4307C141.231 70.3862 141.172 70.3342 141.112 70.2748C140.964 70.0817 140.786 69.8886 140.578 69.6956C140.385 69.5025 140.125 69.3466 139.798 69.2278C139.486 69.0941 139.07 69.0273 138.551 69.0273C137.808 69.0273 137.251 69.1832 136.88 69.4951C136.508 69.807 136.323 70.2005 136.323 70.6758C136.323 70.9579 136.404 71.2104 136.568 71.4332C136.731 71.656 137.043 71.8565 137.503 72.0347C137.964 72.2129 138.647 72.406 139.553 72.6139C140.533 72.807 141.305 73.0669 141.87 73.3936C142.434 73.7203 142.835 74.099 143.073 74.5297C143.31 74.9604 143.429 75.4579 143.429 76.0223C143.429 76.6461 143.244 77.2179 142.872 77.7377C142.516 78.2575 141.981 78.6733 141.268 78.9852C140.57 79.2822 139.702 79.4307 138.662 79.4307ZM150.619 79.4307C149.09 79.4307 147.872 78.9629 146.966 78.0273C146.06 77.0768 145.562 75.7847 145.473 74.151C145.458 73.958 145.451 73.7129 145.451 73.4159C145.451 73.104 145.458 72.8515 145.473 72.6584C145.533 71.604 145.778 70.6832 146.208 69.8961C146.639 69.0941 147.226 68.4777 147.968 68.0471C148.726 67.6164 149.609 67.401 150.619 67.401C151.748 67.401 152.691 67.6386 153.448 68.1139C154.221 68.5891 154.807 69.2649 155.208 70.1411C155.609 71.0174 155.81 72.0421 155.81 73.2154V73.5941C155.81 73.7575 155.758 73.8837 155.654 73.9728C155.565 74.0619 155.446 74.1065 155.297 74.1065H147.59C147.59 74.1213 147.59 74.151 147.59 74.1956C147.59 74.2401 147.59 74.2773 147.59 74.307C147.619 74.9159 147.753 75.4877 147.99 76.0223C148.228 76.5421 148.57 76.9654 149.015 77.2921C149.461 77.6188 149.995 77.7822 150.619 77.7822C151.154 77.7822 151.599 77.7005 151.956 77.5372C152.312 77.3738 152.602 77.1956 152.825 77.0025C153.047 76.7946 153.196 76.6386 153.27 76.5347C153.404 76.3416 153.508 76.2302 153.582 76.2005C153.656 76.156 153.775 76.1337 153.939 76.1337H155.008C155.156 76.1337 155.275 76.1782 155.364 76.2674C155.468 76.3416 155.513 76.453 155.498 76.6015C155.483 76.8243 155.364 77.099 155.141 77.4258C154.919 77.7377 154.599 78.0495 154.184 78.3614C153.768 78.6733 153.263 78.9332 152.669 79.1411C152.075 79.3342 151.391 79.4307 150.619 79.4307ZM147.59 72.5693H153.693V72.5025C153.693 71.8342 153.567 71.2401 153.315 70.7203C153.077 70.2005 152.728 69.7921 152.268 69.4951C151.807 69.1832 151.258 69.0273 150.619 69.0273C149.981 69.0273 149.431 69.1832 148.971 69.4951C148.525 69.7921 148.184 70.2005 147.946 70.7203C147.708 71.2401 147.59 71.8342 147.59 72.5025V72.5693ZM166.85 83.4406C166.687 83.4406 166.56 83.3886 166.471 83.2847C166.382 83.1956 166.338 83.0768 166.338 82.9282V77.7599C165.966 78.2352 165.484 78.6362 164.89 78.9629C164.31 79.2748 163.59 79.4307 162.729 79.4307C161.912 79.4307 161.206 79.2896 160.612 79.0075C160.018 78.7104 159.528 78.3243 159.142 77.849C158.771 77.3589 158.489 76.802 158.296 76.1782C158.117 75.5396 158.013 74.8713 157.984 74.1733C157.969 73.9357 157.961 73.6832 157.961 73.4159C157.961 73.1485 157.969 72.8961 157.984 72.6584C158.013 71.9456 158.117 71.2773 158.296 70.6535C158.489 70.0297 158.771 69.4728 159.142 68.9827C159.528 68.4926 160.018 68.1065 160.612 67.8243C161.206 67.5421 161.912 67.401 162.729 67.401C163.62 67.401 164.362 67.5644 164.956 67.8911C165.551 68.2178 166.026 68.6263 166.382 69.1164V68.1362C166.382 67.9877 166.427 67.8688 166.516 67.7797C166.62 67.6758 166.746 67.6238 166.895 67.6238H167.919C168.068 67.6238 168.187 67.6758 168.276 67.7797C168.38 67.8688 168.432 67.9877 168.432 68.1362V82.9282C168.432 83.0768 168.38 83.1956 168.276 83.2847C168.187 83.3886 168.068 83.4406 167.919 83.4406H166.85ZM163.197 77.6263C163.909 77.6263 164.489 77.4629 164.934 77.1362C165.395 76.8094 165.736 76.3936 165.959 75.8886C166.197 75.3837 166.323 74.8713 166.338 74.3515C166.353 74.099 166.36 73.8094 166.36 73.4827C166.36 73.156 166.353 72.8738 166.338 72.6362C166.323 72.0867 166.204 71.552 165.981 71.0322C165.758 70.4976 165.417 70.0594 164.956 69.7179C164.511 69.3763 163.924 69.2055 163.197 69.2055C162.439 69.2055 161.838 69.3763 161.392 69.7179C160.947 70.0446 160.627 70.4827 160.434 71.0322C160.241 71.5669 160.13 72.1461 160.1 72.7698C160.085 73.2005 160.085 73.6312 160.1 74.0619C160.13 74.6857 160.241 75.2723 160.434 75.8218C160.627 76.3565 160.947 76.7946 161.392 77.1362C161.838 77.4629 162.439 77.6263 163.197 77.6263Z" fill="white"/>
<path fill-rule="evenodd" clip-rule="evenodd" d="M195.184 22.0569C191.737 22.2555 189.663 23.2487 188.431 25.2926C188.045 25.9312 187.604 27.2431 187.437 28.2499C187.141 30.0234 187.024 45.6788 187.299 46.5259C187.448 46.9807 188.183 47.6948 188.646 47.8328C189.749 48.1627 190.824 47.7023 191.299 46.6967L191.502 46.2691L191.505 39.6775C191.509 32.4065 191.587 29.4715 191.799 28.5562C192.001 27.6862 192.296 27.1986 192.783 26.9337C193.485 26.5513 194.124 26.4554 196.611 26.3588C199.658 26.2406 229.708 26.3118 230.607 26.4393C232.687 26.7351 233.19 27.2629 233.471 29.4479C233.626 30.6484 233.622 53.5995 233.467 54.8879C233.218 56.9547 232.843 57.4473 231.217 57.8353C230.625 57.9764 229.543 57.99 215.601 58.0346C201.415 58.0797 200.602 58.0903 200.278 58.2363C198.894 58.8594 198.523 60.6521 199.561 61.7004C200.235 62.3818 200.067 62.3571 204.359 62.4054L208.184 62.4481L205.539 65.9771C202.681 69.7915 202.546 70.0192 202.677 70.8187C202.921 72.3138 204.452 73.1158 205.787 72.4481C206.255 72.2141 206.364 72.0805 209.395 68.0372C211.113 65.7445 212.538 63.8682 212.562 63.8682C212.585 63.8682 214.01 65.7445 215.729 68.0372C218.759 72.0805 218.868 72.2141 219.337 72.4481C220.671 73.1158 222.203 72.3138 222.447 70.8187C222.577 70.0192 222.442 69.7915 219.584 65.9771L216.94 62.4481L223.632 62.3955C230.655 62.341 231.134 62.3163 232.661 61.9295C235.57 61.193 237.226 59.2091 237.731 55.8564C237.96 54.3335 238.07 38.9467 237.9 32.1874C237.813 28.7233 237.725 27.9448 237.268 26.6057C236.403 24.0742 234.625 22.7085 231.523 22.1942C230.747 22.0655 229.028 22.0513 213.161 22.0408C203.533 22.0346 195.444 22.042 195.184 22.0569Z" fill="url(#paint0_linear_421_664)"/>
<path fill-rule="evenodd" clip-rule="evenodd" d="M196.807 31.9845C196.492 32.1411 196.171 32.4672 196.034 32.7722C195.778 33.3409 195.952 34.1126 196.429 34.5328C196.924 34.9684 195.432 34.9319 212.612 34.9319C229.698 34.9319 228.295 34.9641 228.769 34.5587C229.263 34.1355 229.45 33.3477 229.191 32.7722C229.052 32.4653 228.728 32.1361 228.412 31.9833C228.177 31.8694 228.103 31.8688 212.609 31.8688C197.047 31.8688 197.041 31.8688 196.807 31.9845ZM197.145 39.9257C196.161 40.1219 195.631 41.2005 196.074 42.1058C196.254 42.4746 196.533 42.7203 196.945 42.8743C197.24 42.9851 197.435 42.987 212.612 42.987C227.789 42.987 227.984 42.9851 228.28 42.8743C228.692 42.7203 228.971 42.4746 229.151 42.1058C229.534 41.3217 229.193 40.3886 228.387 40.0154L228.127 39.8954L212.754 39.8867C204.299 39.8824 197.275 39.8997 197.145 39.9257ZM207.592 48.5984C207.151 48.7066 206.773 49.0309 206.563 49.4808C206.203 50.2549 206.606 51.2128 207.426 51.529C207.697 51.6342 208.01 51.6373 217.916 51.6373H228.127L228.382 51.5173C228.556 51.4272 228.716 51.3126 228.857 51.1769C229.599 50.4356 229.397 49.1943 228.458 48.7147L228.183 48.5742L217.973 48.5656C212.357 48.5606 207.686 48.5755 207.592 48.5984Z" fill="white"/>
<path d="M198.499 68.1764C196.82 67.5359 195.055 67.0675 193.243 66.7866C192.672 66.7005 192.102 66.9895 191.852 67.513L189.338 72.7148L186.83 67.513C186.58 66.9895 186.018 66.6925 185.44 66.7866C183.635 67.0675 181.862 67.5359 180.191 68.1764C178.277 68.9109 176.98 70.8008 176.98 72.8942V82.1034C176.98 82.8299 177.566 83.4233 178.3 83.4233H200.413C201.14 83.4233 201.733 82.8373 201.733 82.1034V72.8942C201.717 70.8008 200.437 68.9109 198.499 68.1764ZM199.093 80.7835H199.085H179.613V72.8942C179.613 71.8948 180.23 70.9883 181.144 70.6448C182.347 70.1764 183.62 69.8249 184.909 69.5594L188.166 76.3156C188.393 76.776 188.845 77.0656 189.353 77.0656C189.86 77.0656 190.321 76.776 190.54 76.3156L193.797 69.5594C195.086 69.8088 196.344 70.1764 197.562 70.6448C198.476 70.9883 199.093 71.8948 199.093 72.8942V80.7835Z" fill="url(#paint1_linear_421_664)"/>
<path d="M189.352 50.7426C185.611 50.7426 182.58 53.7809 182.58 57.5145C182.58 61.2481 185.626 64.2865 189.352 64.2865C193.086 64.2865 196.124 61.2559 196.124 57.5145C196.124 53.7731 193.094 50.7426 189.352 50.7426ZM189.352 61.6621C187.071 61.6621 185.228 59.8031 185.228 57.5223C185.228 55.2416 187.071 53.3825 189.352 53.3825C191.633 53.3825 193.492 55.2416 193.492 57.5223C193.492 59.8031 191.633 61.6621 189.352 61.6621Z" fill="url(#paint2_linear_421_664)"/>
<path d="M51.5528 72.5433C49.028 72.5433 46.726 72.2091 44.6468 71.5408C42.6047 70.9096 40.8226 69.9628 39.3003 68.7005C37.8151 67.4381 36.6641 65.8601 35.8473 63.9666C35.0305 62.073 34.6221 59.9195 34.6221 57.5062C34.6221 56.1695 34.8448 54.5915 35.2904 52.7722C35.7359 50.9158 36.3671 49.2079 37.184 47.6485C37.3696 47.3143 37.5924 47.0915 37.8523 46.9802C38.1122 46.8316 38.4649 46.8316 38.9104 46.9802L40.5812 47.5371C40.9896 47.6856 41.2124 47.9084 41.2495 48.2054C41.2867 48.4653 41.1939 48.8552 40.9711 49.375C40.377 50.6745 39.8943 51.974 39.5231 53.2735C39.1889 54.5359 39.0218 55.7425 39.0218 56.8935C39.0218 59.0841 39.5416 60.9591 40.5812 62.5185C41.6208 64.0779 43.1245 65.2661 45.0924 66.0829C47.0602 66.9368 49.3807 67.3638 52.054 67.3638H55.6184C57.8832 67.3638 59.7953 67.1225 61.3547 66.6398C62.9513 66.1571 64.2508 65.4888 65.2533 64.6349C66.2557 63.7809 67.0354 62.8156 67.5924 61.7388C68.1864 60.6992 68.6134 59.6411 68.8733 58.5643H64.9191C62.6543 58.5643 60.6864 58.2116 59.0156 57.5062C57.382 56.8007 56.1196 55.7797 55.2285 54.443C54.3374 53.0693 53.8919 51.417 53.8919 49.4864C53.8919 48.1868 54.1146 46.9616 54.5602 45.8106C55.0057 44.6596 55.6184 43.6386 56.3981 42.7475C57.2149 41.8193 58.2174 41.0953 59.4055 40.5755C60.6307 40.0557 61.9859 39.7958 63.4711 39.7958C65.8473 39.7958 67.7409 40.3898 69.1518 41.5779C70.5998 42.7661 71.658 44.3811 72.3263 46.4232C72.9946 48.4653 73.3473 50.8416 73.3844 53.5519H78.2297C78.7867 53.5519 79.0651 53.8304 79.0651 54.3873V57.2277C79.0651 58.3416 78.5082 58.8985 77.3943 58.8985H72.8832C72.5491 60.5693 72.0107 62.2215 71.2681 63.8552C70.5627 65.4888 69.5416 66.9554 68.205 68.2549C66.9055 69.5916 65.1976 70.6312 63.0812 71.3737C60.9649 72.1534 58.3659 72.5433 55.2842 72.5433H51.5528ZM64.9748 53.5519H69.3189C69.2075 50.6559 68.632 48.4282 67.5924 46.8688C66.5899 45.2722 65.0491 44.474 62.9698 44.474C61.7817 44.474 60.7978 44.7153 60.0181 45.198C59.2755 45.6807 58.7186 46.2747 58.3473 46.9802C58.0132 47.6856 57.8461 48.4096 57.8461 49.1522C57.8461 50.6373 58.4587 51.7512 59.684 52.4938C60.9463 53.1992 62.7099 53.5519 64.9748 53.5519ZM60.0738 33.8923C59.8882 34.0779 59.6654 34.1708 59.4055 34.1708C59.1456 34.1708 58.9043 34.0594 58.6815 33.8366L56.6765 31.776C56.4909 31.5532 56.3981 31.3304 56.3981 31.1076C56.3981 30.8477 56.4909 30.6064 56.6765 30.3836L58.6815 28.323C58.9043 28.1002 59.1456 27.9888 59.4055 27.9888C59.6654 27.9888 59.8882 28.1002 60.0738 28.323L62.1344 30.3836C62.3572 30.5693 62.4686 30.8106 62.4686 31.1076C62.5057 31.3675 62.4129 31.6089 62.1901 31.8316L60.0738 33.8923ZM68.3721 33.8923C68.1864 34.1151 67.9637 34.2079 67.7038 34.1708C67.4439 34.1336 67.2025 34.0222 66.9797 33.8366L64.8634 31.776C64.6778 31.5903 64.5849 31.3675 64.5849 31.1076C64.5849 30.8106 64.6778 30.5693 64.8634 30.3836L66.9797 28.323C67.2025 28.1002 67.4253 27.9888 67.6481 27.9888C67.8708 27.9888 68.0936 28.1002 68.3164 28.323L70.377 30.3836C70.5998 30.5693 70.7112 30.8106 70.7112 31.1076C70.7112 31.3675 70.5998 31.6089 70.377 31.8316L68.3721 33.8923ZM83.7502 25.1485C83.0819 25.297 82.7477 25.0557 82.7477 24.4245V23.4777C82.7477 22.9208 83.0076 22.5866 83.5274 22.4752L93.8863 19.969C94.5546 19.7834 94.8888 20.0247 94.8888 20.693V21.6398C94.8888 22.1967 94.6289 22.5309 94.1091 22.6423L83.7502 25.1485ZM86.2007 19.0779C85.0497 19.3007 84.1029 19.0965 83.3603 18.4653C82.6177 17.8341 82.2465 16.7017 82.2465 15.068V13.9542C82.2465 13.3972 82.5064 13.0631 83.0262 12.9517L83.7502 12.7289C84.3814 12.6175 84.697 12.8774 84.697 13.5086V14.5668C84.697 15.198 84.8269 15.625 85.0868 15.8477C85.3467 16.0705 85.718 16.1633 86.2007 16.1262C86.6833 16.0519 87.0175 15.8849 87.2031 15.625C87.4259 15.3279 87.5373 14.8453 87.5373 14.1769V12.8403C87.5373 12.2834 87.7972 11.9492 88.317 11.8378L89.0967 11.6708C89.7279 11.5594 90.0435 11.8193 90.0435 12.4505V13.62C90.0435 14.2141 90.1549 14.6225 90.3776 14.8453C90.6375 15.0309 90.9903 15.1052 91.4358 15.068C92.0299 14.9938 92.4197 14.8081 92.6054 14.5111C92.791 14.1769 92.8838 13.6571 92.8838 12.9517V11.7821C92.8838 11.2252 93.1437 10.8911 93.6635 10.7797L94.4432 10.6126C95.0744 10.5012 95.39 10.7611 95.39 11.3923V12.5062C95.39 14.2512 95.0559 15.5693 94.3875 16.4604C93.7564 17.3514 92.8653 17.8713 91.7143 18.0198C91.1202 18.094 90.5819 18.0755 90.0992 17.9641C89.6165 17.8156 89.1895 17.5185 88.8182 17.073C88.1128 18.224 87.2403 18.8923 86.2007 19.0779ZM94.3318 59.1213C93.515 59.1213 92.6239 59.0099 91.6586 58.7871C90.6932 58.5643 89.765 58.1002 88.8739 57.3948C88.02 56.6893 87.296 55.6312 86.7019 54.2203C86.1078 55.4455 85.3281 56.3923 84.3628 57.0606C83.3974 57.7289 82.3207 58.2116 81.1326 58.5086C79.9445 58.7685 78.7007 58.8985 77.4012 58.8985C76.8442 58.8985 76.5658 58.6015 76.5658 58.0074V55.2227C76.5658 54.1089 77.1227 53.5519 78.2366 53.5519C80.687 53.5519 82.3764 53.1807 83.3046 52.4381C84.27 51.6584 84.7526 50.2104 84.7526 48.094V43.5829C84.7526 43.1745 84.8455 42.8589 85.0311 42.6361C85.2539 42.4133 85.5695 42.3019 85.9779 42.3019H88.1499C88.9296 42.3019 89.3195 42.7289 89.3195 43.5829V48.2611C89.3195 50.3774 89.8021 51.8255 90.7675 52.6052C91.7328 53.3849 92.9767 53.7747 94.4989 53.7747C96.4296 53.7747 97.7291 53.292 98.3974 52.3267C99.1029 51.3614 99.4556 49.9319 99.4556 48.0383V43.6943C99.4556 43.2859 99.5484 42.9517 99.7341 42.6918C99.9569 42.4319 100.272 42.3019 100.681 42.3019H102.797C103.206 42.3019 103.503 42.4319 103.688 42.6918C103.911 42.9517 104.022 43.2859 104.022 43.6943V48.2054C104.022 50.2475 104.412 51.6955 105.192 52.5495C105.972 53.3663 107.308 53.7747 109.202 53.7747C111.133 53.7747 112.432 53.292 113.1 52.3267C113.769 51.3614 114.103 49.9319 114.103 48.0383V43.5829C114.103 43.2116 114.196 42.9146 114.381 42.6918C114.567 42.4319 114.845 42.3019 115.217 42.3019H117.556C117.927 42.3019 118.206 42.4319 118.391 42.6918C118.614 42.9146 118.725 43.2116 118.725 43.5829V48.094C118.725 50.099 119.208 51.5099 120.173 52.3267C121.139 53.1435 122.81 53.5519 125.186 53.5519H126.355C126.912 53.5519 127.191 53.8304 127.191 54.3873V57.2277C127.191 58.3416 126.615 58.8985 125.464 58.8985C123.162 58.8985 121.232 58.62 119.672 58.0631C118.113 57.469 116.888 56.5408 115.996 55.2784C115.402 56.6151 114.474 57.599 113.212 58.2302C111.949 58.8242 110.576 59.1213 109.091 59.1213C107.271 59.1213 105.712 58.8242 104.412 58.2302C103.113 57.599 102.092 56.6151 101.349 55.2784C100.718 56.6522 99.7712 57.6361 98.5088 58.2302C97.2836 58.8242 95.8913 59.1213 94.3318 59.1213ZM129.599 25.7673C128.931 25.9158 128.597 25.6745 128.597 25.0433V24.0965C128.597 23.5396 128.857 23.2054 129.376 23.094L139.735 20.5878C140.404 20.4022 140.738 20.6435 140.738 21.3118V22.2586C140.738 22.8156 140.478 23.1497 139.958 23.2611L129.599 25.7673ZM125.534 58.8985C124.977 58.8985 124.699 58.6015 124.699 58.0074V55.2227C124.699 54.1089 125.256 53.5519 126.37 53.5519H127.094C128.802 53.5519 130.12 53.125 131.048 52.271C131.976 51.417 132.44 49.8019 132.44 47.4257V41.8564C132.44 41.0024 132.849 40.5755 133.665 40.5755H135.782C136.599 40.5755 137.007 41.0024 137.007 41.8564V47.4257C137.007 49.8391 137.545 51.4727 138.622 52.3267C139.699 53.1435 141.221 53.5519 143.189 53.5519H144.191C144.748 53.5519 145.027 53.8304 145.027 54.3873V57.2277C145.027 58.3416 144.47 58.8985 143.356 58.8985C141.5 58.8985 139.754 58.5643 138.121 57.896C136.524 57.1906 135.225 55.8911 134.222 53.9975C133.405 55.9282 132.199 57.2277 130.602 57.896C129.006 58.5643 127.316 58.8985 125.534 58.8985ZM135.28 35.0062C135.095 35.1918 134.872 35.2846 134.612 35.2846C134.352 35.2475 134.111 35.1361 133.888 34.9505L131.772 32.8341C131.586 32.6113 131.493 32.37 131.493 32.1101C131.493 31.8502 131.586 31.6274 131.772 31.4418L133.888 29.3255C134.111 29.1398 134.334 29.047 134.556 29.047C134.816 29.0099 135.039 29.1027 135.225 29.3255L137.341 31.4418C137.861 31.9616 137.879 32.4443 137.397 32.8898L135.28 35.0062ZM156.63 25.1485C155.962 25.297 155.628 25.0557 155.628 24.4245V23.5891C155.628 23.1064 155.888 22.8094 156.407 22.698L158.914 22.0854C160.213 21.7512 161.271 21.417 162.088 21.0829C162.905 20.7487 163.666 20.3403 164.371 19.8576L165.151 20.4703C164.817 20.6188 164.334 20.693 163.703 20.693C162.404 20.693 161.42 20.3217 160.751 19.5792C160.12 18.8366 159.805 18.0569 159.805 17.2401C159.805 16.0891 160.194 15.068 160.974 14.1769C161.754 13.2859 162.812 12.8403 164.149 12.8403C165.114 12.8403 165.949 13.1559 166.655 13.7871C167.36 14.4183 167.713 15.3279 167.713 16.5161C167.713 18.4839 166.989 20.1361 165.541 21.4727C164.093 22.8094 162.162 23.7747 159.749 24.3688L156.63 25.1485ZM163.703 18.4653C164.186 18.4653 164.576 18.2982 164.873 17.9641C165.17 17.6299 165.318 17.2401 165.318 16.7945C165.318 16.3118 165.17 15.922 164.873 15.625C164.576 15.3279 164.186 15.1794 163.703 15.1794C163.22 15.1794 162.812 15.3465 162.478 15.6807C162.181 15.9777 162.032 16.3861 162.032 16.9059C162.032 17.3514 162.181 17.7227 162.478 18.0198C162.812 18.3168 163.22 18.4653 163.703 18.4653ZM163.702 59.2326C162.848 59.2326 162.05 59.1584 161.307 59.0099C160.565 58.8985 159.766 58.6943 158.912 58.3972C158.095 58.0631 157.112 57.599 155.961 57.0049C154.81 56.3737 153.362 55.5569 151.617 54.5544C150.725 55.8539 149.816 56.8193 148.888 57.4505C147.959 58.0445 147.031 58.4344 146.103 58.62C145.212 58.8057 144.302 58.8985 143.374 58.8985C142.817 58.8985 142.539 58.62 142.539 58.0631V55.2227C142.539 54.1089 143.095 53.5519 144.209 53.5519C144.989 53.5519 145.676 53.4406 146.27 53.2178C146.864 52.995 147.477 52.5309 148.108 51.8255C148.776 51.12 149.537 50.0062 150.391 48.4839C151.839 45.9962 153.176 44.1027 154.401 42.8032C155.664 41.5037 156.889 40.6126 158.077 40.1299C159.265 39.6472 160.49 39.4059 161.753 39.4059C163.498 39.4059 165.113 39.8886 166.598 40.8539C168.12 41.7821 169.327 43.0631 170.218 44.6967C171.109 46.2933 171.555 48.1683 171.555 50.3217C171.555 51.6955 171.369 52.9393 170.998 54.0532C170.626 55.167 170.088 56.1138 169.383 56.8935C168.677 57.6732 167.842 58.2673 166.876 58.6757C165.911 59.047 164.853 59.2326 163.702 59.2326ZM163.869 54.276C164.723 54.276 165.447 54.0161 166.041 53.4963C166.672 52.9764 166.988 51.974 166.988 50.4888C167.025 49.2264 166.765 48.1312 166.208 47.2029C165.688 46.2747 164.983 45.5507 164.092 45.0309C163.238 44.474 162.31 44.1955 161.307 44.1955C160.602 44.1955 159.896 44.344 159.191 44.6411C158.522 44.9381 157.78 45.5136 156.963 46.3675C156.183 47.2215 155.255 48.5396 154.178 50.3217C156.109 51.4727 157.631 52.3453 158.745 52.9393C159.896 53.4963 160.843 53.8675 161.586 54.0532C162.365 54.2017 163.126 54.276 163.869 54.276Z" fill="white"/>
<defs>
<linearGradient id="paint0_linear_421_664" x1="187.143" y1="47.362" x2="237.983" y2="47.362" gradientUnits="userSpaceOnUse">
<stop stop-color="#662DB5"/>
<stop offset="0.685" stop-color="#B01BEB"/>
</linearGradient>
<linearGradient id="paint1_linear_421_664" x1="176.98" y1="75.096" x2="201.733" y2="75.096" gradientUnits="userSpaceOnUse">
<stop stop-color="#662DB5"/>
<stop offset="0.685" stop-color="#B01BEB"/>
</linearGradient>
<linearGradient id="paint2_linear_421_664" x1="182.58" y1="57.5146" x2="196.124" y2="57.5146" gradientUnits="userSpaceOnUse">
<stop stop-color="#662DB5"/>
<stop offset="0.685" stop-color="#B01BEB"/>
</linearGradient>
</defs>
</svg>
