<svg width="500" height="196" viewBox="0 0 500 196" fill="none" xmlns="http://www.w3.org/2000/svg">
<path d="M157.128 158.416C156.831 158.416 156.579 158.327 156.371 158.149C156.193 157.941 156.104 157.688 156.104 157.391V128.297C156.104 127.97 156.193 127.718 156.371 127.54C156.579 127.332 156.831 127.228 157.128 127.228H159.356C159.712 127.228 159.98 127.317 160.158 127.495C160.336 127.673 160.44 127.822 160.47 127.941L169.915 145.941L179.406 127.941C179.465 127.822 179.569 127.673 179.717 127.495C179.896 127.317 180.163 127.228 180.519 127.228H182.703C183.029 127.228 183.282 127.332 183.46 127.54C183.668 127.718 183.772 127.97 183.772 128.297V157.391C183.772 157.688 183.668 157.941 183.46 158.149C183.282 158.327 183.029 158.416 182.703 158.416H180.519C180.222 158.416 179.97 158.327 179.762 158.149C179.584 157.941 179.495 157.688 179.495 157.391V135.47L172.054 149.995C171.935 150.292 171.757 150.53 171.519 150.708C171.282 150.856 170.985 150.931 170.628 150.931H169.247C168.861 150.931 168.549 150.856 168.311 150.708C168.104 150.53 167.925 150.292 167.777 149.995L160.336 135.47V157.391C160.336 157.688 160.232 157.941 160.024 158.149C159.846 158.327 159.608 158.416 159.311 158.416H157.128ZM199.542 158.861C197.641 158.861 196.022 158.446 194.685 157.614C193.378 156.753 192.383 155.564 191.7 154.05C191.017 152.535 190.675 150.797 190.675 148.837V136.272C190.675 135.975 190.764 135.738 190.943 135.559C191.151 135.352 191.403 135.248 191.7 135.248H193.928C194.225 135.248 194.462 135.352 194.641 135.559C194.849 135.738 194.953 135.975 194.953 136.272V148.614C194.953 153.04 196.883 155.253 200.745 155.253C202.586 155.253 204.056 154.673 205.156 153.515C206.284 152.327 206.849 150.693 206.849 148.614V136.272C206.849 135.975 206.938 135.738 207.116 135.559C207.324 135.352 207.576 135.248 207.873 135.248H210.056C210.383 135.248 210.636 135.352 210.814 135.559C210.992 135.738 211.081 135.975 211.081 136.272V157.391C211.081 157.688 210.992 157.941 210.814 158.149C210.636 158.327 210.383 158.416 210.056 158.416H208.007C207.71 158.416 207.457 158.327 207.25 158.149C207.071 157.941 206.982 157.688 206.982 157.391V155.431C206.18 156.47 205.2 157.302 204.042 157.926C202.913 158.55 201.413 158.861 199.542 158.861ZM218.725 158.416C218.428 158.416 218.175 158.327 217.967 158.149C217.789 157.941 217.7 157.688 217.7 157.391V136.272C217.7 135.975 217.789 135.738 217.967 135.559C218.175 135.352 218.428 135.248 218.725 135.248H220.819C221.116 135.248 221.354 135.352 221.532 135.559C221.74 135.738 221.844 135.975 221.844 136.272V138.233C222.616 137.223 223.581 136.406 224.74 135.782C225.928 135.129 227.443 134.802 229.284 134.802C231.215 134.802 232.849 135.233 234.185 136.094C235.552 136.926 236.576 138.099 237.259 139.614C237.943 141.099 238.284 142.837 238.284 144.827V157.391C238.284 157.688 238.195 157.941 238.017 158.149C237.839 158.327 237.601 158.416 237.304 158.416H235.076C234.779 158.416 234.527 158.327 234.319 158.149C234.141 157.941 234.052 157.688 234.052 157.391V145.05C234.052 142.97 233.547 141.352 232.537 140.193C231.527 139.005 230.042 138.411 228.081 138.411C226.24 138.411 224.755 139.005 223.626 140.193C222.527 141.352 221.977 142.97 221.977 145.05V157.391C221.977 157.688 221.873 157.941 221.665 158.149C221.487 158.327 221.25 158.416 220.953 158.416H218.725ZM251.18 158.861C249.695 158.861 248.344 158.564 247.126 157.97C245.908 157.376 244.928 156.574 244.185 155.564C243.443 154.555 243.071 153.411 243.071 152.134C243.071 150.084 243.903 148.451 245.566 147.233C247.23 146.015 249.398 145.213 252.071 144.827L258.71 143.891V142.599C258.71 141.173 258.294 140.059 257.462 139.257C256.66 138.455 255.339 138.055 253.497 138.055C252.16 138.055 251.076 138.322 250.245 138.856C249.443 139.391 248.878 140.074 248.552 140.906C248.373 141.352 248.061 141.574 247.616 141.574H245.611C245.284 141.574 245.032 141.485 244.854 141.307C244.705 141.099 244.631 140.861 244.631 140.594C244.631 140.149 244.794 139.599 245.121 138.946C245.477 138.292 246.012 137.654 246.725 137.03C247.438 136.406 248.344 135.886 249.443 135.47C250.571 135.025 251.938 134.802 253.542 134.802C255.324 134.802 256.824 135.04 258.042 135.515C259.259 135.96 260.21 136.569 260.893 137.342C261.606 138.114 262.111 138.99 262.408 139.97C262.735 140.951 262.898 141.946 262.898 142.956V157.391C262.898 157.688 262.794 157.941 262.586 158.149C262.408 158.327 262.17 158.416 261.873 158.416H259.824C259.497 158.416 259.245 158.327 259.066 158.149C258.888 157.941 258.799 157.688 258.799 157.391V155.475C258.413 156.01 257.893 156.545 257.24 157.079C256.586 157.584 255.769 158.015 254.789 158.371C253.809 158.698 252.606 158.861 251.18 158.861ZM252.116 155.52C253.334 155.52 254.448 155.267 255.457 154.762C256.467 154.228 257.254 153.411 257.819 152.312C258.413 151.213 258.71 149.832 258.71 148.168V146.921L253.542 147.678C251.433 147.975 249.844 148.48 248.774 149.193C247.705 149.876 247.17 150.753 247.17 151.822C247.17 152.654 247.408 153.352 247.883 153.916C248.388 154.451 249.012 154.852 249.755 155.119C250.527 155.386 251.314 155.52 252.116 155.52ZM277.324 158.861C275.66 158.861 274.235 158.654 273.047 158.238C271.858 157.822 270.893 157.317 270.151 156.723C269.408 156.129 268.844 155.535 268.457 154.941C268.101 154.347 267.908 153.871 267.878 153.515C267.849 153.188 267.953 152.936 268.19 152.757C268.428 152.579 268.665 152.49 268.903 152.49H270.863C271.042 152.49 271.175 152.52 271.264 152.579C271.383 152.609 271.532 152.728 271.71 152.936C272.096 153.352 272.527 153.767 273.002 154.183C273.477 154.599 274.056 154.941 274.74 155.208C275.453 155.475 276.329 155.609 277.368 155.609C278.883 155.609 280.131 155.327 281.111 154.762C282.091 154.168 282.581 153.307 282.581 152.178C282.581 151.436 282.373 150.842 281.957 150.396C281.571 149.951 280.858 149.55 279.819 149.193C278.809 148.837 277.413 148.465 275.631 148.079C273.849 147.663 272.438 147.158 271.398 146.564C270.358 145.941 269.616 145.213 269.17 144.381C268.725 143.52 268.502 142.555 268.502 141.485C268.502 140.386 268.829 139.332 269.482 138.322C270.136 137.282 271.086 136.436 272.334 135.782C273.611 135.129 275.2 134.802 277.101 134.802C278.646 134.802 279.967 134.995 281.066 135.381C282.165 135.767 283.071 136.257 283.784 136.852C284.497 137.416 285.032 137.98 285.388 138.545C285.745 139.109 285.938 139.584 285.967 139.97C285.997 140.267 285.908 140.52 285.7 140.728C285.492 140.906 285.255 140.995 284.987 140.995H283.116C282.908 140.995 282.73 140.951 282.581 140.861C282.462 140.772 282.344 140.668 282.225 140.55C281.928 140.163 281.571 139.777 281.155 139.391C280.769 139.005 280.25 138.693 279.596 138.456C278.972 138.188 278.141 138.055 277.101 138.055C275.616 138.055 274.502 138.366 273.759 138.99C273.017 139.614 272.646 140.401 272.646 141.352C272.646 141.916 272.809 142.421 273.136 142.866C273.462 143.312 274.086 143.713 275.007 144.069C275.928 144.426 277.294 144.812 279.106 145.228C281.066 145.614 282.611 146.134 283.74 146.787C284.868 147.441 285.67 148.198 286.146 149.059C286.621 149.921 286.858 150.916 286.858 152.045C286.858 153.292 286.487 154.436 285.745 155.475C285.032 156.515 283.962 157.347 282.537 157.97C281.141 158.564 279.403 158.861 277.324 158.861ZM301.238 158.861C298.179 158.861 295.743 157.926 293.931 156.055C292.12 154.154 291.125 151.569 290.946 148.302C290.917 147.916 290.902 147.426 290.902 146.832C290.902 146.208 290.917 145.703 290.946 145.317C291.065 143.208 291.555 141.366 292.417 139.792C293.278 138.188 294.451 136.955 295.936 136.094C297.451 135.233 299.219 134.802 301.238 134.802C303.496 134.802 305.382 135.277 306.897 136.228C308.441 137.178 309.615 138.53 310.417 140.282C311.219 142.035 311.62 144.084 311.62 146.431V147.188C311.62 147.515 311.516 147.767 311.308 147.946C311.13 148.124 310.892 148.213 310.595 148.213H295.179C295.179 148.243 295.179 148.302 295.179 148.391C295.179 148.48 295.179 148.555 295.179 148.614C295.238 149.832 295.506 150.975 295.981 152.045C296.456 153.084 297.139 153.931 298.031 154.584C298.922 155.238 299.991 155.564 301.238 155.564C302.308 155.564 303.199 155.401 303.912 155.074C304.625 154.748 305.204 154.391 305.649 154.005C306.095 153.589 306.392 153.277 306.54 153.069C306.808 152.683 307.016 152.46 307.164 152.401C307.313 152.312 307.55 152.267 307.877 152.267H310.016C310.313 152.267 310.55 152.356 310.729 152.535C310.936 152.683 311.026 152.906 310.996 153.203C310.966 153.649 310.729 154.198 310.283 154.852C309.837 155.475 309.199 156.099 308.367 156.723C307.535 157.347 306.526 157.866 305.337 158.282C304.149 158.668 302.783 158.861 301.238 158.861ZM295.179 145.139H307.387V145.005C307.387 143.668 307.134 142.48 306.63 141.441C306.154 140.401 305.456 139.584 304.535 138.99C303.615 138.366 302.516 138.055 301.238 138.055C299.961 138.055 298.862 138.366 297.941 138.99C297.05 139.584 296.367 140.401 295.892 141.441C295.417 142.48 295.179 143.668 295.179 145.005V145.139ZM333.7 166.881C333.373 166.881 333.121 166.777 332.943 166.569C332.764 166.391 332.675 166.154 332.675 165.856V155.52C331.933 156.47 330.967 157.272 329.779 157.926C328.621 158.55 327.18 158.861 325.457 158.861C323.824 158.861 322.413 158.579 321.225 158.015C320.037 157.421 319.057 156.649 318.284 155.698C317.542 154.718 316.977 153.604 316.591 152.356C316.235 151.079 316.027 149.743 315.967 148.347C315.938 147.871 315.923 147.366 315.923 146.832C315.923 146.297 315.938 145.792 315.967 145.317C316.027 143.891 316.235 142.555 316.591 141.307C316.977 140.059 317.542 138.946 318.284 137.965C319.057 136.985 320.037 136.213 321.225 135.649C322.413 135.084 323.824 134.802 325.457 134.802C327.24 134.802 328.725 135.129 329.913 135.782C331.101 136.436 332.052 137.253 332.764 138.233V136.272C332.764 135.975 332.854 135.738 333.032 135.559C333.24 135.352 333.492 135.248 333.789 135.248H335.839C336.136 135.248 336.373 135.352 336.552 135.559C336.759 135.738 336.863 135.975 336.863 136.272V165.856C336.863 166.154 336.759 166.391 336.552 166.569C336.373 166.777 336.136 166.881 335.839 166.881H333.7ZM326.393 155.253C327.819 155.253 328.977 154.926 329.868 154.272C330.789 153.619 331.472 152.787 331.918 151.777C332.393 150.767 332.646 149.743 332.675 148.703C332.705 148.198 332.72 147.619 332.72 146.965C332.72 146.312 332.705 145.748 332.675 145.272C332.646 144.173 332.408 143.104 331.962 142.064C331.517 140.995 330.834 140.119 329.913 139.436C329.022 138.753 327.849 138.411 326.393 138.411C324.878 138.411 323.675 138.753 322.784 139.436C321.893 140.089 321.254 140.965 320.868 142.064C320.482 143.134 320.259 144.292 320.2 145.54C320.17 146.401 320.17 147.262 320.2 148.124C320.259 149.371 320.482 150.545 320.868 151.644C321.254 152.713 321.893 153.589 322.784 154.272C323.675 154.926 324.878 155.253 326.393 155.253Z" fill="white"/>
<path fill-rule="evenodd" clip-rule="evenodd" d="M390.369 44.1136C383.474 44.5109 379.327 46.4972 376.861 50.5851C376.09 51.8623 375.209 54.4861 374.874 56.4997C374.282 60.0467 374.048 91.3574 374.599 93.0517C374.896 93.9613 376.366 95.3896 377.292 95.6656C379.499 96.3252 381.648 95.4044 382.599 93.3933L383.004 92.5381L383.011 79.3549C383.018 64.8128 383.173 58.9428 383.598 57.1123C384.001 55.3722 384.591 54.397 385.565 53.8673C386.97 53.1024 388.247 52.9106 393.221 52.7175C399.315 52.4812 459.416 52.6235 461.214 52.8784C465.375 53.47 466.381 54.5257 466.943 58.8958C467.252 61.2967 467.244 107.199 466.934 109.776C466.437 113.909 465.685 114.895 462.434 115.671C461.25 115.953 459.086 115.98 431.202 116.069C402.83 116.159 401.204 116.18 400.555 116.472C397.788 117.719 397.046 121.304 399.121 123.401C400.47 124.764 400.133 124.714 408.719 124.811L416.367 124.896L411.079 131.954C405.362 139.583 405.093 140.038 405.354 141.637C405.841 144.627 408.904 146.231 411.574 144.896C412.511 144.428 412.729 144.161 418.789 136.074C422.226 131.489 425.077 127.736 425.124 127.736C425.171 127.736 428.021 131.489 431.458 136.074C437.518 144.161 437.736 144.428 438.673 144.896C441.343 146.231 444.406 144.627 444.893 141.637C445.154 140.038 444.885 139.583 439.168 131.954L433.88 124.896L447.263 124.791C461.309 124.682 462.267 124.632 465.323 123.859C471.14 122.386 474.453 118.418 475.461 111.713C475.921 108.667 476.141 77.8933 475.801 64.3747C475.626 57.4465 475.45 55.8896 474.536 53.2114C472.807 48.1482 469.25 45.4168 463.046 44.3883C461.494 44.1309 458.057 44.1024 426.322 44.0814C407.065 44.069 390.887 44.0839 390.369 44.1136Z" fill="url(#paint0_linear_421_664)"/>
<path fill-rule="evenodd" clip-rule="evenodd" d="M393.614 63.9691C392.982 64.2822 392.341 64.9345 392.067 65.5446C391.556 66.682 391.902 68.2253 392.856 69.0656C393.846 69.9369 390.864 69.8639 425.224 69.8639C459.395 69.8639 456.589 69.9283 457.537 69.1176C458.526 68.2711 458.898 66.6956 458.381 65.5446C458.104 64.9307 457.455 64.2723 456.823 63.9666C456.353 63.7389 456.204 63.7377 425.216 63.7377C394.093 63.7377 394.082 63.7377 393.614 63.9691ZM394.289 79.8515C392.322 80.2439 391.261 82.401 392.147 84.2117C392.507 84.9493 393.064 85.4406 393.888 85.7488C394.48 85.9703 394.87 85.9741 425.224 85.9741C455.578 85.9741 455.968 85.9703 456.559 85.7488C457.383 85.4406 457.94 84.9493 458.301 84.2117C459.068 82.6436 458.386 80.7773 456.773 80.031L456.252 79.7909L425.507 79.7736C408.598 79.7649 394.549 79.7995 394.289 79.8515ZM415.183 97.1968C414.301 97.4134 413.544 98.0619 413.125 98.9617C412.405 100.51 413.21 102.426 414.85 103.058C415.393 103.269 416.018 103.275 435.832 103.275H456.252L456.762 103.035C457.111 102.855 457.432 102.625 457.714 102.354C459.197 100.871 458.793 98.3887 456.914 97.4295L456.365 97.1486L435.944 97.1312C424.713 97.1213 415.371 97.151 415.183 97.1968Z" fill="white"/>
<path d="M396.997 136.353C393.639 135.072 390.108 134.135 386.485 133.573C385.344 133.401 384.204 133.979 383.704 135.026L378.674 145.429L373.659 135.026C373.159 133.979 372.034 133.385 370.878 133.573C367.269 134.135 363.724 135.072 360.381 136.353C356.553 137.822 353.96 141.601 353.96 145.788V164.207C353.96 165.66 355.132 166.846 356.6 166.846H400.825C402.278 166.846 403.465 165.674 403.465 164.207V145.788C403.434 141.601 400.872 137.822 396.997 136.353ZM398.185 161.567H398.169H359.225V145.788C359.225 143.79 360.459 141.976 362.287 141.29C364.693 140.353 367.238 139.65 369.816 139.119L376.33 152.631C376.784 153.552 377.689 154.131 378.705 154.131C379.72 154.131 380.642 153.552 381.079 152.631L387.594 139.119C390.172 139.618 392.686 140.353 395.123 141.29C396.951 141.976 398.185 143.79 398.185 145.788V161.567Z" fill="url(#paint1_linear_421_664)"/>
<path d="M378.706 101.485C371.223 101.485 365.161 107.562 365.161 115.029C365.161 122.496 371.254 128.573 378.706 128.573C386.172 128.573 392.249 122.512 392.249 115.029C392.249 107.546 386.188 101.485 378.706 101.485ZM378.706 123.324C374.144 123.324 370.457 119.606 370.457 115.045C370.457 110.483 374.144 106.765 378.706 106.765C383.266 106.765 386.985 110.483 386.985 115.045C386.985 119.606 383.266 123.324 378.706 123.324Z" fill="url(#paint2_linear_421_664)"/>
<path d="M103.107 145.087C98.057 145.087 93.453 144.418 89.2946 143.082C85.2105 141.819 81.6461 139.926 78.6016 137.401C75.6313 134.876 73.3293 131.72 71.6956 127.933C70.0619 124.146 69.2451 119.839 69.2451 115.012C69.2451 112.339 69.6907 109.183 70.5817 105.545C71.4728 101.832 72.7352 98.4159 74.3689 95.2971C74.7402 94.6288 75.1857 94.1832 75.7055 93.9604C76.2253 93.6634 76.9308 93.6634 77.8219 93.9604L81.1634 95.0743C81.9803 95.3713 82.4258 95.8169 82.5001 96.4109C82.5743 96.9307 82.3887 97.7104 81.9431 98.7501C80.755 101.349 79.7897 103.948 79.0471 106.547C78.3788 109.072 78.0446 111.485 78.0446 113.787C78.0446 118.168 79.0842 121.918 81.1634 125.037C83.2426 128.156 86.2501 130.532 90.1857 132.166C94.1214 133.874 98.7624 134.728 104.109 134.728H111.238C115.767 134.728 119.592 134.245 122.71 133.28C125.904 132.314 128.503 130.978 130.507 129.27C132.512 127.562 134.072 125.631 135.186 123.478C136.374 121.399 137.228 119.282 137.748 117.129H129.839C125.309 117.129 121.374 116.423 118.032 115.012C114.765 113.602 112.24 111.559 110.458 108.886C108.676 106.139 107.785 102.834 107.785 98.9728C107.785 96.3738 108.23 93.9233 109.121 91.6213C110.012 89.3194 111.238 87.2773 112.797 85.4951C114.431 83.6387 116.436 82.1906 118.812 81.151C121.262 80.1114 123.973 79.5916 126.943 79.5916C131.696 79.5916 135.483 80.7798 138.305 83.156C141.201 85.5322 143.317 88.7624 144.654 92.8466C145.99 96.9307 146.696 101.683 146.77 107.104H156.46C157.574 107.104 158.131 107.661 158.131 108.775V114.456C158.131 116.683 157.017 117.797 154.79 117.797H145.767C145.099 121.139 144.022 124.443 142.537 127.71C141.126 130.978 139.084 133.911 136.411 136.51C133.812 139.183 130.396 141.262 126.163 142.748C121.931 144.307 116.733 145.087 110.569 145.087H103.107ZM129.951 107.104H138.639C138.416 101.312 137.265 96.8565 135.186 93.7377C133.181 90.5446 130.099 88.9481 125.941 88.9481C123.564 88.9481 121.597 89.4307 120.037 90.3961C118.552 91.3614 117.438 92.5496 116.696 93.9604C116.027 95.3713 115.693 96.8194 115.693 98.3045C115.693 101.275 116.918 103.503 119.369 104.988C121.894 106.399 125.421 107.104 129.951 107.104ZM120.149 67.7847C119.777 68.156 119.332 68.3416 118.812 68.3416C118.292 68.3416 117.809 68.1189 117.364 67.6733L113.354 63.552C112.983 63.1065 112.797 62.6609 112.797 62.2154C112.797 61.6956 112.983 61.2129 113.354 60.7674L117.364 56.6461C117.809 56.2005 118.292 55.9778 118.812 55.9778C119.332 55.9778 119.777 56.2005 120.149 56.6461L124.27 60.7674C124.715 61.1387 124.938 61.6213 124.938 62.2154C125.012 62.7352 124.827 63.2179 124.381 63.6634L120.149 67.7847ZM136.745 67.7847C136.374 68.2302 135.928 68.4159 135.408 68.3416C134.889 68.2674 134.406 68.0446 133.96 67.6733L129.728 63.552C129.357 63.1807 129.171 62.7352 129.171 62.2154C129.171 61.6213 129.357 61.1387 129.728 60.7674L133.96 56.6461C134.406 56.2005 134.852 55.9778 135.297 55.9778C135.743 55.9778 136.188 56.2005 136.634 56.6461L140.755 60.7674C141.201 61.1387 141.423 61.6213 141.423 62.2154C141.423 62.7352 141.201 63.2179 140.755 63.6634L136.745 67.7847ZM167.501 50.2971C166.165 50.5941 165.496 50.1114 165.496 48.8491V46.9555C165.496 45.8416 166.016 45.1733 167.056 44.9505L187.774 39.9382C189.11 39.5669 189.779 40.0496 189.779 41.3862V43.2798C189.779 44.3936 189.259 45.0619 188.219 45.2847L167.501 50.2971ZM172.402 38.156C170.1 38.6015 168.207 38.1931 166.722 36.9307C165.236 35.6684 164.494 33.4035 164.494 30.1362V27.9085C164.494 26.7946 165.014 26.1263 166.053 25.9035L167.501 25.458C168.764 25.2352 169.395 25.755 169.395 27.0174V29.1337C169.395 30.3961 169.655 31.25 170.175 31.6956C170.694 32.1411 171.437 32.3268 172.402 32.2525C173.368 32.104 174.036 31.7698 174.407 31.25C174.853 30.656 175.076 29.6906 175.076 28.354V25.6807C175.076 24.5669 175.595 23.8986 176.635 23.6758L178.194 23.3416C179.457 23.1189 180.088 23.6387 180.088 24.901V27.2401C180.088 28.4283 180.311 29.2451 180.756 29.6906C181.276 30.0619 181.982 30.2104 182.873 30.1362C184.061 29.9877 184.84 29.6164 185.212 29.0223C185.583 28.354 185.769 27.3144 185.769 25.9035V23.5644C185.769 22.4505 186.288 21.7822 187.328 21.5595L188.887 21.2253C190.15 21.0025 190.781 21.5223 190.781 22.7847V25.0124C190.781 28.5025 190.113 31.1387 188.776 32.9208C187.514 34.703 185.732 35.7426 183.43 36.0397C182.241 36.1882 181.165 36.151 180.199 35.9283C179.234 35.6312 178.38 35.0372 177.637 34.1461C176.227 36.4481 174.482 37.7847 172.402 38.156ZM188.665 118.243C187.031 118.243 185.249 118.02 183.318 117.574C181.387 117.129 179.531 116.201 177.749 114.79C176.041 113.379 174.593 111.262 173.405 108.441C172.217 110.891 170.657 112.785 168.727 114.121C166.796 115.458 164.642 116.423 162.266 117.017C159.89 117.537 157.402 117.797 154.803 117.797C153.689 117.797 153.133 117.203 153.133 116.015V110.446C153.133 108.218 154.246 107.104 156.474 107.104C161.375 107.104 164.754 106.361 166.61 104.876C168.541 103.317 169.506 100.421 169.506 96.1882V87.1659C169.506 86.3491 169.692 85.7179 170.063 85.2723C170.509 84.8268 171.14 84.604 171.957 84.604H176.301C177.86 84.604 178.64 85.458 178.64 87.1659V96.5223C178.64 100.755 179.605 103.651 181.536 105.21C183.467 106.77 185.954 107.55 188.999 107.55C192.86 107.55 195.459 106.584 196.796 104.654C198.207 102.723 198.912 99.8639 198.912 96.0768V87.3887C198.912 86.5718 199.098 85.9035 199.469 85.3837C199.915 84.8639 200.546 84.604 201.363 84.604H205.595C206.412 84.604 207.006 84.8639 207.378 85.3837C207.823 85.9035 208.046 86.5718 208.046 87.3887V96.4109C208.046 100.495 208.826 103.391 210.385 105.099C211.944 106.733 214.618 107.55 218.405 107.55C222.266 107.55 224.865 106.584 226.202 104.654C227.538 102.723 228.207 99.8639 228.207 96.0768V87.1659C228.207 86.4233 228.392 85.8293 228.764 85.3837C229.135 84.8639 229.692 84.604 230.434 84.604H235.113C235.855 84.604 236.412 84.8639 236.783 85.3837C237.229 85.8293 237.452 86.4233 237.452 87.1659V96.1882C237.452 100.198 238.417 103.02 240.348 104.654C242.279 106.287 245.62 107.104 250.373 107.104H252.712C253.826 107.104 254.383 107.661 254.383 108.775V114.456C254.383 116.683 253.232 117.797 250.93 117.797C246.326 117.797 242.464 117.24 239.345 116.126C236.227 114.938 233.776 113.082 231.994 110.557C230.806 113.23 228.949 115.198 226.425 116.46C223.9 117.649 221.152 118.243 218.182 118.243C214.543 118.243 211.425 117.649 208.826 116.46C206.227 115.198 204.184 113.23 202.699 110.557C201.437 113.305 199.543 115.272 197.019 116.46C194.568 117.649 191.783 118.243 188.665 118.243ZM259.199 51.5347C257.863 51.8317 257.194 51.3491 257.194 50.0867V48.1931C257.194 47.0793 257.714 46.4109 258.754 46.1882L279.472 41.1758C280.808 40.8045 281.477 41.2872 281.477 42.6238V44.5174C281.477 45.6312 280.957 46.2996 279.917 46.5223L259.199 51.5347ZM251.069 117.797C249.956 117.797 249.399 117.203 249.399 116.015V110.446C249.399 108.218 250.512 107.104 252.74 107.104H254.188C257.604 107.104 260.24 106.25 262.097 104.542C263.953 102.834 264.881 99.604 264.881 94.8515V83.7129C264.881 82.005 265.698 81.151 267.332 81.151H271.564C273.198 81.151 274.015 82.005 274.015 83.7129V94.8515C274.015 99.6783 275.092 102.946 277.245 104.654C279.399 106.287 282.443 107.104 286.379 107.104H288.384C289.498 107.104 290.055 107.661 290.055 108.775V114.456C290.055 116.683 288.941 117.797 286.713 117.797C283 117.797 279.51 117.129 276.243 115.792C273.05 114.381 270.451 111.782 268.446 107.995C266.812 111.856 264.399 114.455 261.206 115.792C258.012 117.129 254.634 117.797 251.069 117.797ZM270.562 70.0124C270.191 70.3837 269.745 70.5694 269.225 70.5694C268.706 70.4951 268.223 70.2723 267.777 69.901L263.545 65.6684C263.173 65.2228 262.988 64.7401 262.988 64.2203C262.988 63.7005 263.173 63.255 263.545 62.8837L267.777 58.651C268.223 58.2798 268.668 58.0941 269.114 58.0941C269.634 58.0199 270.079 58.2055 270.451 58.651L274.683 62.8837C275.723 63.9233 275.76 64.8887 274.795 65.7798L270.562 70.0124ZM313.261 50.2971C311.925 50.5941 311.256 50.1114 311.256 48.8491V47.1783C311.256 46.2129 311.776 45.6189 312.816 45.3961L317.828 44.1708C320.427 43.5025 322.543 42.8342 324.177 42.1659C325.811 41.4976 327.333 40.6807 328.744 39.7154L330.303 40.9406C329.635 41.2377 328.67 41.3862 327.407 41.3862C324.808 41.3862 322.84 40.6436 321.504 39.1585C320.241 37.6733 319.61 36.1139 319.61 34.4802C319.61 32.1783 320.39 30.1362 321.949 28.354C323.509 26.5718 325.625 25.6807 328.298 25.6807C330.229 25.6807 331.9 26.3119 333.311 27.5743C334.722 28.8367 335.427 30.656 335.427 33.0322C335.427 36.9679 333.979 40.2723 331.083 42.9456C328.187 45.6189 324.326 47.5496 319.499 48.7377L313.261 50.2971ZM327.407 36.9307C328.373 36.9307 329.152 36.5966 329.746 35.9283C330.34 35.2599 330.637 34.4802 330.637 33.5892C330.637 32.6238 330.34 31.8441 329.746 31.25C329.152 30.656 328.373 30.359 327.407 30.359C326.442 30.359 325.625 30.6931 324.957 31.3614C324.363 31.9555 324.066 32.7723 324.066 33.8119C324.066 34.703 324.363 35.4456 324.957 36.0397C325.625 36.6337 326.442 36.9307 327.407 36.9307ZM327.405 118.465C325.697 118.465 324.1 118.317 322.615 118.02C321.13 117.797 319.534 117.389 317.826 116.795C316.192 116.126 314.224 115.198 311.922 114.01C309.62 112.748 306.724 111.114 303.234 109.109C301.452 111.708 299.633 113.639 297.776 114.901C295.92 116.089 294.063 116.869 292.207 117.24C290.425 117.611 288.605 117.797 286.749 117.797C285.635 117.797 285.078 117.24 285.078 116.126V110.446C285.078 108.218 286.192 107.104 288.42 107.104C289.979 107.104 291.353 106.881 292.541 106.436C293.729 105.99 294.954 105.062 296.217 103.651C297.553 102.24 299.076 100.012 300.784 96.9679C303.68 91.9926 306.353 88.2055 308.803 85.6065C311.328 83.0075 313.779 81.2253 316.155 80.2599C318.531 79.2946 320.982 78.8119 323.506 78.8119C326.996 78.8119 330.227 79.7773 333.197 81.708C336.241 83.5644 338.655 86.1263 340.437 89.3936C342.219 92.5867 343.11 96.3367 343.11 100.644C343.11 103.391 342.739 105.879 341.996 108.106C341.254 110.334 340.177 112.228 338.766 113.787C337.355 115.347 335.684 116.535 333.754 117.352C331.823 118.094 329.707 118.465 327.405 118.465ZM327.739 108.552C329.447 108.552 330.895 108.032 332.083 106.993C333.345 105.953 333.977 103.948 333.977 100.978C334.051 98.453 333.531 96.2624 332.417 94.406C331.378 92.5496 329.967 91.1015 328.184 90.0619C326.477 88.9481 324.62 88.3911 322.615 88.3911C321.204 88.3911 319.793 88.6882 318.382 89.2822C317.046 89.8763 315.561 91.0273 313.927 92.7352C312.368 94.4431 310.511 97.0793 308.358 100.644C312.219 102.946 315.264 104.691 317.491 105.879C319.793 106.993 321.687 107.735 323.172 108.106C324.731 108.404 326.254 108.552 327.739 108.552Z" fill="white"/>
<defs>
<linearGradient id="paint0_linear_421_664" x1="374.287" y1="94.724" x2="475.966" y2="94.724" gradientUnits="userSpaceOnUse">
<stop stop-color="#662DB5"/>
<stop offset="0.685" stop-color="#B01BEB"/>
</linearGradient>
<linearGradient id="paint1_linear_421_664" x1="353.96" y1="150.192" x2="403.465" y2="150.192" gradientUnits="userSpaceOnUse">
<stop stop-color="#662DB5"/>
<stop offset="0.685" stop-color="#B01BEB"/>
</linearGradient>
<linearGradient id="paint2_linear_421_664" x1="365.161" y1="115.029" x2="392.249" y2="115.029" gradientUnits="userSpaceOnUse">
<stop stop-color="#662DB5"/>
<stop offset="0.685" stop-color="#B01BEB"/>
</linearGradient>
</defs>
</svg>
