<svg width="372" height="266" viewBox="0 0 372 266" fill="none" xmlns="http://www.w3.org/2000/svg">
<g opacity="0.2">
<path d="M422.256 567.566C295.336 587.954 76.7573 455.446 29.9773 364.764C-16.8027 274.083 70.7924 152.68 197.712 132.293C324.632 111.905 592.412 176.222 639.192 266.903" stroke="#949494" stroke-width="2"/>
<path d="M418.272 557.73C297.112 577.158 88.4715 450.623 43.8257 364.055C-0.820198 277.486 82.8118 161.63 203.972 142.203C325.132 122.775 580.748 184.234 625.394 270.803" stroke="#949494" stroke-width="2"/>
<path d="M414.321 547.802C298.93 566.304 100.225 445.795 57.7053 363.349C15.1854 280.903 94.8349 170.563 210.225 152.061C325.616 133.558 569.06 192.091 611.579 274.537" stroke="#949494" stroke-width="2"/>
<path d="M410.368 537.872C300.747 555.449 111.977 440.965 71.5829 362.642C31.189 284.318 106.856 179.496 216.477 161.918C326.098 144.341 557.37 199.947 597.763 278.271" stroke="#949494" stroke-width="2"/>
<path d="M406.418 527.944C302.567 544.597 123.732 436.138 85.4644 361.937C47.1965 287.735 118.881 188.43 222.733 171.778C326.584 155.126 545.683 207.805 583.951 282.006" stroke="#949494" stroke-width="2"/>
<path d="M402.467 518.016C304.385 533.743 135.486 431.31 99.344 361.231C63.2021 291.152 130.904 197.363 228.986 181.636C327.068 165.909 533.995 215.662 570.137 285.741" stroke="#949494" stroke-width="2"/>
<path d="M398.514 508.087C306.202 522.889 147.238 426.481 113.222 360.525C79.2057 294.568 142.925 206.296 235.238 191.494C327.55 176.692 522.305 223.519 556.321 289.475" stroke="#949494" stroke-width="2"/>
<path d="M394.561 498.158C308.018 512.035 158.989 421.653 127.099 359.819C95.2093 297.984 154.946 215.23 241.489 201.353C328.032 187.476 510.615 231.375 542.505 293.21" stroke="#949494" stroke-width="2"/>
<path d="M390.61 488.23C309.836 501.181 170.743 416.825 140.979 359.113C111.215 301.4 166.97 224.163 247.743 211.211C328.516 198.26 498.927 239.232 528.691 296.945" stroke="#949494" stroke-width="2"/>
<path d="M386.658 478.301C311.655 490.328 182.496 411.997 154.858 358.407C127.221 304.817 178.993 233.096 253.996 221.07C329 209.043 487.239 247.089 514.877 300.679" stroke="#949494" stroke-width="2"/>
<path d="M382.705 468.372C313.471 479.474 194.248 407.168 168.736 357.701C143.224 308.233 191.014 242.029 260.248 230.928C329.482 219.827 475.549 254.946 501.061 304.414" stroke="#949494" stroke-width="2"/>
<path d="M378.754 458.445C315.289 468.621 206.002 402.341 182.616 356.996C159.23 311.65 203.037 250.964 266.502 240.787C329.966 230.611 463.86 262.804 487.246 308.149" stroke="#949494" stroke-width="2"/>
<path d="M374.803 448.516C317.108 457.767 217.755 397.513 196.495 356.29C175.235 315.067 215.06 259.897 272.755 250.646C330.45 241.394 452.172 270.661 473.432 311.884" stroke="#949494" stroke-width="2"/>
<path d="M370.854 438.587C318.928 446.913 229.511 392.684 210.377 355.584C191.243 318.483 227.085 268.83 279.011 260.504C330.936 252.178 440.486 278.518 459.62 315.618" stroke="#949494" stroke-width="2"/>
<path d="M366.901 428.659C320.744 436.06 241.262 387.856 224.254 354.878C207.246 321.899 239.106 277.763 285.262 270.362C331.419 262.961 428.796 286.375 445.804 319.353" stroke="#949494" stroke-width="2"/>
<path d="M362.947 418.73C322.561 425.206 253.014 383.028 238.132 354.172C223.25 325.315 251.127 286.697 291.514 280.221C331.901 273.745 417.106 294.231 431.988 323.087" stroke="#949494" stroke-width="2"/>
</g>
</svg>
