<svg width="436" height="324" viewBox="0 0 436 324" fill="none" xmlns="http://www.w3.org/2000/svg">
<g opacity="0.5" clip-path="url(#clip0_1393_1844)">
<path d="M-253.875 712.955C-331.377 584.552 -235.331 331.171 -129.437 264.953C-23.5436 198.734 176.913 266.704 254.415 395.107C331.917 523.511 348.466 815.07 242.572 881.288" stroke="#949494" stroke-width="2"/>
<path d="M-241.825 706.924C-315.804 584.357 -224.124 342.493 -123.044 279.285C-21.9633 216.077 169.382 280.957 243.361 403.524C317.34 526.09 333.137 804.397 232.056 867.605" stroke="#949494" stroke-width="2"/>
<path d="M-229.775 700.893C-300.231 584.163 -212.917 353.816 -116.65 293.618C-20.3831 233.42 161.85 295.21 232.306 411.941C302.763 528.671 317.807 793.725 221.54 853.923" stroke="#949494" stroke-width="2"/>
<path d="M-217.725 694.862C-284.659 583.968 -201.71 365.139 -110.256 307.951C-18.8028 250.762 154.319 309.463 221.252 420.357C288.186 531.251 302.478 783.052 211.025 840.24" stroke="#949494" stroke-width="2"/>
<path d="M-205.675 688.831C-269.086 583.774 -190.503 376.462 -103.863 322.284C-17.2224 268.105 146.787 323.717 210.198 428.774C273.609 533.831 287.149 772.379 200.509 826.558" stroke="#949494" stroke-width="2"/>
<path d="M-193.625 682.8C-253.513 583.579 -179.296 387.785 -97.4691 336.616C-15.6422 285.448 139.256 337.97 199.144 437.19C259.032 536.411 271.82 761.707 189.993 812.875" stroke="#949494" stroke-width="2"/>
<path d="M-181.576 676.769C-237.941 583.385 -168.089 399.108 -91.0755 350.949C-14.0619 302.791 131.725 352.223 188.09 445.607C244.455 538.991 256.49 751.034 179.477 799.193" stroke="#949494" stroke-width="2"/>
<path d="M-169.526 670.738C-222.368 583.19 -156.882 410.431 -84.6818 365.282C-12.4816 320.133 124.193 366.476 177.036 454.024C229.878 541.571 241.161 740.362 168.961 785.51" stroke="#949494" stroke-width="2"/>
<path d="M-157.476 664.707C-206.795 582.996 -145.675 421.754 -78.2882 379.615C-10.9013 337.476 116.662 380.73 165.981 462.441C215.301 544.152 225.832 729.689 158.445 771.828" stroke="#949494" stroke-width="2"/>
</g>
<defs>
<clipPath id="clip0_1393_1844">
<rect width="1008.81" height="788.901" fill="white" transform="translate(245.858) rotate(79.1735)"/>
</clipPath>
</defs>
</svg>
