<svg width="1440" height="1024" viewBox="0 0 1440 1024" fill="none" xmlns="http://www.w3.org/2000/svg">
<path d="M-204.119 990.98C-170.627 962.601 -113.546 879.497 -43.3588 854.762C26.8288 830.027 63.5064 906.104 132.782 872.252C202.057 838.399 220.978 737.019 289.163 692.27C357.348 647.521 390.861 691.976 460.07 657.456C529.278 622.937 551.933 558.871 621.364 526.575C690.795 494.28 724.486 540.514 793.339 502.436C862.192 464.358 882.225 374.097 951.856 343.802C1021.49 313.508 1057.54 383.314 1127.57 357.022C1197.6 330.731 1218.27 246.785 1288.01 217.602C1357.75 188.42 1393.33 253.467 1462.33 216.946C1531.34 180.425 1586.56 78.6853 1619.25 42.301" stroke="#949494" stroke-linecap="round"/>
<path d="M-173.548 996.48C-142.481 968.898 -93.454 890.159 -24.4261 864.089C44.6018 838.02 90.7208 905.699 157.786 871.346C224.851 836.993 232.767 743.447 297.486 699.195C362.206 654.942 401.517 693.891 468.438 658.932C535.36 623.973 551.309 564.33 618.709 531.391C686.11 498.452 725.804 539.018 791.959 500.826C858.115 462.635 868.425 379.191 936.256 348.071C1004.09 316.95 1048.86 378.932 1117.55 351.448C1186.24 323.964 1197.91 246.259 1265.98 216.148C1334.05 186.038 1377.8 243.696 1444.29 206.919C1510.78 170.141 1555.79 74.4711 1585.14 39.6165" stroke="#949494" stroke-linecap="round"/>
<path d="M-140.817 999.533C-112.169 972.826 -70.9305 898.545 -3.30609 871.34C64.3183 844.136 119.097 903.617 183.78 868.951C248.464 834.284 246.006 748.524 307.176 704.939C368.345 661.354 412.924 694.955 477.392 659.742C541.861 624.529 551.439 569.31 616.624 535.917C681.81 502.524 726.963 537.581 790.284 499.456C853.605 461.331 854.734 384.672 920.565 352.917C986.396 321.162 1039.15 375.512 1106.27 347.033C1173.4 318.554 1176.56 247.064 1242.75 216.219C1308.94 185.375 1360.16 235.829 1423.99 198.978C1487.81 162.127 1523.04 72.5938 1549.1 39.3348" stroke="#949494" stroke-linecap="round"/>
<path d="M-106.162 1000.21C-79.9155 974.45 -46.1719 904.696 19.821 876.554C85.8139 848.412 148.455 899.932 210.604 865.132C272.753 830.333 260.582 752.273 318.137 709.517C375.692 666.761 425.002 695.19 486.87 659.904C548.738 624.618 552.297 573.805 615.103 540.142C677.908 506.48 727.968 536.208 788.336 498.323C848.704 460.439 841.22 390.498 904.869 358.297C968.518 326.096 1028.52 373.036 1093.85 343.757C1159.19 314.479 1154.37 249.15 1218.48 217.761C1282.6 186.371 1340.59 229.837 1401.62 193.089C1462.64 156.341 1488.53 72.9788 1511.4 41.3709" stroke="#949494" stroke-linecap="round"/>
<path d="M-69.8307 998.602C-45.9569 973.847 -19.3863 908.662 44.7636 879.778C108.914 850.895 178.609 894.718 238.089 859.962C297.569 825.206 276.368 754.724 330.267 712.949C384.165 671.174 437.663 694.629 496.801 659.443C555.94 624.257 553.852 577.81 614.129 544.057C674.407 510.303 728.816 534.904 786.132 497.426C843.447 459.949 827.942 396.628 889.244 364.164C950.547 331.7 1017.03 371.484 1080.38 341.598C1143.74 311.712 1131.46 252.46 1193.34 220.711C1255.21 188.963 1319.25 225.682 1377.37 189.207C1435.48 152.732 1452.51 75.543 1472.28 45.6315" stroke="#949494" stroke-linecap="round"/>
<path d="M-32.068 994.789C-10.5267 971.097 9.21767 910.498 71.3302 881.066C133.443 851.633 209.378 888.057 266.072 853.513C322.766 818.969 293.244 755.908 343.463 715.255C393.681 674.602 450.824 693.298 507.122 658.38C563.42 623.462 556.073 581.32 613.692 547.649C671.311 513.978 729.512 533.671 783.695 496.758C837.878 459.845 814.963 403.018 873.772 370.468C932.581 337.919 1004.79 370.827 1065.98 340.522C1127.16 310.216 1108 256.929 1167.47 225.003C1226.94 193.077 1296.32 223.317 1351.43 187.277C1406.54 151.237 1415.21 80.1919 1431.99 52.0115" stroke="#949494" stroke-linecap="round"/>
<path d="M6.87291 988.879C26.1326 966.297 39.4208 910.278 99.3192 880.485C159.218 850.691 240.574 880.039 294.386 845.869C348.197 811.699 311.077 755.869 357.614 716.469C404.15 677.069 464.395 691.238 517.761 656.748C571.127 622.258 558.92 584.339 613.77 550.916C668.621 517.493 730.053 532.516 781.044 496.318C832.034 460.12 802.338 409.627 858.525 377.165C914.712 344.703 991.881 371.041 1050.74 340.5C1109.6 309.959 1084.12 262.497 1141.05 230.569C1197.98 198.64 1271.97 222.694 1324 187.243C1376.03 151.792 1376.88 86.8294 1390.79 60.4047" stroke="#949494" stroke-linecap="round"/>
<path d="M46.7459 980.974C63.7851 959.542 71.008 908.073 128.534 878.102C186.06 848.13 272.021 870.753 322.871 837.111C373.721 803.469 329.743 754.648 372.614 716.619C415.485 678.59 478.291 688.482 528.653 654.571C579.014 620.661 562.359 586.863 614.349 553.847C666.339 520.832 730.448 531.44 778.204 496.097C825.96 460.754 790.123 416.41 843.579 384.2C897.034 351.99 978.403 372.088 1034.79 341.49C1091.18 310.892 1059.96 269.091 1114.23 237.328C1168.5 205.566 1246.39 223.749 1295.28 189.032C1344.18 154.316 1337.76 95.3439 1348.93 70.6891" stroke="#949494" stroke-linecap="round"/>
<path d="M87.2971 971.194C102.187 950.945 103.754 903.97 158.768 873.998C213.782 844.026 303.534 860.298 351.363 827.329C399.193 794.36 349.105 752.298 388.347 715.747C427.59 679.196 492.424 685.073 539.727 651.885C587.03 618.697 566.348 588.901 615.403 556.443C664.459 523.986 730.695 530.448 775.194 496.09C819.694 461.732 778.368 423.325 829.001 391.526C879.634 359.726 964.445 373.937 1018.23 343.453C1072.02 312.97 1035.67 276.638 1087.18 245.205C1138.69 213.771 1219.75 226.417 1265.48 192.571C1311.2 158.724 1298.08 105.624 1306.67 82.743" stroke="#949494" stroke-linecap="round"/>
<path d="M128.279 959.659C141.1 940.617 137.437 898.059 189.818 868.258C242.199 838.457 334.94 848.773 379.707 816.614C424.475 784.455 369.034 748.871 404.702 713.893C440.371 678.915 506.706 681.052 550.917 648.721C595.127 616.389 570.845 590.457 616.913 558.7C662.98 526.943 730.801 529.541 772.04 496.288C813.279 463.036 767.123 430.328 814.862 399.089C862.6 367.85 950.104 376.545 1001.19 346.341C1052.27 316.137 1011.38 285.063 1060.05 254.112C1108.72 223.16 1192.25 230.624 1234.79 197.774C1277.33 164.924 1258.1 117.546 1264.24 96.4336" stroke="#949494" stroke-linecap="round"/>
<path d="M169.443 946.498C180.283 928.681 171.832 890.439 221.478 860.973C271.124 831.507 366.061 836.283 407.745 805.06C449.429 773.837 389.393 744.426 421.561 711.104C453.73 677.782 521.051 676.466 562.152 645.114C603.254 613.763 575.805 591.54 618.848 560.617C661.892 529.694 730.767 528.721 768.761 496.684C806.755 464.647 756.43 437.378 801.221 406.841C846.012 376.303 935.472 379.871 983.759 350.105C1032.05 320.339 987.236 294.286 1033 263.963C1078.76 233.64 1164.06 236.291 1203.42 204.554C1242.77 172.817 1218.05 130.986 1221.9 111.626" stroke="#949494" stroke-linecap="round"/>
<path d="M210.546 931.846C219.504 915.262 206.715 881.217 253.545 852.241C300.374 823.266 396.731 822.933 435.328 792.764C473.925 762.595 410.053 739.025 438.812 707.428C467.57 675.832 535.375 671.359 573.37 641.102C611.365 610.845 581.184 592.162 621.187 562.196C661.19 532.231 730.601 527.99 765.383 497.268C800.165 466.545 746.332 444.431 788.142 414.728C829.952 385.024 920.646 383.871 966.07 354.691C1011.49 325.512 963.364 304.225 1006.18 274.667C1048.99 245.109 1135.39 243.333 1171.58 212.814C1207.76 182.295 1178.15 145.81 1179.88 128.177" stroke="#949494" stroke-linecap="round"/>
<path d="M251.352 915.841C258.532 900.492 241.867 870.502 285.817 842.165C329.767 813.828 426.787 808.833 462.313 779.824C497.838 750.814 430.882 732.733 456.339 702.92C481.795 673.107 549.596 665.78 584.505 636.722C619.413 607.663 586.938 592.334 623.901 563.439C660.865 534.545 730.309 527.349 761.931 498.028C793.552 468.707 736.87 451.446 775.683 422.699C814.496 393.952 905.722 388.495 948.233 360.043C990.745 331.591 939.899 314.796 979.739 286.131C1019.58 257.466 1106.41 251.658 1139.47 222.452C1172.53 193.246 1138.64 161.881 1138.43 145.942" stroke="#949494" stroke-linecap="round"/>
<path d="M291.623 898.629C297.137 884.509 277.064 858.413 318.091 830.853C359.119 803.293 456.069 794.095 488.555 766.342C521.042 738.588 451.747 725.622 474.025 697.637C496.303 669.652 563.629 659.782 595.49 632.015C627.352 604.247 593.014 592.073 626.958 564.353C660.903 536.632 729.896 526.8 758.424 498.957C786.952 471.114 728.073 458.383 763.893 430.706C799.712 403.028 890.788 393.696 930.357 366.103C969.926 338.511 916.964 325.914 953.825 298.26C990.686 270.606 1077.3 261.173 1107.29 233.363C1137.28 205.553 1099.74 179.062 1097.76 164.772" stroke="#949494" stroke-linecap="round"/>
<path d="M331.135 880.354C335.102 867.45 312.092 845.07 350.173 818.417C388.255 791.763 484.428 778.829 513.925 752.416C543.422 726.004 472.521 717.76 491.76 691.636C510.998 665.511 577.399 653.413 606.268 627.018C635.137 600.623 599.368 591.393 630.331 564.939C661.294 538.486 729.37 526.34 754.889 500.039C780.408 473.738 719.976 465.201 752.823 438.695C785.67 412.188 875.939 399.42 912.555 372.807C949.17 346.195 894.684 337.491 928.578 310.954C962.472 284.418 1048.26 271.776 1075.25 245.434C1102.23 219.092 1061.68 197.204 1058.1 184.512" stroke="#949494" stroke-linecap="round"/>
<path d="M369.666 861.169C372.208 849.462 346.737 830.602 381.867 804.973C416.997 779.344 511.715 763.15 538.29 738.151C564.865 713.153 493.077 709.226 509.428 684.98C525.779 660.735 590.826 646.727 616.775 621.774C642.725 596.822 605.949 590.315 633.984 565.209C662.02 540.103 728.736 525.972 751.347 501.265C773.958 476.559 712.602 471.863 742.516 446.618C772.43 421.374 861.263 405.613 894.933 380.092C928.602 354.571 873.172 349.438 904.129 324.117C935.086 298.796 1019.45 283.364 1043.53 258.55C1067.6 233.736 1024.64 216.164 1019.67 205.01" stroke="#949494" stroke-linecap="round"/>
<path d="M407.005 841.228C408.251 830.689 380.793 815.138 412.986 790.642C445.179 766.147 537.795 747.172 561.532 723.65C585.268 700.128 513.292 700.095 526.922 677.736C540.552 655.377 603.838 639.777 626.956 616.326C650.074 592.875 612.707 588.86 637.887 565.171C663.068 541.483 728.004 525.694 747.822 502.622C767.639 479.551 705.975 478.332 733.012 454.43C760.049 430.528 846.849 412.222 877.598 387.893C908.347 363.564 852.541 361.67 880.609 337.649C908.677 313.629 991.063 295.831 1012.32 272.594C1033.59 249.357 988.843 235.794 982.664 226.11" stroke="#949494" stroke-linecap="round"/>
<path d="M442.95 820.683C443.033 811.28 414.058 798.811 443.348 775.546C472.637 752.281 562.541 731.008 583.538 709.012C604.535 687.017 533.046 690.446 544.133 669.968C555.22 649.489 616.365 632.618 636.755 610.715C657.145 588.812 619.594 587.047 642.006 564.835C664.419 542.623 727.182 525.504 744.336 504.096C761.49 482.689 700.114 484.571 724.347 462.08C748.58 439.589 832.781 419.188 860.654 396.14C888.528 373.092 832.895 374.095 858.139 351.449C883.384 328.804 963.256 309.066 981.826 287.442C1000.4 265.818 954.474 255.943 947.276 247.654" stroke="#949494" stroke-linecap="round"/>
<path d="M477.306 799.69C476.361 791.382 446.337 781.757 472.773 759.809C499.209 737.861 585.828 714.77 604.199 694.34C622.57 673.91 552.222 680.36 560.955 661.744C569.688 643.128 628.337 625.301 646.118 604.982C663.899 584.663 626.557 584.901 646.306 564.212C666.054 543.523 726.276 525.4 740.91 505.673C755.544 485.946 695.031 490.546 716.549 469.523C738.068 448.501 819.14 426.454 844.199 404.765C869.258 383.076 814.331 386.624 836.833 365.417C859.336 344.209 936.198 322.955 952.209 302.969C968.22 282.983 921.712 276.46 913.686 269.484" stroke="#949494" stroke-linecap="round"/>
<path d="M509.892 778.407C508.059 771.147 477.442 764.115 501.094 743.559C524.746 723.002 607.547 698.573 623.42 679.735C639.294 660.897 570.71 669.92 577.289 653.136C583.867 636.352 639.692 617.884 654.996 599.172C670.301 580.46 633.55 582.449 650.751 563.317C667.953 544.186 725.296 525.382 737.565 507.341C749.835 489.299 690.736 496.226 709.645 476.718C728.554 457.209 806.005 433.962 828.329 413.699C850.653 393.435 796.942 399.172 816.8 379.454C836.657 359.735 910.049 337.385 923.646 319.05C937.244 300.715 890.73 297.197 882.067 291.446" stroke="#949494" stroke-linecap="round"/>
<path d="M540.537 756.988C537.957 750.725 507.196 746.025 528.149 726.922C549.103 707.819 627.596 682.525 641.113 665.294C654.631 648.063 588.404 659.208 593.035 644.214C597.666 629.221 650.371 610.42 663.344 593.326C676.318 576.232 640.522 579.714 655.309 562.164C670.096 544.613 724.251 525.447 734.323 509.084C744.395 492.721 687.236 501.582 703.655 483.62C720.075 465.659 793.453 441.652 813.137 422.869C832.821 404.086 780.811 411.65 798.137 393.46C815.464 375.271 884.961 352.241 896.303 335.558C907.644 318.875 861.687 318.002 852.577 313.382" stroke="#949494" stroke-linecap="round"/>
<path d="M569.084 735.588C565.897 730.263 535.43 727.626 553.787 710.027C572.144 692.428 645.883 666.735 657.198 651.114C668.514 635.494 605.201 648.306 608.101 635.05C611.002 621.794 660.318 602.962 671.119 587.486C681.919 572.011 647.425 576.725 659.943 560.767C672.461 544.809 723.152 525.591 731.204 510.888C739.257 496.184 684.531 506.583 698.595 490.191C712.658 473.799 781.554 449.466 798.709 432.205C815.863 414.944 766.016 423.972 780.938 407.339C795.86 390.705 861.08 367.405 870.335 352.364C879.59 337.322 834.73 338.729 825.36 335.141" stroke="#949494" stroke-linecap="round"/>
<path d="M595.387 714.359C591.736 709.909 561.983 709.058 577.862 693.002C593.74 676.947 662.326 651.309 671.605 637.291C680.883 623.273 621.008 637.299 622.399 625.716C623.79 614.134 669.484 595.564 678.28 581.695C687.076 567.826 654.213 573.512 664.618 559.146C675.024 544.78 722.006 525.812 728.226 512.739C734.446 499.665 682.62 511.206 694.475 496.393C706.329 481.579 770.375 457.343 785.127 441.635C799.879 425.927 752.624 436.057 765.284 420.995C777.943 405.933 838.544 382.76 845.891 369.339C853.238 355.917 809.995 359.231 800.549 356.572" stroke="#949494" stroke-linecap="round"/>
<path d="M619.312 693.451C615.339 689.81 586.706 690.462 600.24 675.975C613.773 661.488 676.854 636.349 684.272 623.914C691.689 611.478 635.735 626.269 635.844 616.285C635.952 606.302 677.822 588.278 684.792 575.993C691.761 563.707 660.838 570.102 669.299 557.316C677.761 544.53 720.824 526.106 725.407 514.622C729.991 503.137 681.495 515.426 691.299 502.19C701.103 488.954 759.978 465.226 772.467 451.089C784.956 436.952 740.697 447.82 751.247 434.334C761.797 420.847 817.48 398.19 823.107 386.355C828.734 374.52 787.602 379.365 778.259 377.526" stroke="#949494" stroke-linecap="round"/>
<path d="M640.74 673.011C636.585 670.106 609.461 671.975 620.796 659.071C632.13 646.167 689.406 621.955 695.147 611.071C700.889 600.187 649.298 615.298 648.355 606.829C647.412 598.359 685.288 581.154 690.62 570.419C695.952 559.683 667.253 566.525 673.95 555.296C680.646 544.067 719.614 526.468 722.763 516.521C725.913 506.573 681.143 519.22 689.067 507.548C696.992 495.876 750.42 473.053 760.8 460.494C771.18 447.935 730.285 459.182 738.891 447.264C747.497 435.345 798.006 413.577 802.111 403.285C806.215 392.992 767.659 398.99 758.592 397.86" stroke="#949494" stroke-linecap="round"/>
<path d="M659.569 653.183C655.371 650.939 630.122 653.735 639.419 642.415C648.716 631.095 699.934 608.222 704.193 598.848C708.452 589.474 661.624 604.468 659.863 597.419C658.102 590.37 691.849 574.245 695.739 565.013C699.63 555.782 673.419 562.813 678.538 553.107C683.657 543.401 718.387 526.896 720.312 518.423C722.237 509.951 681.552 522.572 687.777 512.439C694.002 502.305 741.755 480.771 750.192 469.783C758.629 458.796 721.434 470.069 728.273 459.699C735.112 449.328 780.236 428.809 783.021 420.004C785.806 411.199 750.261 417.971 741.64 417.436" stroke="#949494" stroke-linecap="round"/>
<path d="M675.707 634.105C671.603 632.443 648.575 635.875 656.005 626.13C663.436 616.384 708.397 595.242 711.375 587.325C714.353 579.408 672.643 593.859 670.299 588.128C667.954 582.396 697.471 567.597 700.123 559.814C702.775 552.031 679.29 558.997 683.028 550.768C686.766 542.539 717.152 527.383 718.066 520.313C718.98 513.244 682.7 525.465 687.416 516.834C692.132 508.203 734.03 488.319 740.7 478.886C747.371 469.452 714.176 480.407 719.435 471.553C724.693 462.699 764.267 443.77 765.942 436.388C767.616 429.006 735.486 436.176 727.472 436.12" stroke="#949494" stroke-linecap="round"/>
<path d="M689.084 615.911C685.206 614.749 664.72 618.528 670.468 610.333C676.217 602.139 714.774 583.101 716.677 576.578C718.581 570.055 682.297 583.549 679.604 579.023C676.912 574.498 702.133 561.257 703.755 554.856C705.377 548.456 684.83 555.109 687.39 548.3C689.95 541.492 715.921 527.925 716.042 522.176C716.164 516.428 684.569 527.884 687.973 520.708C691.377 513.533 727.289 495.645 732.381 487.736C737.473 479.827 708.542 490.124 712.415 482.745C716.288 475.366 750.193 458.35 750.971 452.316C751.749 446.283 723.403 453.478 716.149 453.783" stroke="#949494" stroke-linecap="round"/>
<path d="M699.638 598.729C696.114 597.982 678.466 601.82 682.726 595.142C686.986 588.465 719.045 571.879 720.086 566.678C721.127 561.476 690.529 573.613 687.723 570.175C684.916 566.737 705.81 555.269 706.615 550.176C707.421 545.082 689.998 551.179 691.588 545.725C693.179 540.272 714.701 528.516 714.25 523.999C713.799 519.481 687.127 529.818 689.424 524.04C691.721 518.263 721.566 502.692 725.277 496.267C728.987 489.841 704.545 499.156 707.235 493.199C709.924 487.241 738.089 472.441 738.187 467.671C738.286 462.901 714.058 469.756 707.708 470.304" stroke="#949494" stroke-linecap="round"/>
<path d="M707.326 582.681C704.282 582.262 689.741 585.875 692.715 580.669C695.69 575.463 721.209 561.654 721.603 557.692C721.998 553.729 697.297 564.125 694.608 561.649C691.919 559.173 708.489 549.677 708.694 545.806C708.9 541.934 694.76 547.24 695.594 543.066C696.429 538.891 713.503 529.153 712.701 525.766C711.9 522.38 690.346 531.259 691.748 526.812C693.149 522.364 716.893 509.411 719.427 504.417C721.961 499.423 702.195 507.441 703.911 502.841C705.626 498.242 728.024 485.938 727.663 482.339C727.302 478.741 707.488 484.896 702.178 485.568" stroke="#949494" stroke-linecap="round"/>
<path d="M712.117 567.883C709.671 567.703 698.479 570.813 700.378 567.021C702.278 563.229 721.269 552.495 721.235 549.681C721.201 546.866 702.56 555.157 700.215 553.51C697.871 551.864 710.156 544.52 709.98 541.777C709.805 539.034 699.077 543.325 699.373 540.343C699.67 537.361 712.332 529.828 711.402 527.466C710.472 525.104 694.189 532.203 694.91 529.007C695.63 525.811 713.291 515.75 714.861 512.125C716.43 508.499 701.487 514.921 702.443 511.606C703.399 508.29 720.051 498.74 719.451 496.211C718.852 493.682 703.707 498.79 699.564 499.468" stroke="#949494" stroke-linecap="round"/>
<path d="M714.009 554.442C712.274 554.412 704.642 556.746 705.684 554.3C706.726 551.854 719.252 544.467 719.01 542.7C718.768 540.934 706.298 546.775 704.52 545.821C702.743 544.867 710.816 539.837 710.479 538.12C710.143 536.403 702.929 539.463 702.906 537.58C702.883 535.698 711.206 530.535 710.369 529.084C709.531 527.632 698.627 532.645 698.886 530.613C699.145 528.581 710.789 521.662 711.611 519.331C712.434 517.001 702.42 521.543 702.835 519.428C703.251 517.314 714.224 510.749 713.606 509.181C712.988 507.614 702.73 511.337 699.868 511.904" stroke="#949494" stroke-linecap="round"/>
<path d="M712.997 542.459C712.08 542.489 708.189 543.784 708.596 542.605C709.004 541.426 715.183 537.627 714.952 536.801C714.722 535.975 708.482 539.045 707.489 538.641C706.496 538.237 710.462 535.661 710.185 534.861C709.907 534.061 706.279 535.687 706.158 534.8C706.036 533.914 710.127 531.27 709.6 530.608C709.074 529.946 703.613 532.585 703.631 531.621C703.649 530.658 709.39 527.101 709.688 525.983C709.987 524.864 704.967 527.259 705.064 526.252C705.16 525.246 710.567 521.874 710.15 521.151C709.732 520.429 704.537 522.444 703.06 522.784" stroke="#949494" stroke-linecap="round"/>
</svg>
